  0
SECTION
  2
HEADER
  9
$ACADVER
  1
AC1014
  9
$HANDSEED
  5
FFFF
  9
$MEASUREMENT
 70
     1
  0
ENDSEC
  0
SECTION
  2
TABLES
  0
TABLE
  2
VPORT
  5
8
330
0
100
AcDbSymbolTable
 70
     4
  0
VPORT
  5
2E
330
8
100
AcDbSymbolTableRecord
100
AcDbViewportTableRecord
  2
*ACTIVE
 70
     0
 10
0.0
 20
0.0
 11
1.0
 21
1.0
 12
210.0
 22
148.5
 13
0.0
 23
0.0
 14
10.0
 24
10.0
 15
10.0
 25
10.0
 16
0.0
 26
0.0
 36
1.0
 17
0.0
 27
0.0
 37
0.0
 40
341.0
 41
1.24
 42
50.0
 43
0.0
 44
0.0
 50
0.0
 51
0.0
 71
     0
 72
   100
 73
     1
 74
     3
 75
     0
 76
     0
 77
     0
 78
     0
  0
ENDTAB
  0
TABLE
  2
LTYPE
  5
5
330
0
100
AcDbSymbolTable
 70
     1
  0
LTYPE
  5
14
330
5
100
AcDbSymbolTableRecord
100
AcDbLinetypeTableRecord
  2
BYBLOCK
 70
     0
  3

 72
    65
 73
     0
 40
0.0
  0
LTYPE
  5
15
330
5
100
AcDbSymbolTableRecord
100
AcDbLinetypeTableRecord
  2
BYLAYER
 70
     0
  3

 72
    65
 73
     0
 40
0.0
  0
LTYPE
  5
16
330
5
100
AcDbSymbolTableRecord
100
AcDbLinetypeTableRecord
  2
CONTINUOUS
 70
     0
  3
Solid line
 72
    65
 73
     0
 40
0.0
  0
ENDTAB
  0
TABLE
  2
LAYER
  5
2
100
AcDbSymbolTable
 70
1
  0
LAYER
  5
50
100
AcDbSymbolTableRecord
100
AcDbLayerTableRecord
  2
0
 70
0
  6
CONTINUOUS
  0
ENDTAB
  0
TABLE
  2
STYLE
  5
3
330
0
100
AcDbSymbolTable
 70
     1
  0
STYLE
  5
11
330
3
100
AcDbSymbolTableRecord
100
AcDbTextStyleTableRecord
  2
STANDARD
 70
     0
 40
0.0
 41
1.0
 50
0.0
 71
     0
 42
2.5
  3
txt
  4

  0
ENDTAB
  0
TABLE
  2
VIEW
  5
6
330
0
100
AcDbSymbolTable
 70
     0
  0
ENDTAB
  0
TABLE
  2
UCS
  5
7
330
0
100
AcDbSymbolTable
 70
     0
  0
ENDTAB
  0
TABLE
  2
APPID
  5
9
330
0
100
AcDbSymbolTable
 70
     2
  0
APPID
  5
12
330
9
100
AcDbSymbolTableRecord
100
AcDbRegAppTableRecord
  2
ACAD
 70
     0
  0
ENDTAB
  0
TABLE
  2
DIMSTYLE
  5
A
330
0
100
AcDbSymbolTable
 70
     1
  0
DIMSTYLE
105
27
330
A
100
AcDbSymbolTableRecord
100
AcDbDimStyleTableRecord
  2
ISO-25
 70
     0
  3

  4

  5

  6

  7

 40
1.0
 41
2.5
 42
0.625
 43
3.75
 44
1.25
 45
0.0
 46
0.0
 47
0.0
 48
0.0
140
2.5
141
2.5
142
0.0
143
0.03937007874016
144
1.0
145
0.0
146
1.0
147
0.625
 71
     0
 72
     0
 73
     0
 74
     0
 75
     0
 76
     0
 77
     1
 78
     8
170
     0
171
     3
172
     1
173
     0
174
     0
175
     0
176
     0
177
     0
178
     0
270
     2
271
     2
272
     2
273
     2
274
     3
340
11
275
     0
280
     0
281
     0
282
     0
283
     0
284
     8
285
     0
286
     0
287
     3
288
     0
  0
ENDTAB
  0
TABLE
  2
BLOCK_RECORD
  5
1
330
0
100
AcDbSymbolTable
 70
     1
  0
BLOCK_RECORD
  5
1F
330
1
100
AcDbSymbolTableRecord
100
AcDbBlockTableRecord
  2
*MODEL_SPACE
  0
BLOCK_RECORD
  5
1B
330
1
100
AcDbSymbolTableRecord
100
AcDbBlockTableRecord
  2
*PAPER_SPACE
  0
ENDTAB
  0
ENDSEC
  0
SECTION
  2
BLOCKS
  0
BLOCK
  5
20
330
1F
100
AcDbEntity
  8
0
100
AcDbBlockBegin
  2
*MODEL_SPACE
 70
     0
 10
0.0
 20
0.0
 30
0.0
  3
*MODEL_SPACE
  1

  0
ENDBLK
  5
21
330
1F
100
AcDbEntity
  8
0
100
AcDbBlockEnd
  0
BLOCK
  5
1C
330
1B
100
AcDbEntity
 67
     1
  8
0
100
AcDbBlockBegin
  2
*PAPER_SPACE
  1

  0
ENDBLK
  5
1D
330
1B
100
AcDbEntity
 67
     1
  8
0
100
AcDbBlockEnd
  0
ENDSEC
  0
SECTION
  2
ENTITIES
  0
SPLINE
  5
100
100
AcDbEntity
  8
0
 62
7
100
AcDbSpline
 70
0
 71
3
 72
28
 73
24
 74
22
 40
0.000000
 40
0.000000
 40
0.000000
 40
0.000000
 40
0.063597
 40
0.150937
 40
0.237088
 40
0.275079
 40
0.285206
 40
0.330454
 40
0.412879
 40
0.476235
 40
0.515990
 40
0.534656
 40
0.550140
 40
0.575673
 40
0.593800
 40
0.603300
 40
0.606799
 40
0.668768
 40
0.703746
 40
0.725743
 40
0.741853
 40
0.761331
 40
0.784128
 40
0.784128
 40
0.784128
 40
0.784128
 10
0.984553
 20
0.302083
 30
0.0
 10
0.981798
 20
0.322926
 30
0.0
 10
0.975260
 20
0.372393
 30
0.0
 10
0.992893
 20
0.457728
 30
0.0
 10
1.013466
 20
0.502289
 30
0.0
 10
1.038494
 20
0.575731
 30
0.0
 10
1.058202
 20
0.543575
 30
0.0
 10
1.024349
 20
0.501326
 30
0.0
 10
1.012868
 20
0.440670
 30
0.0
 10
1.001270
 20
0.379146
 30
0.0
 10
1.012748
 20
0.337329
 30
0.0
 10
1.034846
 20
0.322084
 30
0.0
 10
1.055636
 20
0.326144
 30
0.0
 10
1.070840
 20
0.341694
 30
0.0
 10
1.082186
 20
0.349236
 30
0.0
 10
1.094679
 20
0.360661
 30
0.0
 10
1.098622
 20
0.331006
 30
0.0
 10
1.069511
 20
0.308228
 30
0.0
 10
1.051788
 20
0.271907
 30
0.0
 10
1.026958
 20
0.261392
 30
0.0
 10
1.007981
 20
0.268273
 30
0.0
 10
0.993868
 20
0.282365
 30
0.0
 10
0.987816
 20
0.295175
 30
0.0
 10
0.984553
 20
0.302083
 30
0.0
 11
0.984553
 21
0.302083
 31
0.0
 11
0.979442
 21
0.365474
 31
0.0
 11
0.993989
 21
0.451595
 31
0.0
 11
1.023479
 21
0.532541
 31
0.0
 11
1.044428
 21
0.564235
 31
0.0
 11
1.049943
 21
0.555741
 31
0.0
 11
1.036458
 21
0.512549
 31
0.0
 11
1.011610
 21
0.433959
 31
0.0
 11
1.005897
 21
0.370861
 31
0.0
 11
1.020275
 21
0.333797
 31
0.0
 11
1.036301
 21
0.324226
 31
0.0
 11
1.051603
 21
0.326599
 31
0.0
 11
1.072092
 21
0.341833
 31
0.0
 11
1.086263
 21
0.353138
 31
0.0
 11
1.094666
 21
0.357569
 31
0.0
 11
1.095482
 21
0.354167
 31
0.0
 11
1.067267
 21
0.298994
 31
0.0
 11
1.045758
 21
0.271411
 31
0.0
 11
1.025087
 21
0.263889
 31
0.0
 11
1.009731
 21
0.268759
 31
0.0
 11
0.995555
 21
0.282117
 31
0.0
 11
0.984553
 21
0.302083
 31
0.0
  0
LWPOLYLINE
  5
101
100
AcDbEntity
  8
0
 62
7
100
AcDbPolyline
 90
2
 70
1
 10
0.984553
 20
0.302083
 30
0.0
 10
0.984553
 20
0.302083
 30
0.0
  0
SPLINE
  5
102
100
AcDbEntity
  8
0
 62
7
100
AcDbSpline
 70
0
 71
3
 72
10
 73
6
 74
4
 40
0.000000
 40
0.000000
 40
0.000000
 40
0.000000
 40
0.054110
 40
0.138340
 40
0.233301
 40
0.233301
 40
0.233301
 40
0.233301
 10
1.181275
 20
0.283855
 30
0.0
 10
1.176540
 20
0.301487
 30
0.0
 10
1.164433
 20
0.346564
 30
0.0
 10
1.185011
 20
0.424671
 30
0.0
 10
1.209312
 20
0.478853
 30
0.0
 10
1.222190
 20
0.507565
 30
0.0
 11
1.181275
 21
0.283855
 31
0.0
 11
1.170788
 21
0.336939
 31
0.0
 11
1.185942
 21
0.419795
 31
0.0
 11
1.222190
 21
0.507565
 31
0.0
  0
LWPOLYLINE
  5
103
100
AcDbEntity
  8
0
 62
7
100
AcDbPolyline
 90
5
 70
1
 10
1.222190
 20
0.507565
 30
0.0
 10
1.260908
 20
0.577631
 30
0.0
 10
1.189249
 20
0.658393
 30
0.0
 10
1.117590
 20
0.739155
 30
0.0
 10
0.995064
 20
0.591520
 30
0.0
  0
SPLINE
  5
104
100
AcDbEntity
  8
0
 62
7
100
AcDbSpline
 70
0
 71
3
 72
16
 73
12
 74
10
 40
0.000000
 40
0.000000
 40
0.000000
 40
0.000000
 40
0.148636
 40
0.241423
 40
0.298850
 40
0.344055
 40
0.395496
 40
0.441733
 40
0.502307
 40
0.575037
 40
0.638405
 40
0.638405
 40
0.638405
 40
0.638405
 10
0.995064
 20
0.591520
 30
0.0
 10
0.962906
 20
0.553755
 30
0.0
 10
0.910674
 20
0.492414
 30
0.0
 10
0.838912
 20
0.423392
 30
0.0
 10
0.774964
 20
0.396543
 30
0.0
 10
0.723916
 20
0.413321
 30
0.0
 10
0.684077
 20
0.439344
 30
0.0
 10
0.648776
 20
0.481020
 30
0.0
 10
0.640191
 20
0.542069
 30
0.0
 10
0.637024
 20
0.607626
 30
0.0
 10
0.647539
 20
0.652032
 30
0.0
 10
0.652434
 20
0.672707
 30
0.0
 11
0.995064
 21
0.591520
 31
0.0
 11
0.896415
 21
0.480340
 31
0.0
 11
0.825428
 21
0.420588
 31
0.0
 11
0.770833
 21
0.402778
 31
0.0
 11
0.727092
 21
0.414190
 31
0.0
 11
0.684137
 21
0.442492
 31
0.0
 11
0.655482
 21
0.478779
 31
0.0
 11
0.641645
 21
0.537751
 31
0.0
 11
0.640502
 21
0.610473
 31
0.0
 11
0.652434
 21
0.672707
 31
0.0
  0
LWPOLYLINE
  5
105
100
AcDbEntity
  8
0
 62
7
100
AcDbPolyline
 90
3
 70
1
 10
0.652434
 20
0.672707
 30
0.0
 10
0.665979
 20
0.708333
 30
0.0
 10
0.585044
 20
0.708333
 30
0.0
  0
SPLINE
  5
106
100
AcDbEntity
  8
0
 62
7
100
AcDbSpline
 70
0
 71
3
 72
124
 73
120
 74
118
 40
0.000000
 40
0.000000
 40
0.000000
 40
0.000000
 40
0.089432
 40
0.168084
 40
0.256543
 40
0.309173
 40
0.362380
 40
0.446340
 40
0.510096
 40
0.559352
 40
0.583915
 40
0.593215
 40
0.628158
 40
0.688366
 40
0.763517
 40
0.812685
 40
0.854370
 40
0.994437
 40
1.162238
 40
1.375084
 40
1.418712
 40
1.451276
 40
1.466067
 40
1.490276
 40
1.546050
 40
1.621420
 40
1.712720
 40
1.810379
 40
1.893426
 40
1.979248
 40
2.017335
 40
2.043836
 40
2.046959
 40
2.073968
 40
2.124546
 40
2.298773
 40
2.428011
 40
2.525286
 40
2.587085
 40
2.652101
 40
2.717578
 40
2.801915
 40
2.886702
 40
2.928464
 40
2.934884
 40
2.943736
 40
2.956317
 40
3.016998
 40
3.090985
 40
3.147607
 40
3.267990
 40
3.426394
 40
3.650584
 40
3.717320
 40
3.751620
 40
3.769679
 40
3.797388
 40
3.810625
 40
3.836234
 40
3.856864
 40
3.876781
 40
3.899594
 40
3.924491
 40
3.938609
 40
3.978850
 40
4.013279
 40
4.035991
 40
4.052956
 40
4.069399
 40
4.089765
 40
4.110721
 40
4.157493
 40
4.212356
 40
4.268196
 40
4.297493
 40
4.343462
 40
4.431036
 40
4.520958
 40
4.628653
 40
4.730965
 40
5.009022
 40
5.312888
 40
5.736112
 40
6.257240
 40
6.648484
 40
7.011219
 40
7.106479
 40
7.132685
 40
7.164713
 40
7.325180
 40
7.563263
 40
7.770458
 40
7.990748
 40
8.258081
 40
8.592116
 40
9.001771
 40
9.306318
 40
9.593300
 40
9.754131
 40
9.893696
 40
9.956414
 40
9.991264
 40
10.044123
 40
10.102184
 40
10.170112
 40
10.234928
 40
10.297478
 40
10.337867
 40
10.381034
 40
10.471628
 40
10.640997
 40
10.818919
 40
10.909967
 40
10.931534
 40
10.976470
 40
11.041361
 40
11.080365
 40
11.119053
 40
11.149546
 40
11.149546
 40
11.149546
 40
11.149546
 10
0.585044
 20
0.708333
 30
0.0
 10
0.554910
 20
0.710025
 30
0.0
 10
0.498274
 20
0.713204
 30
0.0
 10
0.422015
 20
0.759646
 30
0.0
 10
0.381818
 20
0.822237
 30
0.0
 10
0.353756
 20
0.881095
 30
0.0
 10
0.347090
 20
0.945220
 30
0.0
 10
0.351025
 20
1.010132
 30
0.0
 10
0.354849
 20
1.081191
 30
0.0
 10
0.362370
 20
1.113979
 30
0.0
 10
0.366054
 20
1.161389
 30
0.0
 10
0.384993
 20
1.139169
 30
0.0
 10
0.376499
 20
1.104026
 30
0.0
 10
0.380156
 20
1.047441
 30
0.0
 10
0.375214
 20
0.985999
 30
0.0
 10
0.380711
 20
0.930359
 30
0.0
 10
0.410554
 20
0.858436
 30
0.0
 10
0.514657
 20
0.781896
 30
0.0
 10
0.696711
 20
0.795335
 30
0.0
 10
0.825171
 20
0.855030
 30
0.0
 10
0.906679
 20
0.909765
 30
0.0
 10
0.928900
 20
0.927162
 30
0.0
 10
0.950778
 20
0.944888
 30
0.0
 10
0.921389
 20
0.973852
 30
0.0
 10
0.900155
 20
1.015010
 30
0.0
 10
0.852535
 20
1.075350
 30
0.0
 10
0.803370
 20
1.147549
 30
0.0
 10
0.754891
 20
1.223823
 30
0.0
 10
0.709493
 20
1.302373
 30
0.0
 10
0.682651
 20
1.359799
 30
0.0
 10
0.655478
 20
1.413329
 30
0.0
 10
0.675972
 20
1.429030
 30
0.0
 10
0.680193
 20
1.449520
 30
0.0
 10
0.643982
 20
1.408175
 30
0.0
 10
0.596380
 20
1.377500
 30
0.0
 10
0.490491
 20
1.289317
 30
0.0
 10
0.365679
 20
1.241783
 30
0.0
 10
0.263028
 20
1.264837
 30
0.0
 10
0.214647
 20
1.324503
 30
0.0
 10
0.187198
 20
1.383240
 30
0.0
 10
0.177091
 20
1.454095
 30
0.0
 10
0.187185
 20
1.537634
 30
0.0
 10
0.204545
 20
1.588078
 30
0.0
 10
0.213172
 20
1.659633
 30
0.0
 10
0.232881
 20
1.649557
 30
0.0
 10
0.232936
 20
1.639068
 30
0.0
 10
0.224929
 20
1.613599
 30
0.0
 10
0.213760
 20
1.564831
 30
0.0
 10
0.210048
 20
1.501764
 30
0.0
 10
0.207379
 20
1.416117
 30
0.0
 10
0.307360
 20
1.323354
 30
0.0
 10
0.483340
 20
1.377751
 30
0.0
 10
0.608011
 20
1.462838
 30
0.0
 10
0.681253
 20
1.537269
 30
0.0
 10
0.713353
 20
1.568074
 30
0.0
 10
0.707698
 20
1.595542
 30
0.0
 10
0.691626
 20
1.613488
 30
0.0
 10
0.666097
 20
1.604399
 30
0.0
 10
0.675089
 20
1.579906
 30
0.0
 10
0.677121
 20
1.559180
 30
0.0
 10
0.669812
 20
1.537637
 30
0.0
 10
0.654400
 20
1.523611
 30
0.0
 10
0.637962
 20
1.501230
 30
0.0
 10
0.614449
 20
1.522457
 30
0.0
 10
0.613909
 20
1.553014
 30
0.0
 10
0.602535
 20
1.582939
 30
0.0
 10
0.590175
 20
1.606362
 30
0.0
 10
0.571152
 20
1.611409
 30
0.0
 10
0.553466
 20
1.614091
 30
0.0
 10
0.536757
 20
1.624413
 30
0.0
 10
0.513520
 20
1.642909
 30
0.0
 10
0.500213
 20
1.684621
 30
0.0
 10
0.506708
 20
1.738428
 30
0.0
 10
0.533068
 20
1.777505
 30
0.0
 10
0.558986
 20
1.813881
 30
0.0
 10
0.557355
 20
1.870711
 30
0.0
 10
0.552882
 20
1.943724
 30
0.0
 10
0.549417
 20
2.039204
 30
0.0
 10
0.550898
 20
2.139072
 30
0.0
 10
0.558455
 20
2.301612
 30
0.0
 10
0.589076
 20
2.528792
 30
0.0
 10
0.697228
 20
2.847668
 30
0.0
 10
0.874913
 20
3.222944
 30
0.0
 10
1.062964
 20
3.631073
 30
0.0
 10
1.186532
 20
4.028068
 30
0.0
 10
1.213840
 20
4.340943
 30
0.0
 10
1.207734
 20
4.469168
 30
0.0
 10
1.215530
 20
4.545785
 30
0.0
 10
1.239383
 20
4.431111
 30
0.0
 10
1.229859
 20
4.330067
 30
0.0
 10
1.226967
 20
4.107781
 30
0.0
 10
1.206186
 20
3.891691
 30
0.0
 10
1.147175
 20
3.665351
 30
0.0
 10
1.050342
 20
3.409378
 30
0.0
 10
0.907340
 20
3.103864
 30
0.0
 10
0.756472
 20
2.788766
 30
0.0
 10
0.650965
 20
2.470041
 30
0.0
 10
0.616023
 20
2.222115
 30
0.0
 10
0.610599
 20
2.022691
 30
0.0
 10
0.620614
 20
1.909710
 30
0.0
 10
0.630970
 20
1.818593
 30
0.0
 10
0.684074
 20
1.803924
 30
0.0
 10
0.710265
 20
1.760140
 30
0.0
 10
0.738175
 20
1.707950
 30
0.0
 10
0.750495
 20
1.644451
 30
0.0
 10
0.748861
 20
1.578572
 30
0.0
 10
0.732021
 20
1.525425
 30
0.0
 10
0.707556
 20
1.480470
 30
0.0
 10
0.727496
 20
1.421887
 30
0.0
 10
0.772849
 20
1.335381
 30
0.0
 10
0.849444
 20
1.197493
 30
0.0
 10
0.929132
 20
1.119009
 30
0.0
 10
0.997225
 20
0.974642
 30
0.0
 10
1.034740
 20
1.024524
 30
0.0
 10
1.018815
 20
1.069420
 30
0.0
 10
1.003342
 20
1.114955
 30
0.0
 10
0.985157
 20
1.159174
 30
0.0
 10
0.975563
 20
1.194090
 30
0.0
 10
0.973351
 20
1.217079
 30
0.0
 10
0.972376
 20
1.227211
 30
0.0
 11
0.585044
 21
0.708333
 31
0.0
 11
0.496530
 21
0.721122
 31
0.0
 11
0.429163
 21
0.761713
 31
0.0
 11
0.377399
 21
0.833445
 31
0.0
 11
0.356700
 21
0.881835
 31
0.0
 11
0.349299
 21
0.934524
 31
0.0
 11
0.351412
 21
1.018458
 31
0.0
 11
0.356399
 21
1.082019
 31
0.0
 11
0.363380
 21
1.130778
 31
0.0
 11
0.370845
 21
1.154178
 31
0.0
 11
0.377238
 21
1.147424
 31
0.0
 11
0.379873
 21
1.112581
 31
0.0
 11
0.378543
 21
1.052387
 31
0.0
 11
0.377239
 21
0.977247
 31
0.0
 11
0.383516
 21
0.928482
 31
0.0
 11
0.399451
 21
0.889962
 31
0.0
 11
0.509699
 21
0.803567
 31
0.0
 11
0.677497
 21
0.802671
 31
0.0
 11
0.872736
 21
0.887436
 31
0.0
 11
0.908856
 21
0.911906
 31
0.0
 11
0.934618
 21
0.931825
 31
0.0
 11
0.944444
 21
0.942880
 31
0.0
 11
0.932448
 21
0.963907
 31
0.0
 11
0.900998
 21
1.009969
 31
0.0
 11
0.856902
 21
1.071093
 31
0.0
 11
0.804895
 21
1.146133
 31
0.0
 11
0.752703
 21
1.228676
 31
0.0
 11
0.711625
 21
1.300852
 31
0.0
 11
0.673431
 21
1.377706
 31
0.0
 11
0.664240
 21
1.414667
 31
0.0
 11
0.677639
 21
1.437531
 31
0.0
 11
0.678244
 21
1.440596
 31
0.0
 11
0.656998
 21
1.423920
 31
0.0
 11
0.618502
 21
1.391114
 31
0.0
 11
0.475798
 21
1.291161
 31
0.0
 11
0.352436
 21
1.252634
 31
0.0
 11
0.258734
 21
1.278755
 31
0.0
 11
0.217545
 21
1.324827
 31
0.0
 11
0.190364
 21
1.383888
 31
0.0
 11
0.180556
 21
1.448626
 31
0.0
 11
0.188818
 21
1.532558
 31
0.0
 11
0.207096
 21
1.615351
 31
0.0
 11
0.225626
 21
1.652778
 31
0.0
 11
0.231114
 21
1.649447
 31
0.0
 11
0.232565
 21
1.640715
 31
0.0
 11
0.229666
 21
1.628472
 31
0.0
 11
0.216313
 21
1.569279
 31
0.0
 11
0.210079
 21
1.495555
 31
0.0
 11
0.213649
 21
1.439046
 31
0.0
 11
0.298719
 21
1.353868
 31
0.0
 11
0.455574
 21
1.375962
 31
0.0
 11
0.642670
 21
1.499477
 31
0.0
 11
0.690512
 21
1.546006
 31
0.0
 11
0.710087
 21
1.574172
 31
0.0
 11
0.706942
 21
1.591954
 31
0.0
 11
0.685599
 21
1.609626
 31
0.0
 11
0.673254
 21
1.604847
 31
0.0
 11
0.674133
 21
1.579253
 31
0.0
 11
0.675610
 21
1.558676
 31
0.0
 11
0.669101
 21
1.539852
 31
0.0
 11
0.654461
 21
1.522357
 31
0.0
 11
0.634607
 21
1.507334
 31
0.0
 11
0.623265
 21
1.515740
 31
0.0
 11
0.611472
 21
1.554214
 31
0.0
 11
0.600129
 21
1.586722
 31
0.0
 11
0.586978
 21
1.605238
 31
0.0
 11
0.571062
 21
1.611111
 31
0.0
 11
0.555048
 21
1.614842
 31
0.0
 11
0.537183
 21
1.624621
 31
0.0
 11
0.521336
 21
1.638333
 31
0.0
 11
0.504315
 21
1.681899
 31
0.0
 11
0.510666
 21
1.736393
 31
0.0
 11
0.538411
 21
1.784853
 31
0.0
 11
0.553322
 21
1.810070
 31
0.0
 11
0.557614
 21
1.855839
 31
0.0
 11
0.553269
 21
1.943305
 31
0.0
 11
0.550332
 21
2.033179
 31
0.0
 11
0.551507
 21
2.140868
 31
0.0
 11
0.556539
 21
2.243056
 31
0.0
 11
0.596271
 21
2.518259
 31
0.0
 11
0.688799
 21
2.807695
 31
0.0
 11
0.860682
 21
3.194444
 31
0.0
 11
1.068187
 21
3.672478
 31
0.0
 11
1.176149
 21
4.048532
 31
0.0
 11
1.209580
 21
4.409722
 31
0.0
 11
1.211600
 21
4.504961
 31
0.0
 11
1.215921
 21
4.530809
 31
0.0
 11
1.224675
 21
4.500000
 31
0.0
 11
1.232696
 21
4.339734
 31
0.0
 11
1.223453
 21
4.101831
 31
0.0
 11
1.201201
 21
3.895833
 31
0.0
 11
1.147894
 21
3.682091
 31
0.0
 11
1.055399
 21
3.431269
 31
0.0
 11
0.917663
 21
3.126953
 31
0.0
 11
0.750401
 21
2.753001
 31
0.0
 11
0.658356
 21
2.462696
 31
0.0
 11
0.617008
 21
2.178709
 31
0.0
 11
0.613573
 21
2.017914
 31
0.0
 11
0.624283
 21
1.878761
 31
0.0
 11
0.644659
 21
1.819444
 31
0.0
 11
0.675316
 21
1.802871
 31
0.0
 11
0.708735
 21
1.761918
 31
0.0
 11
0.734187
 21
1.709733
 31
0.0
 11
0.748161
 21
1.643258
 31
0.0
 11
0.745807
 21
1.578485
 31
0.0
 11
0.727248
 21
1.518751
 31
0.0
 11
0.713525
 21
1.480764
 31
0.0
 11
0.722555
 21
1.438552
 31
0.0
 11
0.761862
 21
1.356930
 31
0.0
 11
0.848515
 21
1.211407
 31
0.0
 11
0.951113
 21
1.066045
 31
0.0
 11
1.013785
 21
1.000000
 31
0.0
 11
1.026663
 21
1.017301
 31
0.0
 11
1.021550
 21
1.061945
 31
0.0
 11
0.999695
 21
1.123044
 31
0.0
 11
0.985878
 21
1.159519
 31
0.0
 11
0.976063
 21
1.196942
 31
0.0
 11
0.972376
 21
1.227211
 31
0.0
  0
LWPOLYLINE
  5
107
100
AcDbEntity
  8
0
 62
7
100
AcDbPolyline
 90
3
 70
1
 10
0.972376
 20
1.227211
 30
0.0
 10
0.972530
 20
1.270833
 30
0.0
 10
1.008105
 20
1.225694
 30
0.0
  0
SPLINE
  5
108
100
AcDbEntity
  8
0
 62
7
100
AcDbSpline
 70
0
 71
3
 72
37
 73
33
 74
31
 40
0.000000
 40
0.000000
 40
0.000000
 40
0.000000
 40
0.030390
 40
0.055115
 40
0.069624
 40
0.085344
 40
0.114942
 40
0.153031
 40
0.203440
 40
0.265361
 40
0.325669
 40
0.394814
 40
0.435978
 40
0.480335
 40
0.521633
 40
0.557647
 40
0.601499
 40
0.704956
 40
0.807938
 40
0.956336
 40
1.028753
 40
1.087212
 40
1.155608
 40
1.221120
 40
1.249354
 40
1.270469
 40
1.290340
 40
1.313509
 40
1.335185
 40
1.360879
 40
1.391425
 40
1.442349
 40
1.442349
 40
1.442349
 40
1.442349
 10
1.008105
 20
1.225694
 30
0.0
 10
1.014711
 20
1.217826
 30
0.0
 10
1.026692
 20
1.203556
 30
0.0
 10
1.043261
 20
1.189137
 30
0.0
 10
1.060716
 20
1.176769
 30
0.0
 10
1.077370
 20
1.193492
 30
0.0
 10
1.093192
 20
1.214233
 30
0.0
 10
1.112759
 20
1.249324
 30
0.0
 10
1.138876
 20
1.291798
 30
0.0
 10
1.173237
 20
1.338188
 30
0.0
 10
1.214751
 20
1.386646
 30
0.0
 10
1.252237
 20
1.429252
 30
0.0
 10
1.296870
 20
1.458579
 30
0.0
 10
1.340343
 20
1.458527
 30
0.0
 10
1.380971
 20
1.457457
 30
0.0
 10
1.419202
 20
1.441737
 30
0.0
 10
1.467119
 20
1.404624
 30
0.0
 10
1.520387
 20
1.325897
 30
0.0
 10
1.460975
 20
1.206309
 30
0.0
 10
1.367143
 20
1.150897
 30
0.0
 10
1.283015
 20
1.110508
 30
0.0
 10
1.218542
 20
1.093588
 30
0.0
 10
1.152785
 20
1.091746
 30
0.0
 10
1.103021
 20
1.091164
 30
0.0
 10
1.057691
 20
1.086184
 30
0.0
 10
1.055469
 20
1.059732
 30
0.0
 10
1.054205
 20
1.039199
 30
0.0
 10
1.049929
 20
1.017648
 30
0.0
 10
1.042409
 20
0.995670
 30
0.0
 10
1.035694
 20
0.969404
 30
0.0
 10
1.052296
 20
0.935687
 30
0.0
 10
1.068672
 20
0.914349
 30
0.0
 10
1.078908
 20
0.901011
 30
0.0
 11
1.008105
 21
1.225694
 31
0.0
 11
1.028269
 21
1.202958
 31
0.0
 11
1.046933
 21
1.186741
 31
0.0
 11
1.060058
 21
1.180556
 31
0.0
 11
1.073024
 21
1.189445
 31
0.0
 11
1.091270
 21
1.212748
 31
0.0
 11
1.110848
 21
1.245421
 31
0.0
 11
1.137452
 21
1.288238
 31
0.0
 11
1.174119
 21
1.338135
 31
0.0
 11
1.212912
 21
1.384310
 31
0.0
 11
1.261370
 21
1.433634
 31
0.0
 11
1.297023
 21
1.454209
 31
0.0
 11
1.341188
 21
1.458333
 31
0.0
 11
1.382329
 21
1.454743
 31
0.0
 11
1.415850
 21
1.441573
 31
0.0
 11
1.450906
 21
1.415228
 31
0.0
 11
1.500772
 21
1.324582
 31
0.0
 11
1.463417
 21
1.228614
 31
0.0
 11
1.343983
 21
1.140539
 31
0.0
 11
1.277917
 21
1.110882
 31
0.0
 11
1.221265
 21
1.096461
 31
0.0
 11
1.153019
 21
1.091928
 31
0.0
 11
1.087563
 21
1.089210
 31
0.0
 11
1.060737
 21
1.080403
 31
0.0
 11
1.055564
 21
1.059932
 31
0.0
 11
1.053844
 21
1.040136
 31
0.0
 11
1.049345
 21
1.017408
 31
0.0
 11
1.043040
 21
0.996668
 31
0.0
 11
1.038942
 21
0.971303
 31
0.0
 11
1.049667
 21
0.942702
 31
0.0
 11
1.078908
 21
0.901011
 31
0.0
  0
LWPOLYLINE
  5
109
100
AcDbEntity
  8
0
 62
7
100
AcDbPolyline
 90
3
 70
1
 10
1.078908
 20
0.901011
 30
0.0
 10
1.127291
 20
0.838271
 30
0.0
 10
1.190999
 20
0.870524
 30
0.0
  0
SPLINE
  5
10a
100
AcDbEntity
  8
0
 62
7
100
AcDbSpline
 70
0
 71
3
 72
19
 73
15
 74
13
 40
0.000000
 40
0.000000
 40
0.000000
 40
0.000000
 40
0.083212
 40
0.157702
 40
0.212150
 40
0.233083
 40
0.259974
 40
0.288194
 40
0.321058
 40
0.331029
 40
0.352863
 40
0.402542
 40
0.468772
 40
0.535448
 40
0.535448
 40
0.535448
 40
0.535448
 10
1.190999
 20
0.870524
 30
0.0
 10
1.217032
 20
0.880928
 30
0.0
 10
1.266369
 20
0.900645
 30
0.0
 10
1.336244
 20
0.905202
 30
0.0
 10
1.390380
 20
0.892270
 30
0.0
 10
1.407442
 20
0.861535
 30
0.0
 10
1.415041
 20
0.837133
 30
0.0
 10
1.415572
 20
0.807944
 30
0.0
 10
1.422121
 20
0.783662
 30
0.0
 10
1.405560
 20
0.763294
 30
0.0
 10
1.384470
 20
0.796228
 30
0.0
 10
1.340360
 20
0.802226
 30
0.0
 10
1.278461
 20
0.808531
 30
0.0
 10
1.235395
 20
0.796924
 30
0.0
 10
1.213789
 20
0.791101
 30
0.0
 11
1.190999
 21
0.870524
 31
0.0
 11
1.269823
 21
0.897189
 31
0.0
 11
1.344216
 21
0.900995
 31
0.0
 11
1.394841
 21
0.880952
 31
0.0
 11
1.405835
 21
0.863138
 31
0.0
 11
1.413676
 21
0.837416
 31
0.0
 11
1.416667
 21
0.809355
 31
0.0
 11
1.415450
 21
0.776513
 31
0.0
 11
1.408589
 21
0.769278
 31
0.0
 11
1.391268
 21
0.782570
 31
0.0
 11
1.345260
 21
0.801314
 31
0.0
 11
1.279106
 21
0.804493
 31
0.0
 11
1.213789
 21
0.791101
 31
0.0
  0
LWPOLYLINE
  5
10b
100
AcDbEntity
  8
0
 62
7
100
AcDbPolyline
 90
3
 70
1
 10
1.213789
 20
0.791101
 30
0.0
 10
1.175770
 20
0.776646
 30
0.0
 10
1.243613
 20
0.707767
 30
0.0
  0
SPLINE
  5
10c
100
AcDbEntity
  8
0
 62
7
100
AcDbSpline
 70
0
 71
3
 72
13
 73
9
 74
7
 40
0.000000
 40
0.000000
 40
0.000000
 40
0.000000
 40
0.049593
 40
0.086726
 40
0.103563
 40
0.136915
 40
0.217886
 40
0.329058
 40
0.329058
 40
0.329058
 40
0.329058
 10
1.243613
 20
0.707767
 30
0.0
 10
1.255437
 20
0.695836
 30
0.0
 10
1.276115
 20
0.674972
 30
0.0
 10
1.300675
 20
0.654068
 30
0.0
 10
1.325650
 20
0.630824
 30
0.0
 10
1.357415
 20
0.681096
 30
0.0
 10
1.409958
 20
0.720956
 30
0.0
 10
1.453863
 20
0.770418
 30
0.0
 10
1.479265
 20
0.799037
 30
0.0
 11
1.243613
 21
0.707767
 31
0.0
 11
1.279050
 21
0.673073
 31
0.0
 11
1.306736
 21
0.648328
 31
0.0
 11
1.320679
 21
0.638889
 31
0.0
 11
1.345793
 21
0.660835
 31
0.0
 11
1.402767
 21
0.718370
 31
0.0
 11
1.479265
 21
0.799037
 31
0.0
  0
LWPOLYLINE
  5
10d
100
AcDbEntity
  8
0
 62
7
100
AcDbPolyline
 90
3
 70
1
 10
1.479265
 20
0.799037
 30
0.0
 10
1.628628
 20
0.959184
 30
0.0
 10
1.611692
 20
1.274731
 30
0.0
  0
SPLINE
  5
10e
100
AcDbEntity
  8
0
 62
7
100
AcDbSpline
 70
0
 71
3
 72
28
 73
24
 74
22
 40
0.000000
 40
0.000000
 40
0.000000
 40
0.000000
 40
0.167418
 40
0.302596
 40
0.376354
 40
0.415791
 40
0.446217
 40
0.476225
 40
0.497027
 40
0.510403
 40
0.513908
 40
0.537445
 40
0.592641
 40
0.667557
 40
0.756331
 40
0.791481
 40
0.804489
 40
0.822916
 40
0.837258
 40
0.844566
 40
0.950854
 40
1.159542
 40
1.304292
 40
1.304292
 40
1.304292
 40
1.304292
 10
1.611692
 20
1.274731
 30
0.0
 10
1.608480
 20
1.330449
 30
0.0
 10
1.602674
 20
1.431154
 30
0.0
 10
1.592802
 20
1.556198
 30
0.0
 10
1.584919
 20
1.638668
 30
0.0
 10
1.574672
 20
1.685626
 30
0.0
 10
1.576778
 20
1.719401
 30
0.0
 10
1.587390
 20
1.744822
 30
0.0
 10
1.599234
 20
1.762514
 30
0.0
 10
1.604169
 20
1.774416
 30
0.0
 10
1.617140
 20
1.781762
 30
0.0
 10
1.616005
 20
1.734572
 30
0.0
 10
1.639549
 20
1.702862
 30
0.0
 10
1.664250
 20
1.622181
 30
0.0
 10
1.674382
 20
1.579142
 30
0.0
 10
1.707397
 20
1.508472
 30
0.0
 10
1.680495
 20
1.518189
 30
0.0
 10
1.671251
 20
1.529328
 30
0.0
 10
1.660561
 20
1.537383
 30
0.0
 10
1.620260
 20
1.557956
 30
0.0
 10
1.686368
 20
1.357019
 30
0.0
 10
1.664566
 20
1.257781
 30
0.0
 10
1.682487
 20
1.134262
 30
0.0
 10
1.689827
 20
1.083674
 30
0.0
 11
1.611692
 21
1.274731
 31
0.0
 11
1.601403
 21
1.441833
 31
0.0
 11
1.590709
 21
1.576587
 31
0.0
 11
1.581926
 21
1.649820
 31
0.0
 11
1.576087
 21
1.688822
 31
0.0
 11
1.578465
 21
1.719155
 31
0.0
 11
1.589548
 21
1.747042
 31
0.0
 11
1.599926
 21
1.765070
 31
0.0
 11
1.607474
 21
1.776112
 31
0.0
 11
1.610559
 21
1.777778
 31
0.0
 11
1.617617
 21
1.755324
 31
0.0
 11
1.635582
 21
1.703134
 31
0.0
 11
1.660564
 21
1.632506
 31
0.0
 11
1.689207
 21
1.548480
 31
0.0
 11
1.696184
 21
1.514029
 31
0.0
 11
1.683772
 21
1.517922
 31
0.0
 11
1.669755
 21
1.529883
 31
0.0
 11
1.658227
 21
1.538415
 31
0.0
 11
1.651684
 21
1.541671
 31
0.0
 11
1.656305
 21
1.435483
 31
0.0
 11
1.673625
 21
1.227515
 31
0.0
 11
1.689827
 21
1.083674
 31
0.0
  0
LWPOLYLINE
  5
10f
100
AcDbEntity
  8
0
 62
7
100
AcDbPolyline
 90
3
 70
1
 10
1.689827
 20
1.083674
 30
0.0
 10
1.696546
 20
1.049293
 30
0.0
 10
1.722591
 20
1.083674
 30
0.0
  0
SPLINE
  5
110
100
AcDbEntity
  8
0
 62
7
100
AcDbSpline
 70
0
 71
3
 72
25
 73
21
 74
19
 40
0.000000
 40
0.000000
 40
0.000000
 40
0.000000
 40
0.026960
 40
0.050179
 40
0.073678
 40
0.155929
 40
0.260972
 40
0.348043
 40
0.390484
 40
0.416185
 40
0.451587
 40
0.487477
 40
0.525088
 40
0.578912
 40
0.627888
 40
0.677575
 40
0.717727
 40
0.759087
 40
0.782824
 40
0.817551
 40
0.817551
 40
0.817551
 40
0.817551
 10
1.722591
 20
1.083674
 30
0.0
 10
1.727676
 20
1.091120
 30
0.0
 10
1.737143
 20
1.104978
 30
0.0
 10
1.743514
 20
1.129583
 30
0.0
 10
1.734691
 20
1.172169
 30
0.0
 10
1.727974
 20
1.242137
 30
0.0
 10
1.734392
 20
1.333563
 30
0.0
 10
1.745115
 20
1.411604
 30
0.0
 10
1.767462
 20
1.459273
 30
0.0
 10
1.763815
 20
1.495702
 30
0.0
 10
1.739639
 20
1.519024
 30
0.0
 10
1.718300
 20
1.548753
 30
0.0
 10
1.708654
 20
1.590972
 30
0.0
 10
1.707638
 20
1.637764
 30
0.0
 10
1.710485
 20
1.688596
 30
0.0
 10
1.717867
 20
1.734349
 30
0.0
 10
1.728393
 20
1.776856
 30
0.0
 10
1.746241
 20
1.808319
 30
0.0
 10
1.741931
 20
1.843671
 30
0.0
 10
1.726546
 20
1.856840
 30
0.0
 10
1.717408
 20
1.864663
 30
0.0
 11
1.722591
 21
1.083674
 31
0.0
 11
1.736368
 21
1.106848
 31
0.0
 11
1.741702
 21
1.129446
 31
0.0
 11
1.738901
 21
1.152778
 31
0.0
 11
1.730696
 21
1.234618
 31
0.0
 11
1.736095
 21
1.339523
 31
0.0
 11
1.752907
 21
1.424954
 31
0.0
 11
1.765136
 21
1.465596
 31
0.0
 11
1.761843
 21
1.491085
 31
0.0
 11
1.740697
 21
1.519479
 31
0.0
 11
1.720744
 21
1.549310
 31
0.0
 11
1.710943
 21
1.585622
 31
0.0
 11
1.708333
 21
1.639382
 31
0.0
 11
1.711311
 21
1.688268
 31
0.0
 11
1.719118
 21
1.737338
 31
0.0
 11
1.730063
 21
1.775969
 31
0.0
 11
1.743639
 21
1.815038
 31
0.0
 11
1.740286
 21
1.838536
 31
0.0
 11
1.717408
 21
1.864663
 31
0.0
  0
LWPOLYLINE
  5
111
100
AcDbEntity
  8
0
 62
7
100
AcDbPolyline
 90
3
 70
1
 10
1.717408
 20
1.864663
 30
0.0
 10
1.683022
 20
1.899048
 30
0.0
 10
1.652986
 20
1.858423
 30
0.0
  0
SPLINE
  5
112
100
AcDbEntity
  8
0
 62
7
100
AcDbSpline
 70
0
 71
3
 72
40
 73
36
 74
34
 40
0.000000
 40
0.000000
 40
0.000000
 40
0.000000
 40
0.053516
 40
0.097553
 40
0.145462
 40
0.170534
 40
0.178871
 40
0.201127
 40
0.223863
 40
0.253878
 40
0.285970
 40
0.324251
 40
0.350675
 40
0.380147
 40
0.405467
 40
0.432543
 40
0.456743
 40
0.496311
 40
0.527077
 40
0.547300
 40
0.591058
 40
0.650896
 40
0.697977
 40
0.741376
 40
0.775904
 40
0.838581
 40
0.882489
 40
0.918013
 40
0.942012
 40
0.981661
 40
1.033551
 40
1.097488
 40
1.156211
 40
1.207492
 40
1.286209
 40
1.286209
 40
1.286209
 40
1.286209
 10
1.652986
 20
1.858423
 30
0.0
 10
1.640290
 20
1.844859
 30
0.0
 10
1.617147
 20
1.820135
 30
0.0
 10
1.563329
 20
1.820461
 30
0.0
 10
1.532260
 20
1.849037
 30
0.0
 10
1.528110
 20
1.880975
 30
0.0
 10
1.506478
 20
1.884292
 30
0.0
 10
1.503223
 20
1.860411
 30
0.0
 10
1.484278
 20
1.844686
 30
0.0
 10
1.460518
 20
1.828759
 30
0.0
 10
1.429175
 20
1.816803
 30
0.0
 10
1.397970
 20
1.807816
 30
0.0
 10
1.365737
 20
1.809185
 30
0.0
 10
1.341614
 20
1.823053
 30
0.0
 10
1.321155
 20
1.841127
 30
0.0
 10
1.305732
 20
1.861920
 30
0.0
 10
1.294758
 20
1.890308
 30
0.0
 10
1.286445
 20
1.920740
 30
0.0
 10
1.271710
 20
1.947538
 30
0.0
 10
1.241887
 20
1.965820
 30
0.0
 10
1.204272
 20
1.932645
 30
0.0
 10
1.171613
 20
1.898537
 30
0.0
 10
1.149158
 20
1.852243
 30
0.0
 10
1.152845
 20
1.805324
 30
0.0
 10
1.197402
 20
1.779568
 30
0.0
 10
1.245135
 20
1.784827
 30
0.0
 10
1.292518
 20
1.782808
 30
0.0
 10
1.326421
 20
1.777643
 30
0.0
 10
1.358690
 20
1.765736
 30
0.0
 10
1.375887
 20
1.726905
 30
0.0
 10
1.373764
 20
1.674578
 30
0.0
 10
1.359016
 20
1.619573
 30
0.0
 10
1.325006
 20
1.563083
 30
0.0
 10
1.252900
 20
1.570921
 30
0.0
 10
1.222974
 20
1.603355
 30
0.0
 10
1.204853
 20
1.622994
 30
0.0
 11
1.652986
 21
1.858423
 31
0.0
 11
1.611001
 21
1.825239
 31
0.0
 11
1.566965
 21
1.825556
 31
0.0
 11
1.532942
 21
1.859286
 31
0.0
 11
1.520905
 21
1.881279
 31
0.0
 11
1.512632
 21
1.882310
 31
0.0
 11
1.501144
 21
1.863248
 31
0.0
 11
1.485847
 21
1.846427
 31
0.0
 11
1.460633
 21
1.830144
 31
0.0
 11
1.430958
 21
1.817924
 31
0.0
 11
1.393697
 21
1.809147
 31
0.0
 11
1.367345
 21
1.811092
 31
0.0
 11
1.341128
 21
1.824555
 31
0.0
 11
1.322188
 21
1.841359
 31
0.0
 11
1.306304
 21
1.863288
 31
0.0
 11
1.296917
 21
1.885592
 31
0.0
 11
1.284006
 21
1.922995
 31
0.0
 11
1.267172
 21
1.948746
 31
0.0
 11
1.249365
 21
1.958333
 31
0.0
 11
1.210765
 21
1.937722
 31
0.0
 11
1.171104
 21
1.892916
 31
0.0
 11
1.152990
 21
1.849459
 31
0.0
 11
1.160053
 21
1.806639
 31
0.0
 11
1.188744
 21
1.787428
 31
0.0
 11
1.251306
 21
1.783630
 31
0.0
 11
1.295176
 21
1.781822
 31
0.0
 11
1.330148
 21
1.775581
 31
0.0
 11
1.352001
 21
1.765660
 31
0.0
 11
1.371274
 21
1.731011
 31
0.0
 11
1.372282
 21
1.679131
 31
0.0
 11
1.354875
 21
1.617609
 31
0.0
 11
1.317703
 21
1.572149
 31
0.0
 11
1.266455
 21
1.573988
 31
0.0
 11
1.204853
 21
1.622994
 31
0.0
  0
LWPOLYLINE
  5
113
100
AcDbEntity
  8
0
 62
7
100
AcDbPolyline
 90
3
 70
1
 10
1.204853
 20
1.622994
 30
0.0
 10
1.156473
 20
1.676545
 30
0.0
 10
1.102900
 20
1.644212
 30
0.0
  0
SPLINE
  5
114
100
AcDbEntity
  8
0
 62
7
100
AcDbSpline
 70
0
 71
3
 72
61
 73
57
 74
55
 40
0.000000
 40
0.000000
 40
0.000000
 40
0.000000
 40
0.074356
 40
0.150311
 40
0.214355
 40
0.280793
 40
0.361823
 40
0.445694
 40
0.729491
 40
1.087188
 40
1.468237
 40
1.571138
 40
1.735420
 40
1.925555
 40
2.283047
 40
2.540171
 40
2.755432
 40
2.773171
 40
2.808788
 40
2.906272
 40
3.094953
 40
3.318845
 40
3.660461
 40
4.093401
 40
4.404554
 40
4.714989
 40
4.892915
 40
4.977273
 40
5.056203
 40
5.094146
 40
5.126377
 40
5.175754
 40
5.262455
 40
5.326057
 40
5.376596
 40
5.418521
 40
5.466271
 40
5.537640
 40
5.615583
 40
5.694636
 40
5.812667
 40
6.221624
 40
6.635425
 40
7.167029
 40
7.637707
 40
7.990708
 40
8.365935
 40
8.514861
 40
8.547018
 40
8.779134
 40
9.048918
 40
9.361314
 40
9.762776
 40
10.301235
 40
10.675842
 40
11.044512
 40
11.044512
 40
11.044512
 40
11.044512
 10
1.102900
 20
1.644212
 30
0.0
 10
1.080513
 20
1.633278
 30
0.0
 10
1.035257
 20
1.611177
 30
0.0
 10
0.964711
 20
1.598062
 30
0.0
 10
0.893971
 20
1.597039
 30
0.0
 10
0.831414
 20
1.634786
 30
0.0
 10
0.777607
 20
1.690407
 30
0.0
 10
0.700653
 20
1.820642
 30
0.0
 10
0.675083
 20
2.069570
 30
0.0
 10
0.704790
 20
2.407845
 30
0.0
 10
0.778405
 20
2.681905
 30
0.0
 10
0.867167
 20
2.878964
 30
0.0
 10
0.931431
 20
3.017046
 30
0.0
 10
1.035525
 20
3.231259
 30
0.0
 10
1.146983
 20
3.469184
 30
0.0
 10
1.266142
 20
3.736679
 30
0.0
 10
1.279193
 20
3.872319
 30
0.0
 10
1.324525
 20
3.979623
 30
0.0
 10
1.344199
 20
3.897740
 30
0.0
 10
1.366857
 20
3.823281
 30
0.0
 10
1.416517
 20
3.642186
 30
0.0
 10
1.513935
 20
3.417696
 30
0.0
 10
1.658034
 20
3.114437
 30
0.0
 10
1.813034
 20
2.788248
 30
0.0
 10
1.916349
 20
2.449681
 30
0.0
 10
1.922151
 20
2.178499
 30
0.0
 10
1.927542
 20
1.994012
 30
0.0
 10
1.902277
 20
1.870525
 30
0.0
 10
1.831675
 20
1.849067
 30
0.0
 10
1.783384
 20
1.835044
 30
0.0
 10
1.757123
 20
1.802558
 30
0.0
 10
1.740928
 20
1.748582
 30
0.0
 10
1.722673
 20
1.684624
 30
0.0
 10
1.721278
 20
1.615991
 30
0.0
 10
1.745644
 20
1.567336
 30
0.0
 10
1.788925
 20
1.541845
 30
0.0
 10
1.844530
 20
1.553335
 30
0.0
 10
1.901265
 20
1.585097
 30
0.0
 10
1.964901
 20
1.630990
 30
0.0
 10
2.001103
 20
1.718695
 30
0.0
 10
2.024804
 20
1.918992
 30
0.0
 10
2.039616
 20
2.235456
 30
0.0
 10
1.932731
 20
2.678102
 30
0.0
 10
1.733974
 20
3.112098
 30
0.0
 10
1.539503
 20
3.503714
 30
0.0
 10
1.421266
 20
3.933956
 30
0.0
 10
1.425524
 20
4.099701
 30
0.0
 10
1.393691
 20
4.470681
 30
0.0
 10
1.439556
 20
4.311677
 30
0.0
 10
1.435242
 20
4.151129
 30
0.0
 10
1.491585
 20
3.875643
 30
0.0
 10
1.597414
 20
3.567739
 30
0.0
 10
1.771854
 20
3.186883
 30
0.0
 10
1.959641
 20
2.791857
 30
0.0
 10
2.082759
 20
2.377584
 30
0.0
 10
2.080679
 20
2.128580
 30
0.0
 10
2.079647
 20
2.005073
 30
0.0
 11
1.102900
 21
1.644212
 31
0.0
 11
1.034708
 21
1.614570
 31
0.0
 11
0.960232
 21
1.599650
 31
0.0
 11
0.896266
 21
1.602817
 31
0.0
 11
0.837621
 21
1.634037
 31
0.0
 11
0.780700
 21
1.691707
 31
0.0
 11
0.737548
 21
1.763626
 31
0.0
 11
0.685761
 21
2.042658
 31
0.0
 11
0.714228
 21
2.399221
 31
0.0
 11
0.817574
 21
2.765987
 31
0.0
 11
0.858905
 21
2.860223
 31
0.0
 11
0.928231
 21
3.009161
 31
0.0
 11
1.010545
 21
3.180555
 31
0.0
 11
1.161942
 21
3.504406
 31
0.0
 11
1.255784
 21
3.743793
 31
0.0
 11
1.312719
 21
3.951388
 31
0.0
 11
1.321282
 21
3.966923
 31
0.0
 11
1.335558
 21
3.934292
 31
0.0
 11
1.361330
 21
3.840277
 31
0.0
 11
1.415833
 21
3.659640
 31
0.0
 11
1.500072
 21
3.452199
 31
0.0
 11
1.644619
 21
3.142671
 31
0.0
 11
1.819138
 21
2.746464
 31
0.0
 11
1.902290
 21
2.446628
 31
0.0
 11
1.923538
 21
2.136921
 31
0.0
 11
1.918349
 21
1.959070
 31
0.0
 11
1.889812
 21
1.879686
 31
0.0
 11
1.818733
 21
1.845368
 31
0.0
 11
1.783672
 21
1.830862
 31
0.0
 11
1.762460
 21
1.806594
 31
0.0
 11
1.744605
 21
1.760559
 31
0.0
 11
1.724786
 21
1.676154
 31
0.0
 11
1.726967
 21
1.612589
 31
0.0
 11
1.751204
 21
1.568240
 31
0.0
 11
1.787844
 21
1.547866
 31
0.0
 11
1.835276
 21
1.553369
 31
0.0
 11
1.899057
 21
1.585395
 31
0.0
 11
1.958903
 21
1.635330
 31
0.0
 11
1.993039
 21
1.706633
 31
0.0
 11
2.012809
 21
1.822996
 31
0.0
 11
2.020297
 21
2.231885
 31
0.0
 11
1.930900
 21
2.635914
 31
0.0
 11
1.724539
 21
3.125830
 31
0.0
 11
1.534686
 21
3.556520
 31
0.0
 11
1.441164
 21
3.896907
 31
0.0
 11
1.409948
 21
4.270833
 31
0.0
 11
1.407613
 21
4.419741
 31
0.0
 11
1.416895
 21
4.388953
 31
0.0
 11
1.443841
 21
4.158406
 31
0.0
 11
1.493437
 21
3.893220
 31
0.0
 11
1.592166
 21
3.596836
 31
0.0
 11
1.753382
 21
3.229166
 31
0.0
 11
1.968187
 21
2.735409
 31
0.0
 11
2.064665
 21
2.373438
 31
0.0
 11
2.079647
 21
2.005073
 31
0.0
  0
LWPOLYLINE
  5
115
100
AcDbEntity
  8
0
 62
7
100
AcDbPolyline
 90
3
 70
1
 10
2.079647
 20
2.005073
 30
0.0
 10
2.072409
 20
1.780979
 30
0.0
 10
2.122353
 20
1.836260
 30
0.0
  0
SPLINE
  5
116
100
AcDbEntity
  8
0
 62
7
100
AcDbSpline
 70
0
 71
3
 72
58
 73
54
 74
52
 40
0.000000
 40
0.000000
 40
0.000000
 40
0.000000
 40
0.160258
 40
0.294860
 40
0.387546
 40
0.433564
 40
0.478409
 40
0.502154
 40
0.511129
 40
0.524097
 40
0.538857
 40
0.589413
 40
0.662193
 40
0.743084
 40
0.863040
 40
1.003128
 40
1.116018
 40
1.222881
 40
1.359679
 40
1.487189
 40
1.526753
 40
1.555950
 40
1.569277
 40
1.648085
 40
1.787268
 40
1.945086
 40
2.042833
 40
2.076448
 40
2.136287
 40
2.211008
 40
2.258398
 40
2.313067
 40
2.382589
 40
2.448410
 40
2.506104
 40
2.546714
 40
2.595193
 40
2.645961
 40
2.659344
 40
2.690461
 40
2.743664
 40
2.802288
 40
2.833429
 40
2.851037
 40
2.888848
 40
2.949085
 40
3.024326
 40
3.123465
 40
3.234035
 40
3.306298
 40
3.327514
 40
3.339021
 40
3.365184
 40
3.365184
 40
3.365184
 40
3.365184
 10
2.122353
 20
1.836260
 30
0.0
 10
2.162808
 20
1.871768
 30
0.0
 10
2.237242
 20
1.937100
 30
0.0
 10
2.358778
 20
1.985660
 30
0.0
 10
2.464347
 20
1.961654
 30
0.0
 10
2.482249
 20
1.897518
 30
0.0
 10
2.490206
 20
1.865192
 30
0.0
 10
2.479557
 20
1.829458
 30
0.0
 10
2.463723
 20
1.836725
 30
0.0
 10
2.454074
 20
1.843541
 30
0.0
 10
2.437094
 20
1.864064
 30
0.0
 10
2.390020
 20
1.878996
 30
0.0
 10
2.322056
 20
1.871349
 30
0.0
 10
2.233787
 20
1.842712
 30
0.0
 10
2.148116
 20
1.764567
 30
0.0
 10
2.066379
 20
1.670587
 30
0.0
 10
2.012123
 20
1.562239
 30
0.0
 10
1.978773
 20
1.448015
 30
0.0
 10
1.925434
 20
1.335778
 30
0.0
 10
1.876753
 20
1.247317
 30
0.0
 10
1.844191
 20
1.190148
 30
0.0
 10
1.831485
 20
1.166529
 30
0.0
 10
1.825050
 20
1.122401
 30
0.0
 10
1.949823
 20
1.154757
 30
0.0
 10
2.036459
 20
1.198212
 30
0.0
 10
2.144467
 20
1.289714
 30
0.0
 10
2.223059
 20
1.342960
 30
0.0
 10
2.237341
 20
1.422439
 30
0.0
 10
2.156622
 20
1.403224
 30
0.0
 10
2.104261
 20
1.399328
 30
0.0
 10
2.044737
 20
1.429088
 30
0.0
 10
2.038346
 20
1.491967
 30
0.0
 10
2.053118
 20
1.553781
 30
0.0
 10
2.092906
 20
1.606456
 30
0.0
 10
2.147670
 20
1.631956
 30
0.0
 10
2.195061
 20
1.613099
 30
0.0
 10
2.234251
 20
1.585054
 30
0.0
 10
2.241209
 20
1.541516
 30
0.0
 10
2.272959
 20
1.529427
 30
0.0
 10
2.304016
 20
1.546176
 30
0.0
 10
2.346337
 20
1.565491
 30
0.0
 10
2.388312
 20
1.586614
 30
0.0
 10
2.422637
 20
1.602655
 30
0.0
 10
2.452506
 20
1.589863
 30
0.0
 10
2.449933
 20
1.543642
 30
0.0
 10
2.431338
 20
1.491722
 30
0.0
 10
2.385692
 20
1.426204
 30
0.0
 10
2.343625
 20
1.341254
 30
0.0
 10
2.319972
 20
1.248462
 30
0.0
 10
2.312724
 20
1.182747
 30
0.0
 10
2.327646
 20
1.144727
 30
0.0
 10
2.349770
 20
1.144663
 30
0.0
 10
2.358237
 20
1.154919
 30
0.0
 10
2.364117
 20
1.162042
 30
0.0
 11
2.122353
 21
1.836260
 31
0.0
 11
2.249046
 21
1.934400
 31
0.0
 11
2.377715
 21
1.973923
 31
0.0
 11
2.464490
 21
1.941353
 31
0.0
 11
2.481708
 21
1.898678
 31
0.0
 11
2.485610
 21
1.854003
 31
0.0
 11
2.473923
 21
1.833333
 31
0.0
 11
2.465414
 21
1.836188
 31
0.0
 11
2.454824
 21
1.843672
 31
0.0
 11
2.444444
 21
1.854166
 31
0.0
 11
2.397763
 21
1.873576
 31
0.0
 11
2.325107
 21
1.869336
 31
0.0
 11
2.248712
 21
1.842742
 31
0.0
 11
2.154952
 21
1.767920
 31
0.0
 11
2.065724
 21
1.659925
 31
0.0
 11
2.014534
 21
1.559307
 31
0.0
 11
1.979222
 21
1.458447
 31
0.0
 11
1.922931
 21
1.333767
 31
0.0
 11
1.862109
 21
1.221699
 31
0.0
 11
1.842724
 21
1.187209
 31
0.0
 11
1.831068
 21
1.160440
 31
0.0
 11
1.829665
 21
1.147186
 31
0.0
 11
1.908457
 21
1.145621
 31
0.0
 11
2.034973
 21
1.203634
 31
0.0
 11
2.160724
 21
1.298992
 31
0.0
 11
2.226154
 21
1.371610
 31
0.0
 11
2.228676
 21
1.405130
 31
0.0
 11
2.168879
 21
1.407395
 31
0.0
 11
2.094159
 21
1.407419
 31
0.0
 11
2.053778
 21
1.432222
 31
0.0
 11
2.041667
 21
1.485534
 31
0.0
 11
2.057990
 21
1.553112
 31
0.0
 11
2.099056
 21
1.604552
 31
0.0
 11
2.153004
 21
1.624999
 31
0.0
 11
2.191731
 21
1.612776
 31
0.0
 11
2.228437
 21
1.581108
 31
0.0
 11
2.254426
 21
1.537497
 31
0.0
 11
2.266987
 21
1.532878
 31
0.0
 11
2.296746
 21
1.541973
 31
0.0
 11
2.344670
 21
1.565078
 31
0.0
 11
2.397380
 21
1.590738
 31
0.0
 11
2.427468
 21
1.598765
 31
0.0
 11
2.443479
 21
1.591440
 31
0.0
 11
2.449192
 21
1.554062
 31
0.0
 11
2.430611
 21
1.496763
 31
0.0
 11
2.391865
 21
1.432266
 31
0.0
 11
2.348300
 21
1.343211
 31
0.0
 11
2.319993
 21
1.236326
 31
0.0
 11
2.320835
 21
1.164068
 31
0.0
 11
2.332239
 21
1.146178
 31
0.0
 11
2.343733
 21
1.145640
 31
0.0
 11
2.364117
 21
1.162042
 31
0.0
  0
LWPOLYLINE
  5
117
100
AcDbEntity
  8
0
 62
7
100
AcDbPolyline
 90
3
 70
1
 10
2.364117
 20
1.162042
 30
0.0
 10
2.392689
 20
1.187499
 30
0.0
 10
2.369599
 20
1.142361
 30
0.0
  0
SPLINE
  5
118
100
AcDbEntity
  8
0
 62
7
100
AcDbSpline
 70
0
 71
3
 72
40
 73
36
 74
34
 40
0.000000
 40
0.000000
 40
0.000000
 40
0.000000
 40
0.057557
 40
0.090829
 40
0.163345
 40
0.248894
 40
0.360085
 40
0.448778
 40
0.495218
 40
0.517455
 40
0.576246
 40
0.620804
 40
0.655051
 40
0.693149
 40
0.861750
 40
1.072083
 40
1.236712
 40
1.256671
 40
1.281739
 40
1.306893
 40
1.336802
 40
1.357726
 40
1.399629
 40
1.448512
 40
1.512743
 40
1.637653
 40
1.789689
 40
1.888922
 40
1.927544
 40
1.947742
 40
1.999121
 40
2.070893
 40
2.149469
 40
2.218644
 40
2.263513
 40
2.263513
 40
2.263513
 40
2.263513
 10
2.369599
 20
1.142361
 30
0.0
 10
2.359203
 20
1.120433
 30
0.0
 10
2.342797
 20
1.085830
 30
0.0
 10
2.285568
 20
1.122194
 30
0.0
 10
2.291063
 20
1.193315
 30
0.0
 10
2.306709
 20
1.278236
 30
0.0
 10
2.344815
 20
1.371473
 30
0.0
 10
2.369486
 20
1.437355
 30
0.0
 10
2.423461
 20
1.491801
 30
0.0
 10
2.374057
 20
1.513533
 30
0.0
 10
2.339990
 20
1.479694
 30
0.0
 10
2.301763
 20
1.456459
 30
0.0
 10
2.277551
 20
1.423838
 30
0.0
 10
2.264566
 20
1.343522
 30
0.0
 10
2.181088
 20
1.223441
 30
0.0
 10
2.046436
 20
1.111140
 30
0.0
 10
1.922958
 20
1.034592
 30
0.0
 10
1.853168
 20
1.044096
 30
0.0
 10
1.830694
 20
1.051221
 30
0.0
 10
1.806361
 20
1.060733
 30
0.0
 10
1.783308
 20
1.077464
 30
0.0
 10
1.752683
 20
1.061920
 30
0.0
 10
1.735019
 20
1.028711
 30
0.0
 10
1.706168
 20
0.984952
 30
0.0
 10
1.700987
 20
0.903151
 30
0.0
 10
1.701784
 20
0.793464
 30
0.0
 10
1.693556
 20
0.655277
 30
0.0
 10
1.697876
 20
0.585827
 30
0.0
 10
1.669338
 20
0.498626
 30
0.0
 10
1.660660
 20
0.548633
 30
0.0
 10
1.658224
 20
0.588893
 30
0.0
 10
1.654657
 20
0.659439
 30
0.0
 10
1.651706
 20
0.731479
 30
0.0
 10
1.647643
 20
0.795833
 30
0.0
 10
1.642900
 20
0.833536
 30
0.0
 10
1.641034
 20
0.848369
 30
0.0
 11
2.369599
 21
1.142361
 31
0.0
 11
2.332220
 21
1.098593
 31
0.0
 11
2.303284
 21
1.115018
 31
0.0
 11
2.291667
 21
1.186597
 31
0.0
 11
2.308024
 21
1.270567
 31
0.0
 11
2.345756
 21
1.375161
 31
0.0
 11
2.387853
 21
1.453226
 31
0.0
 11
2.408820
 21
1.494663
 31
0.0
 11
2.388934
 21
1.504616
 31
0.0
 11
2.335910
 21
1.479223
 31
0.0
 11
2.300680
 21
1.451942
 31
0.0
 11
2.280833
 21
1.424032
 31
0.0
 11
2.270572
 21
1.387342
 31
0.0
 11
2.185875
 21
1.241559
 31
0.0
 11
2.027452
 21
1.103204
 31
0.0
 11
1.874756
 21
1.041666
 31
0.0
 11
1.854980
 21
1.044361
 31
0.0
 11
1.830929
 21
1.051427
 31
0.0
 11
1.807808
 21
1.061334
 31
0.0
 11
1.780109
 21
1.072618
 31
0.0
 11
1.760811
 21
1.064533
 31
0.0
 11
1.735581
 21
1.031076
 31
0.0
 11
1.712497
 21
0.987988
 31
0.0
 11
1.702833
 21
0.924488
 31
0.0
 11
1.700357
 21
0.799602
 31
0.0
 11
1.695784
 21
0.647634
 31
0.0
 11
1.684817
 21
0.549009
 31
0.0
 11
1.668593
 21
0.513961
 31
0.0
 11
1.663467
 21
0.533498
 31
0.0
 11
1.658556
 21
0.584641
 31
0.0
 11
1.654923
 21
0.656322
 31
0.0
 11
1.651260
 21
0.734812
 31
0.0
 11
1.646270
 21
0.803807
 31
0.0
 11
1.641034
 21
0.848369
 31
0.0
  0
LWPOLYLINE
  5
119
100
AcDbEntity
  8
0
 62
7
100
AcDbPolyline
 90
5
 70
1
 10
1.641034
 20
0.848369
 30
0.0
 10
1.631944
 20
0.898128
 30
0.0
 10
1.488835
 20
0.748432
 30
0.0
 10
1.345726
 20
0.598736
 30
0.0
 10
1.367307
 20
0.557002
 30
0.0
  0
SPLINE
  5
11a
100
AcDbEntity
  8
0
 62
7
100
AcDbSpline
 70
0
 71
3
 72
13
 73
9
 74
7
 40
0.000000
 40
0.000000
 40
0.000000
 40
0.000000
 40
0.075419
 40
0.160727
 40
0.227428
 40
0.303714
 40
0.379152
 40
0.434896
 40
0.434896
 40
0.434896
 40
0.434896
 10
1.367307
 20
0.557002
 30
0.0
 10
1.374929
 20
0.532832
 30
0.0
 10
1.391173
 20
0.481322
 30
0.0
 10
1.389158
 20
0.405339
 30
0.0
 10
1.372259
 20
0.327063
 30
0.0
 10
1.308861
 20
0.284511
 30
0.0
 10
1.240148
 20
0.257575
 30
0.0
 10
1.198832
 20
0.276017
 30
0.0
 10
1.181275
 20
0.283855
 30
0.0
 11
1.367307
 21
0.557002
 31
0.0
 11
1.386283
 21
0.484009
 31
0.0
 11
1.385873
 21
0.398702
 31
0.0
 11
1.366241
 21
0.334956
 31
0.0
 11
1.307044
 21
0.286838
 31
0.0
 11
1.234330
 21
0.266749
 31
0.0
 11
1.181275
 21
0.283855
 31
0.0
  0
LWPOLYLINE
  5
11b
100
AcDbEntity
  8
0
 62
7
100
AcDbPolyline
 90
2
 70
1
 10
1.181275
 20
0.283855
 30
0.0
 10
1.181275
 20
0.283855
 30
0.0
  0
SPLINE
  5
11c
100
AcDbEntity
  8
0
 62
7
100
AcDbSpline
 70
0
 71
3
 72
16
 73
12
 74
10
 40
0.000000
 40
0.000000
 40
0.000000
 40
0.000000
 40
0.047926
 40
0.083317
 40
0.140250
 40
0.184031
 40
0.215135
 40
0.278027
 40
0.349078
 40
0.384708
 40
0.463013
 40
0.463013
 40
0.463013
 40
0.463013
 10
1.312946
 20
0.381236
 30
0.0
 10
1.328994
 20
0.387927
 30
0.0
 10
1.356892
 20
0.399560
 30
0.0
 10
1.360857
 20
0.453665
 30
0.0
 10
1.328690
 20
0.485136
 30
0.0
 10
1.297140
 20
0.526761
 30
0.0
 10
1.248280
 20
0.501933
 30
0.0
 10
1.234691
 20
0.450668
 30
0.0
 10
1.192495
 20
0.391802
 30
0.0
 10
1.250688
 20
0.345061
 30
0.0
 10
1.287587
 20
0.366501
 30
0.0
 10
1.312946
 20
0.381236
 30
0.0
 11
1.312946
 21
0.381236
 31
0.0
 11
1.352638
 21
0.408097
 31
0.0
 11
1.356658
 21
0.443258
 31
0.0
 11
1.325485
 21
0.490898
 31
0.0
 11
1.291155
 21
0.518069
 31
0.0
 11
1.262356
 21
0.506320
 31
0.0
 11
1.230446
 21
0.452123
 31
0.0
 11
1.210343
 21
0.383976
 31
0.0
 11
1.237367
 21
0.360756
 31
0.0
 11
1.312946
 21
0.381236
 31
0.0
  0
LWPOLYLINE
  5
11d
100
AcDbEntity
  8
0
 62
7
100
AcDbPolyline
 90
2
 70
1
 10
1.312946
 20
0.381236
 30
0.0
 10
1.312946
 20
0.381236
 30
0.0
  0
SPLINE
  5
11e
100
AcDbEntity
  8
0
 62
7
100
AcDbSpline
 70
0
 71
3
 72
10
 73
6
 74
4
 40
0.000000
 40
0.000000
 40
0.000000
 40
0.000000
 40
0.059070
 40
0.160465
 40
0.304722
 40
0.304722
 40
0.304722
 40
0.304722
 10
0.821539
 20
0.508348
 30
0.0
 10
0.837296
 20
0.520231
 30
0.0
 10
0.880101
 20
0.552511
 30
0.0
 10
0.945589
 20
0.631029
 30
0.0
 10
0.996443
 20
0.695046
 30
0.0
 10
1.026306
 20
0.732639
 30
0.0
 11
0.821539
 21
0.508348
 31
0.0
 11
0.867683
 21
0.545226
 31
0.0
 11
0.936047
 21
0.620108
 31
0.0
 11
1.026306
 21
0.732639
 31
0.0
  0
LWPOLYLINE
  5
11f
100
AcDbEntity
  8
0
 62
7
100
AcDbPolyline
 90
5
 70
1
 10
1.026306
 20
0.732639
 30
0.0
 10
1.071779
 20
0.791667
 30
0.0
 10
1.027880
 20
0.847093
 30
0.0
 10
0.983982
 20
0.902519
 30
0.0
 10
0.932963
 20
0.854294
 30
0.0
  0
SPLINE
  5
120
100
AcDbEntity
  8
0
 62
7
100
AcDbSpline
 70
0
 71
3
 72
19
 73
15
 74
13
 40
0.000000
 40
0.000000
 40
0.000000
 40
0.000000
 40
0.092524
 40
0.202136
 40
0.271528
 40
0.307149
 40
0.376476
 40
0.440253
 40
0.456245
 40
0.479880
 40
0.506867
 40
0.548544
 40
0.587703
 40
0.653929
 40
0.653929
 40
0.653929
 40
0.653929
 10
0.932963
 20
0.854294
 30
0.0
 10
0.907941
 20
0.836260
 30
0.0
 10
0.853275
 20
0.796863
 30
0.0
 10
0.780466
 20
0.743150
 30
0.0
 10
0.699569
 20
0.736755
 30
0.0
 10
0.673866
 20
0.680132
 30
0.0
 10
0.663378
 20
0.626947
 30
0.0
 10
0.647236
 20
0.576578
 30
0.0
 10
0.657771
 20
0.543167
 30
0.0
 10
0.670502
 20
0.524647
 30
0.0
 10
0.690351
 20
0.501709
 30
0.0
 10
0.719021
 20
0.475839
 30
0.0
 10
0.771301
 20
0.481276
 30
0.0
 10
0.802151
 20
0.497901
 30
0.0
 10
0.821539
 20
0.508348
 30
0.0
 11
0.932963
 21
0.854294
 31
0.0
 11
0.857994
 21
0.800070
 31
0.0
 11
0.762381
 21
0.746471
 31
0.0
 11
0.697363
 21
0.722222
 31
0.0
 11
0.679866
 21
0.691195
 31
0.0
 11
0.661368
 21
0.624381
 31
0.0
 11
0.652778
 21
0.561185
 31
0.0
 11
0.657568
 21
0.545928
 31
0.0
 11
0.670125
 21
0.525905
 31
0.0
 11
0.687731
 21
0.505451
 31
0.0
 11
0.721615
 21
0.481185
 31
0.0
 11
0.760765
 21
0.482033
 31
0.0
 11
0.821539
 21
0.508348
 31
0.0
  0
LWPOLYLINE
  5
121
100
AcDbEntity
  8
0
 62
7
100
AcDbPolyline
 90
2
 70
1
 10
0.821539
 20
0.508348
 30
0.0
 10
0.821539
 20
0.508348
 30
0.0
  0
SPLINE
  5
122
100
AcDbEntity
  8
0
 62
7
100
AcDbSpline
 70
0
 71
3
 72
25
 73
21
 74
19
 40
0.000000
 40
0.000000
 40
0.000000
 40
0.000000
 40
0.052051
 40
0.114535
 40
0.160500
 40
0.170293
 40
0.177687
 40
0.200561
 40
0.227125
 40
0.256875
 40
0.283657
 40
0.309936
 40
0.323150
 40
0.340576
 40
0.357357
 40
0.364208
 40
0.382003
 40
0.413844
 40
0.436244
 40
0.466630
 40
0.466630
 40
0.466630
 40
0.466630
 10
0.731316
 20
0.559028
 30
0.0
 10
0.730129
 20
0.576275
 30
0.0
 10
0.727518
 20
0.614228
 30
0.0
 10
0.743411
 20
0.669470
 30
0.0
 10
0.749880
 20
0.700560
 30
0.0
 10
0.773041
 20
0.722886
 30
0.0
 10
0.771712
 20
0.704089
 30
0.0
 10
0.763665
 20
0.690163
 30
0.0
 10
0.756757
 20
0.663285
 30
0.0
 10
0.751443
 20
0.636407
 30
0.0
 10
0.750219
 20
0.608807
 30
0.0
 10
0.748202
 20
0.586462
 30
0.0
 10
0.760208
 20
0.568343
 30
0.0
 10
0.777282
 20
0.572359
 30
0.0
 10
0.792170
 20
0.580423
 30
0.0
 10
0.801360
 20
0.566888
 30
0.0
 10
0.786608
 20
0.550124
 30
0.0
 10
0.775258
 20
0.527616
 30
0.0
 10
0.740668
 20
0.530042
 30
0.0
 10
0.734733
 20
0.548438
 30
0.0
 10
0.731316
 20
0.559028
 30
0.0
 11
0.731316
 21
0.559028
 31
0.0
 11
0.730637
 21
0.611074
 31
0.0
 11
0.743451
 21
0.672230
 31
0.0
 11
0.763683
 21
0.713504
 31
0.0
 11
0.771689
 21
0.719143
 31
0.0
 11
0.772030
 21
0.711758
 31
0.0
 11
0.764763
 21
0.690068
 31
0.0
 11
0.757327
 21
0.664566
 31
0.0
 11
0.752023
 21
0.635293
 31
0.0
 11
0.750000
 21
0.608587
 31
0.0
 11
0.752025
 21
0.582386
 31
0.0
 11
0.760169
 21
0.571981
 31
0.0
 11
0.777537
 21
0.573406
 31
0.0
 11
0.794093
 21
0.576140
 31
0.0
 11
0.798012
 21
0.570521
 31
0.0
 11
0.790937
 21
0.554192
 31
0.0
 11
0.769076
 21
0.531042
 31
0.0
 11
0.746748
 21
0.532853
 31
0.0
 11
0.731316
 21
0.559028
 31
0.0
  0
LWPOLYLINE
  5
123
100
AcDbEntity
  8
0
 62
7
100
AcDbPolyline
 90
2
 70
1
 10
0.731316
 20
0.559028
 30
0.0
 10
0.731316
 20
0.559028
 30
0.0
  0
SPLINE
  5
124
100
AcDbEntity
  8
0
 62
7
100
AcDbSpline
 70
0
 71
3
 72
19
 73
15
 74
13
 40
0.000000
 40
0.000000
 40
0.000000
 40
0.000000
 40
0.047874
 40
0.093984
 40
0.128720
 40
0.159713
 40
0.178345
 40
0.201258
 40
0.255001
 40
0.313718
 40
0.369771
 40
0.431731
 40
0.516709
 40
0.613027
 40
0.613027
 40
0.613027
 40
0.613027
 10
1.312661
 20
1.195698
 30
0.0
 10
1.327419
 20
1.201765
 30
0.0
 10
1.356390
 20
1.213678
 30
0.0
 10
1.394655
 20
1.233436
 30
0.0
 10
1.425379
 20
1.254424
 30
0.0
 10
1.447436
 20
1.272512
 30
0.0
 10
1.456835
 20
1.296813
 30
0.0
 10
1.441382
 20
1.326997
 30
0.0
 10
1.409955
 20
1.359776
 30
0.0
 10
1.357478
 20
1.382789
 30
0.0
 10
1.296262
 20
1.389016
 30
0.0
 10
1.235970
 20
1.352271
 30
0.0
 10
1.177787
 20
1.295920
 30
0.0
 10
1.143983
 20
1.245524
 30
0.0
 10
1.126024
 20
1.218750
 30
0.0
 11
1.312661
 21
1.195698
 31
0.0
 11
1.356666
 21
1.214554
 31
0.0
 11
1.397443
 21
1.236080
 31
0.0
 11
1.426163
 21
1.255617
 31
0.0
 11
1.448115
 21
1.277497
 31
0.0
 11
1.453842
 21
1.295227
 31
0.0
 11
1.445903
 21
1.316720
 31
0.0
 11
1.409075
 21
1.355860
 31
0.0
 11
1.355598
 21
1.380109
 31
0.0
 11
1.299622
 21
1.383051
 31
0.0
 11
1.244318
 21
1.355115
 31
0.0
 11
1.182599
 21
1.296702
 31
0.0
 11
1.126024
 21
1.218750
 31
0.0
  0
LWPOLYLINE
  5
125
100
AcDbEntity
  8
0
 62
7
100
AcDbPolyline
 90
3
 70
1
 10
1.126024
 20
1.218750
 30
0.0
 10
1.094957
 20
1.166667
 30
0.0
 10
1.165013
 20
1.166667
 30
0.0
  0
SPLINE
  5
126
100
AcDbEntity
  8
0
 62
7
100
AcDbSpline
 70
0
 71
3
 72
10
 73
6
 74
4
 40
0.000000
 40
0.000000
 40
0.000000
 40
0.000000
 40
0.046093
 40
0.100152
 40
0.150985
 40
0.150985
 40
0.150985
 40
0.150985
 10
1.165013
 20
1.166667
 30
0.0
 10
1.180354
 20
1.167680
 30
0.0
 10
1.213688
 20
1.169883
 30
0.0
 10
1.263210
 20
1.179873
 30
0.0
 10
1.296519
 20
1.190532
 30
0.0
 10
1.312662
 20
1.195698
 30
0.0
 11
1.165013
 21
1.166667
 31
0.0
 11
1.210933
 21
1.170645
 31
0.0
 11
1.263978
 21
1.181075
 31
0.0
 11
1.312662
 21
1.195698
 31
0.0
  0
LWPOLYLINE
  5
127
100
AcDbEntity
  8
0
 62
7
100
AcDbPolyline
 90
2
 70
1
 10
1.312662
 20
1.195698
 30
0.0
 10
1.312661
 20
1.195698
 30
0.0
  0
SPLINE
  5
128
100
AcDbEntity
  8
0
 62
7
100
AcDbSpline
 70
0
 71
3
 72
10
 73
6
 74
4
 40
0.000000
 40
0.000000
 40
0.000000
 40
0.000000
 40
0.046380
 40
0.105890
 40
0.165769
 40
0.165769
 40
0.165769
 40
0.165769
 10
1.854589
 20
1.284868
 30
0.0
 10
1.861913
 20
1.298487
 30
0.0
 10
1.878636
 20
1.329579
 30
0.0
 10
1.901297
 20
1.380029
 30
0.0
 10
1.916005
 20
1.417007
 30
0.0
 10
1.923382
 20
1.435554
 30
0.0
 11
1.854589
 21
1.284868
 31
0.0
 11
1.876131
 21
1.325941
 31
0.0
 11
1.900845
 21
1.380077
 31
0.0
 11
1.923382
 21
1.435554
 31
0.0
  0
LWPOLYLINE
  5
129
100
AcDbEntity
  8
0
 62
7
100
AcDbPolyline
 90
3
 70
1
 10
1.923382
 20
1.435554
 30
0.0
 10
1.959134
 20
1.530538
 30
0.0
 10
1.910308
 20
1.500362
 30
0.0
  0
SPLINE
  5
12a
100
AcDbEntity
  8
0
 62
7
100
AcDbSpline
 70
0
 71
3
 72
19
 73
15
 74
13
 40
0.000000
 40
0.000000
 40
0.000000
 40
0.000000
 40
0.033516
 40
0.065612
 40
0.091549
 40
0.117308
 40
0.138631
 40
0.176976
 40
0.265217
 40
0.353203
 40
0.407088
 40
0.426954
 40
0.462553
 40
0.545200
 40
0.545200
 40
0.545200
 40
0.545200
 10
1.910308
 20
1.500362
 30
0.0
 10
1.900466
 20
1.495061
 30
0.0
 10
1.881199
 20
1.484685
 30
0.0
 10
1.851566
 20
1.475760
 30
0.0
 10
1.824073
 20
1.473359
 30
0.0
 10
1.797861
 20
1.478688
 30
0.0
 10
1.776840
 20
1.455248
 30
0.0
 10
1.764669
 20
1.407737
 30
0.0
 10
1.750042
 20
1.335976
 30
0.0
 10
1.753589
 20
1.263193
 30
0.0
 10
1.752879
 20
1.201076
 30
0.0
 10
1.792522
 20
1.183249
 30
0.0
 10
1.820771
 20
1.232699
 30
0.0
 10
1.840676
 20
1.263406
 30
0.0
 10
1.854589
 20
1.284868
 30
0.0
 11
1.910308
 21
1.500362
 31
0.0
 11
1.880268
 21
1.485499
 31
0.0
 11
1.849494
 21
1.476381
 31
0.0
 11
1.823613
 21
1.474676
 31
0.0
 11
1.797860
 21
1.474116
 31
0.0
 11
1.782277
 21
1.459562
 31
0.0
 11
1.768939
 21
1.423611
 31
0.0
 11
1.753718
 21
1.336693
 31
0.0
 11
1.753034
 21
1.248709
 31
0.0
 11
1.767175
 21
1.196713
 31
0.0
 11
1.785695
 21
1.189522
 31
0.0
 11
1.810760
 21
1.214800
 31
0.0
 11
1.854589
 21
1.284868
 31
0.0
  0
LWPOLYLINE
  5
12b
100
AcDbEntity
  8
0
 62
7
100
AcDbPolyline
 90
2
 70
1
 10
1.854589
 20
1.284868
 30
0.0
 10
1.854589
 20
1.284868
 30
0.0
  0
SPLINE
  5
12c
100
AcDbEntity
  8
0
 62
7
100
AcDbSpline
 70
0
 71
3
 72
16
 73
12
 74
10
 40
0.000000
 40
0.000000
 40
0.000000
 40
0.000000
 40
0.030465
 40
0.050855
 40
0.072644
 40
0.081891
 40
0.096748
 40
0.121372
 40
0.151598
 40
0.159284
 40
0.180779
 40
0.180779
 40
0.180779
 40
0.180779
 10
2.160284
 20
1.521462
 30
0.0
 10
2.151842
 20
1.527508
 30
0.0
 10
2.137750
 20
1.537599
 30
0.0
 10
2.111588
 20
1.537182
 30
0.0
 10
2.098444
 20
1.521212
 30
0.0
 10
2.102215
 20
1.504487
 30
0.0
 10
2.120751
 20
1.500916
 30
0.0
 10
2.142302
 20
1.501957
 30
0.0
 10
2.165221
 20
1.494792
 30
0.0
 10
2.181866
 20
1.511480
 30
0.0
 10
2.169439
 20
1.517228
 30
0.0
 10
2.160284
 20
1.521462
 30
0.0
 11
2.160284
 21
1.521462
 31
0.0
 11
2.133443
 21
1.535872
 31
0.0
 11
2.113123
 21
1.534186
 31
0.0
 11
2.100405
 21
1.516493
 31
0.0
 11
2.102812
 21
1.507564
 31
0.0
 11
2.116637
 21
1.502125
 31
0.0
 11
2.141204
 21
1.500442
 31
0.0
 11
2.171402
 21
1.501740
 31
0.0
 11
2.176568
 21
1.507431
 31
0.0
 11
2.160284
 21
1.521462
 31
0.0
  0
LWPOLYLINE
  5
12d
100
AcDbEntity
  8
0
 62
7
100
AcDbPolyline
 90
2
 70
1
 10
2.160284
 20
1.521462
 30
0.0
 10
2.160284
 20
1.521462
 30
0.0
  0
SPLINE
  5
12e
100
AcDbEntity
  8
0
 62
7
100
AcDbSpline
 70
0
 71
3
 72
16
 73
12
 74
10
 40
0.000000
 40
0.000000
 40
0.000000
 40
0.000000
 40
0.023226
 40
0.062098
 40
0.098355
 40
0.104009
 40
0.114615
 40
0.132161
 40
0.170526
 40
0.201934
 40
0.221570
 40
0.221570
 40
0.221570
 40
0.221570
 10
1.333333
 20
1.667010
 30
0.0
 10
1.328348
 20
1.673204
 30
0.0
 10
1.315018
 20
1.689762
 30
0.0
 10
1.283577
 20
1.697635
 30
0.0
 10
1.256373
 20
1.715742
 30
0.0
 10
1.240155
 20
1.703624
 30
0.0
 10
1.248274
 20
1.691698
 30
0.0
 10
1.260074
 20
1.674911
 30
0.0
 10
1.284502
 20
1.659066
 30
0.0
 10
1.318033
 20
1.646533
 30
0.0
 10
1.329083
 20
1.661322
 30
0.0
 10
1.333333
 20
1.667010
 30
0.0
 11
1.333333
 21
1.667010
 31
0.0
 11
1.317464
 21
1.683969
 31
0.0
 11
1.282397
 21
1.700743
 31
0.0
 11
1.246943
 21
1.708333
 31
0.0
 11
1.242763
 21
1.704527
 31
0.0
 11
1.246356
 21
1.694547
 31
0.0
 11
1.256944
 21
1.680556
 31
0.0
 11
1.288458
 21
1.658675
 31
0.0
 11
1.319383
 21
1.653191
 31
0.0
 11
1.333333
 21
1.667010
 31
0.0
  0
LWPOLYLINE
  5
12f
100
AcDbEntity
  8
0
 62
7
100
AcDbPolyline
 90
2
 70
1
 10
1.333333
 20
1.667010
 30
0.0
 10
1.333333
 20
1.667010
 30
0.0
  0
SPLINE
  5
130
100
AcDbEntity
  8
0
 62
7
100
AcDbSpline
 70
0
 71
3
 72
25
 73
21
 74
19
 40
0.000000
 40
0.000000
 40
0.000000
 40
0.000000
 40
0.030599
 40
0.059455
 40
0.111502
 40
0.189621
 40
0.256660
 40
0.329437
 40
0.385858
 40
0.420327
 40
0.477536
 40
0.562702
 40
0.635310
 40
0.737715
 40
0.781950
 40
0.793169
 40
0.814493
 40
0.867619
 40
0.924404
 40
0.996465
 40
0.996465
 40
0.996465
 40
0.996465
 10
1.086806
 20
1.717584
 30
0.0
 10
1.096341
 20
1.722323
 30
0.0
 10
1.114870
 20
1.731530
 30
0.0
 10
1.126485
 20
1.769576
 30
0.0
 10
1.123699
 20
1.822012
 30
0.0
 10
1.128246
 20
1.888282
 30
0.0
 10
1.157563
 20
1.957527
 30
0.0
 10
1.204737
 20
2.000893
 30
0.0
 10
1.248143
 20
2.042828
 30
0.0
 10
1.303016
 20
2.026678
 30
0.0
 10
1.315968
 20
1.964156
 30
0.0
 10
1.353762
 20
1.895234
 30
0.0
 10
1.450834
 20
1.889721
 30
0.0
 10
1.514968
 20
1.939062
 30
0.0
 10
1.540726
 20
1.979139
 30
0.0
 10
1.571834
 20
1.992798
 30
0.0
 10
1.552116
 20
1.951022
 30
0.0
 10
1.572478
 20
1.905509
 30
0.0
 10
1.647298
 20
1.914524
 30
0.0
 10
1.670289
 20
1.952466
 30
0.0
 10
1.683147
 20
1.973686
 30
0.0
 11
1.086806
 21
1.717584
 31
0.0
 11
1.112146
 21
1.734735
 31
0.0
 11
1.122817
 21
1.761545
 31
0.0
 11
1.125000
 21
1.813546
 31
0.0
 11
1.133188
 21
1.891236
 31
0.0
 11
1.160195
 21
1.952594
 31
0.0
 11
1.209687
 21
2.005952
 31
0.0
 11
1.257653
 21
2.035659
 31
0.0
 11
1.290737
 21
2.025989
 31
0.0
 11
1.316278
 21
1.974797
 31
0.0
 11
1.365040
 21
1.904972
 31
0.0
 11
1.437289
 21
1.897770
 31
0.0
 11
1.522734
 21
1.954215
 31
0.0
 11
1.554652
 21
1.984840
 31
0.0
 11
1.565283
 21
1.988426
 31
0.0
 11
1.561789
 21
1.967390
 31
0.0
 11
1.578484
 21
1.916955
 31
0.0
 11
1.635193
 21
1.919897
 31
0.0
 11
1.683147
 21
1.973686
 31
0.0
  0
LWPOLYLINE
  5
131
100
AcDbEntity
  8
0
 62
7
100
AcDbPolyline
 90
3
 70
1
 10
1.683147
 20
1.973686
 30
0.0
 10
1.698326
 20
2.017230
 30
0.0
 10
1.716548
 20
1.973893
 30
0.0
  0
SPLINE
  5
132
100
AcDbEntity
  8
0
 62
7
100
AcDbSpline
 70
0
 71
3
 72
13
 73
9
 74
7
 40
0.000000
 40
0.000000
 40
0.000000
 40
0.000000
 40
0.031312
 40
0.054508
 40
0.086257
 40
0.114869
 40
0.144870
 40
0.170840
 40
0.170840
 40
0.170840
 40
0.170840
 10
1.716548
 20
1.973893
 30
0.0
 10
1.720531
 20
1.963979
 30
0.0
 10
1.727465
 20
1.946723
 30
0.0
 10
1.752983
 20
1.930177
 30
0.0
 10
1.781663
 20
1.929881
 30
0.0
 10
1.811455
 20
1.933273
 30
0.0
 10
1.838804
 20
1.941624
 30
0.0
 10
1.854631
 20
1.951607
 30
0.0
 10
1.861974
 20
1.956239
 30
0.0
 11
1.716548
 21
1.973893
 31
0.0
 11
1.731531
 21
1.946397
 31
0.0
 11
1.750917
 21
1.933661
 31
0.0
 11
1.782513
 21
1.930556
 31
0.0
 11
1.810908
 21
1.934075
 31
0.0
 11
1.839455
 21
1.943302
 31
0.0
 11
1.861974
 21
1.956239
 31
0.0
  0
LWPOLYLINE
  5
133
100
AcDbEntity
  8
0
 62
7
100
AcDbPolyline
 90
3
 70
1
 10
1.861974
 20
1.956239
 30
0.0
 10
1.893692
 20
1.981922
 30
0.0
 10
1.876278
 20
2.164268
 30
0.0
  0
SPLINE
  5
134
100
AcDbEntity
  8
0
 62
7
100
AcDbSpline
 70
0
 71
3
 72
31
 73
27
 74
25
 40
0.000000
 40
0.000000
 40
0.000000
 40
0.000000
 40
0.294519
 40
0.602002
 40
1.007433
 40
1.273698
 40
1.468815
 40
1.626887
 40
1.678052
 40
1.710003
 40
1.718036
 40
1.749475
 40
1.810821
 40
1.888793
 40
2.026849
 40
2.226401
 40
2.584734
 40
2.904902
 40
3.183923
 40
3.449807
 40
3.555127
 40
3.628207
 40
3.702382
 40
3.860602
 40
3.978273
 40
4.105239
 40
4.105239
 40
4.105239
 40
4.105239
 10
1.876278
 20
2.164268
 30
0.0
 10
1.864282
 20
2.261917
 30
0.0
 10
1.839763
 20
2.461512
 30
0.0
 10
1.733653
 20
2.782029
 30
0.0
 10
1.597561
 20
3.078619
 30
0.0
 10
1.477048
 20
3.341299
 30
0.0
 10
1.396248
 20
3.531236
 30
0.0
 10
1.361752
 20
3.663036
 30
0.0
 10
1.334401
 20
3.737043
 30
0.0
 10
1.331111
 20
3.769912
 30
0.0
 10
1.306690
 20
3.783409
 30
0.0
 10
1.307774
 20
3.727935
 30
0.0
 10
1.283911
 20
3.688348
 30
0.0
 10
1.260516
 20
3.592943
 30
0.0
 10
1.214454
 20
3.465193
 30
0.0
 10
1.121666
 20
3.250878
 30
0.0
 10
0.997155
 20
2.986849
 30
0.0
 10
0.871764
 20
2.692729
 30
0.0
 10
0.793539
 20
2.413994
 30
0.0
 10
0.769473
 20
2.197851
 30
0.0
 10
0.762963
 20
2.049928
 30
0.0
 10
0.768650
 20
1.965446
 30
0.0
 10
0.795947
 20
1.867259
 30
0.0
 10
0.839115
 20
1.756263
 30
0.0
 10
0.963870
 20
1.672801
 30
0.0
 10
1.044802
 20
1.702283
 30
0.0
 10
1.086806
 20
1.717584
 30
0.0
 11
1.876278
 21
2.164268
 31
0.0
 11
1.830983
 21
2.455283
 31
0.0
 11
1.739506
 21
2.748843
 31
0.0
 11
1.578208
 21
3.120807
 31
0.0
 11
1.468477
 21
3.363410
 31
0.0
 11
1.396280
 21
3.544679
 31
0.0
 11
1.349277
 21
3.695600
 31
0.0
 11
1.334657
 21
3.744632
 31
0.0
 11
1.322439
 21
3.774155
 31
0.0
 11
1.315270
 21
3.777778
 31
0.0
 11
1.305849
 21
3.747783
 31
0.0
 11
1.287731
 21
3.689173
 31
0.0
 11
1.264838
 21
3.614638
 31
0.0
 11
1.220000
 21
3.484067
 31
0.0
 11
1.142231
 21
3.300292
 31
0.0
 11
0.993797
 21
2.974149
 31
0.0
 11
0.873309
 21
2.677517
 31
0.0
 11
0.799982
 21
2.408303
 31
0.0
 11
0.767788
 21
2.144376
 31
0.0
 11
0.764801
 21
2.039098
 31
0.0
 11
0.771049
 21
1.966285
 31
0.0
 11
0.789241
 21
1.894376
 31
0.0
 11
0.861025
 21
1.753378
 31
0.0
 11
0.962188
 21
1.693274
 31
0.0
 11
1.086806
 21
1.717584
 31
0.0
  0
LWPOLYLINE
  5
135
100
AcDbEntity
  8
0
 62
7
100
AcDbPolyline
 90
2
 70
1
 10
1.086806
 20
1.717584
 30
0.0
 10
1.086806
 20
1.717584
 30
0.0
  0
SPLINE
  5
136
100
AcDbEntity
  8
0
 62
7
100
AcDbSpline
 70
0
 71
3
 72
16
 73
12
 74
10
 40
0.000000
 40
0.000000
 40
0.000000
 40
0.000000
 40
0.114366
 40
0.147562
 40
0.198675
 40
0.249895
 40
0.295208
 40
0.325079
 40
0.338393
 40
0.348593
 40
0.380632
 40
0.380632
 40
0.380632
 40
0.380632
 10
0.941316
 20
1.791667
 30
0.0
 10
0.935454
 20
1.822913
 30
0.0
 10
0.927891
 20
1.863230
 30
0.0
 10
0.921604
 20
1.961269
 30
0.0
 10
0.940436
 20
1.879669
 30
0.0
 10
0.948025
 20
1.843723
 30
0.0
 10
0.953930
 20
1.796077
 30
0.0
 10
0.956760
 20
1.774039
 30
0.0
 10
0.952601
 20
1.745173
 30
0.0
 10
0.942964
 20
1.770569
 30
0.0
 10
0.942027
 20
1.782566
 30
0.0
 10
0.941316
 20
1.791667
 30
0.0
 11
0.941316
 21
1.791667
 31
0.0
 11
0.925469
 21
1.904929
 31
0.0
 11
0.924400
 21
1.938108
 31
0.0
 11
0.938186
 21
1.888889
 31
0.0
 11
0.948202
 21
1.838657
 31
0.0
 11
0.954249
 21
1.793750
 31
0.0
 11
0.955019
 21
1.763889
 31
0.0
 11
0.951638
 21
1.751011
 31
0.0
 11
0.947125
 21
1.760159
 31
0.0
 11
0.941316
 21
1.791667
 31
0.0
  0
LWPOLYLINE
  5
137
100
AcDbEntity
  8
0
 62
7
100
AcDbPolyline
 90
2
 70
1
 10
0.941316
 20
1.791667
 30
0.0
 10
0.941316
 20
1.791667
 30
0.0
  0
SPLINE
  5
138
100
AcDbEntity
  8
0
 62
7
100
AcDbSpline
 70
0
 71
3
 72
28
 73
24
 74
22
 40
0.000000
 40
0.000000
 40
0.000000
 40
0.000000
 40
0.015169
 40
0.035081
 40
0.056693
 40
0.076603
 40
0.082272
 40
0.093142
 40
0.113331
 40
0.125911
 40
0.152204
 40
0.168161
 40
0.184276
 40
0.209332
 40
0.244246
 40
0.267141
 40
0.308724
 40
0.330548
 40
0.350301
 40
0.364421
 40
0.373214
 40
0.377301
 40
0.388224
 40
0.388224
 40
0.388224
 40
0.388224
 10
0.916879
 20
2.001778
 30
0.0
 10
0.917978
 20
2.006774
 30
0.0
 10
0.920517
 20
2.018328
 30
0.0
 10
0.932235
 20
2.033506
 30
0.0
 10
0.947000
 20
2.048719
 30
0.0
 10
0.960473
 20
2.054354
 30
0.0
 10
0.968033
 20
2.068699
 30
0.0
 10
0.949740
 20
2.061467
 30
0.0
 10
0.933505
 20
2.057634
 30
0.0
 10
0.930544
 20
2.082159
 30
0.0
 10
0.946701
 20
2.093768
 30
0.0
 10
0.963347
 20
2.105321
 30
0.0
 10
0.983503
 20
2.099557
 30
0.0
 10
1.001973
 20
2.084219
 30
0.0
 10
1.028678
 20
2.064234
 30
0.0
 10
1.013078
 20
2.027884
 30
0.0
 10
0.981727
 20
2.023721
 30
0.0
 10
0.955834
 20
2.015145
 30
0.0
 10
0.939093
 20
2.005919
 30
0.0
 10
0.928039
 20
1.998646
 30
0.0
 10
0.923452
 20
1.986872
 30
0.0
 10
0.915366
 20
1.992352
 30
0.0
 10
0.916242
 20
1.997808
 30
0.0
 10
0.916879
 20
2.001778
 30
0.0
 11
0.916879
 21
2.001778
 31
0.0
 11
0.921055
 21
2.016362
 31
0.0
 11
0.932205
 21
2.032859
 31
0.0
 11
0.947917
 21
2.047698
 31
0.0
 11
0.963329
 21
2.060304
 31
0.0
 11
0.965583
 21
2.065505
 31
0.0
 11
0.954861
 21
2.063717
 31
0.0
 11
0.934678
 21
2.063223
 31
0.0
 11
0.932635
 21
2.075636
 31
0.0
 11
0.949592
 21
2.095731
 31
0.0
 11
0.963838
 21
2.102917
 31
0.0
 11
0.979654
 21
2.099824
 31
0.0
 11
1.000413
 21
2.085792
 31
0.0
 11
1.022447
 21
2.058709
 31
0.0
 11
1.014334
 21
2.037300
 31
0.0
 11
0.975965
 21
2.021271
 31
0.0
 11
0.955313
 21
2.014215
 31
0.0
 11
0.937878
 21
2.004930
 31
0.0
 11
0.927435
 21
1.995427
 31
0.0
 11
0.921633
 21
1.988819
 31
0.0
 11
0.918131
 21
1.990927
 31
0.0
 11
0.916879
 21
2.001778
 31
0.0
  0
LWPOLYLINE
  5
139
100
AcDbEntity
  8
0
 62
7
100
AcDbPolyline
 90
2
 70
1
 10
0.916879
 20
2.001778
 30
0.0
 10
0.916879
 20
2.001778
 30
0.0
  0
SPLINE
  5
13a
100
AcDbEntity
  8
0
 62
7
100
AcDbSpline
 70
0
 71
3
 72
22
 73
18
 74
16
 40
0.000000
 40
0.000000
 40
0.000000
 40
0.000000
 40
0.018325
 40
0.040945
 40
0.068337
 40
0.125532
 40
0.137659
 40
0.181775
 40
0.224924
 40
0.242406
 40
0.256745
 40
0.276000
 40
0.288289
 40
0.314408
 40
0.329330
 40
0.340667
 40
0.356672
 40
0.356672
 40
0.356672
 40
0.356672
 10
1.778392
 20
2.020093
 30
0.0
 10
1.775313
 20
2.025438
 30
0.0
 10
1.768432
 20
2.037381
 30
0.0
 10
1.766880
 20
2.060886
 30
0.0
 10
1.774000
 20
2.095665
 30
0.0
 10
1.771465
 20
2.129661
 30
0.0
 10
1.807635
 20
2.159501
 30
0.0
 10
1.791989
 20
2.095290
 30
0.0
 10
1.791052
 20
2.074305
 30
0.0
 10
1.792632
 20
2.040799
 30
0.0
 10
1.812065
 20
2.046044
 30
0.0
 10
1.831336
 20
2.053441
 30
0.0
 10
1.832775
 20
2.028449
 30
0.0
 10
1.817160
 20
2.018117
 30
0.0
 10
1.803276
 20
2.006301
 30
0.0
 10
1.787833
 20
2.008582
 30
0.0
 10
1.781878
 20
2.015843
 30
0.0
 10
1.778392
 20
2.020093
 30
0.0
 11
1.778392
 21
2.020093
 31
0.0
 11
1.770346
 21
2.036557
 31
0.0
 11
1.767900
 21
2.059045
 31
0.0
 11
1.771199
 21
2.086237
 31
0.0
 11
1.786567
 21
2.141328
 31
0.0
 11
1.796190
 21
2.148709
 31
0.0
 11
1.795148
 21
2.104606
 31
0.0
 11
1.791744
 21
2.061591
 31
0.0
 11
1.796150
 21
2.044673
 31
0.0
 11
1.810437
 21
2.045898
 31
0.0
 11
1.829618
 21
2.047575
 31
0.0
 11
1.831180
 21
2.035385
 31
0.0
 11
1.814343
 21
2.015418
 31
0.0
 11
1.801475
 21
2.007862
 31
0.0
 11
1.790232
 21
2.009324
 31
0.0
 11
1.778392
 21
2.020093
 31
0.0
  0
LWPOLYLINE
  5
13b
100
AcDbEntity
  8
0
 62
7
100
AcDbPolyline
 90
2
 70
1
 10
1.778392
 20
2.020093
 30
0.0
 10
1.778392
 20
2.020093
 30
0.0
  0
SPLINE
  5
13c
100
AcDbEntity
  8
0
 62
7
100
AcDbSpline
 70
0
 71
3
 72
16
 73
12
 74
10
 40
0.000000
 40
0.000000
 40
0.000000
 40
0.000000
 40
0.088706
 40
0.229452
 40
0.318728
 40
0.333018
 40
0.437492
 40
0.646931
 40
0.659903
 40
0.663642
 40
0.681870
 40
0.681870
 40
0.681870
 40
0.681870
 10
1.319444
 20
2.086759
 30
0.0
 10
1.346617
 20
2.101937
 30
0.0
 10
1.416902
 20
2.141197
 30
0.0
 10
1.488060
 20
2.153484
 30
0.0
 10
1.623793
 20
2.236890
 30
0.0
 10
1.598478
 20
2.161513
 30
0.0
 10
1.461542
 20
2.146806
 30
0.0
 10
1.406375
 20
2.129179
 30
0.0
 10
1.306548
 20
2.065389
 30
0.0
 10
1.307176
 20
2.079214
 30
0.0
 10
1.313881
 20
2.083337
 30
0.0
 10
1.319444
 20
2.086759
 30
0.0
 11
1.319444
 21
2.086759
 31
0.0
 11
1.398113
 21
2.127747
 31
0.0
 11
1.528169
 21
2.181549
 31
0.0
 11
1.613333
 21
2.208333
 31
0.0
 11
1.608944
 21
2.194735
 31
0.0
 11
1.513975
 21
2.151192
 31
0.0
 11
1.319444
 21
2.073589
 31
0.0
 11
1.307099
 21
2.069609
 31
0.0
 11
1.307099
 21
2.073348
 31
0.0
 11
1.319444
 21
2.086759
 31
0.0
  0
LWPOLYLINE
  5
13d
100
AcDbEntity
  8
0
 62
7
100
AcDbPolyline
 90
2
 70
1
 10
1.319444
 20
2.086759
 30
0.0
 10
1.319444
 20
2.086759
 30
0.0
  0
SPLINE
  5
13e
100
AcDbEntity
  8
0
 62
7
100
AcDbSpline
 70
0
 71
3
 72
40
 73
36
 74
34
 40
0.000000
 40
0.000000
 40
0.000000
 40
0.000000
 40
0.062188
 40
0.125228
 40
0.197532
 40
0.265447
 40
0.315416
 40
0.475474
 40
0.742491
 40
0.933516
 40
1.070495
 40
1.149765
 40
1.216932
 40
1.285858
 40
1.363622
 40
1.441538
 40
1.481951
 40
1.488299
 40
1.501114
 40
1.519801
 40
1.588911
 40
1.649559
 40
1.713186
 40
1.873656
 40
2.089298
 40
2.395100
 40
2.548393
 40
2.613932
 40
2.663059
 40
2.704588
 40
2.765478
 40
2.863053
 40
2.936727
 40
2.980740
 40
2.988356
 40
2.988356
 40
2.988356
 40
2.988356
 10
1.618000
 20
2.097925
 30
0.0
 10
1.624831
 20
2.117388
 30
0.0
 10
1.638585
 20
2.156581
 30
0.0
 10
1.676417
 20
2.214460
 30
0.0
 10
1.712321
 20
2.257036
 30
0.0
 10
1.786589
 20
2.329508
 30
0.0
 10
1.655216
 20
2.320189
 30
0.0
 10
1.536859
 20
2.256293
 30
0.0
 10
1.326447
 20
2.195255
 30
0.0
 10
1.132914
 20
2.157597
 30
0.0
 10
0.994475
 20
2.179395
 30
0.0
 10
0.912208
 20
2.228644
 30
0.0
 10
0.865034
 20
2.285491
 30
0.0
 10
0.846259
 20
2.354981
 30
0.0
 10
0.852321
 20
2.436210
 30
0.0
 10
0.861551
 20
2.481240
 30
0.0
 10
0.881537
 20
2.552214
 30
0.0
 10
0.896806
 20
2.535060
 30
0.0
 10
0.893170
 20
2.521687
 30
0.0
 10
0.883991
 20
2.490466
 30
0.0
 10
0.868742
 20
2.441709
 30
0.0
 10
0.880724
 20
2.375896
 30
0.0
 10
0.937926
 20
2.297167
 30
0.0
 10
1.082717
 20
2.236163
 30
0.0
 10
1.311162
 20
2.262211
 30
0.0
 10
1.532821
 20
2.338019
 30
0.0
 10
1.678956
 20
2.396643
 30
0.0
 10
1.788543
 20
2.424833
 30
0.0
 10
1.801014
 20
2.360890
 30
0.0
 10
1.788307
 20
2.313168
 30
0.0
 10
1.752704
 20
2.255774
 30
0.0
 10
1.707963
 20
2.190555
 30
0.0
 10
1.660051
 20
2.143809
 30
0.0
 10
1.638228
 20
2.096176
 30
0.0
 10
1.620600
 20
2.097700
 30
0.0
 10
1.618000
 20
2.097925
 30
0.0
 11
1.618000
 21
2.097925
 31
0.0
 11
1.641014
 21
2.155698
 31
0.0
 11
1.674206
 21
2.209292
 31
0.0
 11
1.721069
 21
2.264353
 31
0.0
 11
1.759824
 21
2.320125
 31
0.0
 11
1.709920
 21
2.322686
 31
0.0
 11
1.557858
 21
2.272730
 31
0.0
 11
1.302938
 21
2.193271
 31
0.0
 11
1.113704
 21
2.167172
 31
0.0
 11
0.979167
 21
2.192917
 31
0.0
 11
0.911751
 21
2.234617
 31
0.0
 11
0.869771
 21
2.287048
 31
0.0
 11
0.850752
 21
2.353299
 31
0.0
 11
0.853097
 21
2.431027
 31
0.0
 11
0.869125
 21
2.507277
 31
0.0
 11
0.890350
 21
2.541667
 31
0.0
 11
0.894407
 21
2.536785
 31
0.0
 11
0.893759
 21
2.523985
 31
0.0
 11
0.888545
 21
2.506040
 31
0.0
 11
0.873935
 21
2.438492
 31
0.0
 11
0.884651
 21
2.378799
 31
0.0
 11
0.920791
 21
2.326432
 31
0.0
 11
1.064944
 21
2.255930
 31
0.0
 11
1.280379
 21
2.265380
 31
0.0
 11
1.572744
 21
2.355029
 31
0.0
 11
1.717404
 21
2.405746
 31
0.0
 11
1.782926
 21
2.407283
 31
0.0
 11
1.797263
 21
2.360295
 31
0.0
 11
1.788344
 21
2.319735
 31
0.0
 11
1.758890
 21
2.266443
 31
0.0
 11
1.701698
 21
2.187387
 31
0.0
 11
1.655682
 21
2.129851
 31
0.0
 11
1.625613
 21
2.097710
 31
0.0
 11
1.618000
 21
2.097925
 31
0.0
  0
LWPOLYLINE
  5
13f
100
AcDbEntity
  8
0
 62
7
100
AcDbPolyline
 90
2
 70
1
 10
1.618000
 20
2.097925
 30
0.0
 10
1.618000
 20
2.097925
 30
0.0
  0
SPLINE
  5
140
100
AcDbEntity
  8
0
 62
7
100
AcDbSpline
 70
0
 71
3
 72
19
 73
15
 74
13
 40
0.000000
 40
0.000000
 40
0.000000
 40
0.000000
 40
0.045284
 40
0.086691
 40
0.128619
 40
0.192721
 40
0.253475
 40
0.315451
 40
0.356721
 40
0.402564
 40
0.442942
 40
0.461142
 40
0.483457
 40
0.506097
 40
0.506097
 40
0.506097
 40
0.506097
 10
1.277778
 20
2.402778
 30
0.0
 10
1.268383
 20
2.415010
 30
0.0
 10
1.250397
 20
2.438428
 30
0.0
 10
1.249567
 20
2.484341
 30
0.0
 10
1.276759
 20
2.528177
 30
0.0
 10
1.334976
 20
2.548559
 30
0.0
 10
1.397371
 20
2.523705
 30
0.0
 10
1.424280
 20
2.467190
 30
0.0
 10
1.404617
 20
2.418448
 30
0.0
 10
1.374814
 20
2.388164
 30
0.0
 10
1.340700
 20
2.371741
 30
0.0
 10
1.313919
 20
2.378629
 30
0.0
 10
1.294974
 20
2.388086
 30
0.0
 10
1.283537
 20
2.397857
 30
0.0
 10
1.277778
 20
2.402778
 30
0.0
 11
1.277778
 21
2.402778
 31
0.0
 11
1.254347
 21
2.441529
 31
0.0
 11
1.253498
 21
2.482928
 31
0.0
 11
1.275399
 21
2.518681
 31
0.0
 11
1.335648
 21
2.540568
 31
0.0
 11
1.391854
 21
2.517505
 31
0.0
 11
1.416667
 21
2.460712
 31
0.0
 11
1.403228
 21
2.421691
 31
0.0
 11
1.371271
 21
2.388822
 31
0.0
 11
1.333333
 21
2.375000
 31
0.0
 11
1.315535
 21
2.378807
 31
0.0
 11
1.295576
 21
2.388786
 31
0.0
 11
1.277778
 21
2.402778
 31
0.0
  0
LWPOLYLINE
  5
141
100
AcDbEntity
  8
0
 62
7
100
AcDbPolyline
 90
2
 70
1
 10
1.277778
 20
2.402778
 30
0.0
 10
1.277778
 20
2.402778
 30
0.0
  0
SPLINE
  5
142
100
AcDbEntity
  8
0
 62
7
100
AcDbSpline
 70
0
 71
3
 72
19
 73
15
 74
13
 40
0.000000
 40
0.000000
 40
0.000000
 40
0.000000
 40
0.033519
 40
0.060202
 40
0.097363
 40
0.120946
 40
0.137503
 40
0.154595
 40
0.197772
 40
0.228252
 40
0.262259
 40
0.299420
 40
0.326103
 40
0.359622
 40
0.359622
 40
0.359622
 40
0.359622
 10
1.285714
 20
2.632937
 30
0.0
 10
1.277691
 20
2.641466
 30
0.0
 10
1.263281
 20
2.656785
 30
0.0
 10
1.266991
 20
2.692516
 30
0.0
 10
1.289114
 20
2.713222
 30
0.0
 10
1.308436
 20
2.730088
 30
0.0
 10
1.328079
 20
2.735784
 30
0.0
 10
1.351936
 20
2.723815
 30
0.0
 10
1.376359
 20
2.705474
 30
0.0
 10
1.389667
 20
2.667862
 30
0.0
 10
1.368673
 20
2.637871
 30
0.0
 10
1.345256
 20
2.614422
 30
0.0
 10
1.309574
 20
2.610444
 30
0.0
 10
1.294247
 20
2.624892
 30
0.0
 10
1.285714
 20
2.632937
 30
0.0
 11
1.285714
 21
2.632937
 31
0.0
 11
1.266823
 21
2.660624
 31
0.0
 11
1.268989
 21
2.687220
 31
0.0
 11
1.292480
 21
2.716013
 31
0.0
 11
1.311484
 21
2.729977
 31
0.0
 11
1.327629
 21
2.733651
 31
0.0
 11
1.343635
 21
2.727655
 31
0.0
 11
1.376093
 21
2.699181
 31
0.0
 11
1.384475
 21
2.669877
 31
0.0
 11
1.368791
 21
2.639702
 31
0.0
 11
1.339998
 21
2.616211
 31
0.0
 11
1.313402
 21
2.614045
 31
0.0
 11
1.285714
 21
2.632937
 31
0.0
  0
LWPOLYLINE
  5
143
100
AcDbEntity
  8
0
 62
7
100
AcDbPolyline
 90
2
 70
1
 10
1.285714
 20
2.632937
 30
0.0
 10
1.285714
 20
2.632937
 30
0.0
  0
SPLINE
  5
144
100
AcDbEntity
  8
0
 62
7
100
AcDbSpline
 70
0
 71
3
 72
34
 73
30
 74
28
 40
0.000000
 40
0.000000
 40
0.000000
 40
0.000000
 40
0.116719
 40
0.237914
 40
0.346016
 40
0.433538
 40
0.480450
 40
0.515784
 40
0.622979
 40
0.743986
 40
0.892503
 40
0.957318
 40
0.987890
 40
0.995490
 40
1.013316
 40
1.036405
 40
1.060345
 40
1.131567
 40
1.211955
 40
1.300056
 40
1.343380
 40
1.375395
 40
1.389424
 40
1.403660
 40
1.436228
 40
1.480327
 40
1.556607
 40
1.638866
 40
1.754872
 40
1.754872
 40
1.754872
 40
1.754872
 10
1.168429
 20
2.715278
 30
0.0
 10
1.169828
 20
2.754256
 30
0.0
 10
1.172681
 20
2.833707
 30
0.0
 10
1.196011
 20
2.946548
 30
0.0
 10
1.232840
 20
3.048364
 30
0.0
 10
1.268683
 20
3.114429
 30
0.0
 10
1.313047
 20
3.167220
 30
0.0
 10
1.375014
 20
3.127825
 30
0.0
 10
1.410281
 20
3.047305
 30
0.0
 10
1.450235
 20
2.930281
 30
0.0
 10
1.469382
 20
2.810634
 30
0.0
 10
1.462263
 20
2.743391
 30
0.0
 10
1.477259
 20
2.692825
 30
0.0
 10
1.454594
 20
2.693702
 30
0.0
 10
1.452293
 20
2.713747
 30
0.0
 10
1.445631
 20
2.732822
 30
0.0
 10
1.444107
 20
2.773131
 30
0.0
 10
1.437868
 20
2.830955
 30
0.0
 10
1.411506
 20
2.907589
 30
0.0
 10
1.379523
 20
2.969316
 30
0.0
 10
1.349922
 20
3.017704
 30
0.0
 10
1.334210
 20
3.038119
 30
0.0
 10
1.319696
 20
3.060922
 30
0.0
 10
1.305125
 20
3.037734
 30
0.0
 10
1.289105
 20
3.017071
 30
0.0
 10
1.261485
 20
2.971696
 30
0.0
 10
1.229543
 20
2.913043
 30
0.0
 10
1.202209
 20
2.824870
 30
0.0
 10
1.189362
 20
2.760112
 30
0.0
 10
1.181846
 20
2.722222
 30
0.0
 11
1.168429
 21
2.715278
 31
0.0
 11
1.175801
 21
2.831764
 31
0.0
 11
1.200021
 21
2.950514
 31
0.0
 11
1.237116
 21
3.052052
 31
0.0
 11
1.281154
 21
3.127688
 31
0.0
 11
1.317833
 21
3.156935
 31
0.0
 11
1.349815
 21
3.141914
 31
0.0
 11
1.407034
 21
3.051268
 31
0.0
 11
1.444667
 21
2.936261
 31
0.0
 11
1.465236
 21
2.789176
 31
0.0
 11
1.468962
 21
2.724468
 31
0.0
 11
1.467128
 21
2.693951
 31
0.0
 11
1.459545
 21
2.694444
 31
0.0
 11
1.452113
 21
2.710648
 31
0.0
 11
1.446737
 21
2.733102
 31
0.0
 11
1.444580
 21
2.756944
 31
0.0
 11
1.435703
 21
2.827612
 31
0.0
 11
1.410781
 21
2.904039
 31
0.0
 11
1.370984
 21
2.982639
 31
0.0
 11
1.348006
 21
3.019367
 31
0.0
 11
1.329602
 21
3.045563
 31
0.0
 11
1.319755
 21
3.055556
 31
0.0
 11
1.309790
 21
3.045388
 31
0.0
 11
1.291077
 21
3.018733
 31
0.0
 11
1.267667
 21
2.981360
 31
0.0
 11
1.232617
 21
2.913610
 31
0.0
 11
1.206756
 21
2.835522
 31
0.0
 11
1.181846
 21
2.722222
 31
0.0
  0
LWPOLYLINE
  5
145
100
AcDbEntity
  8
0
 62
7
100
AcDbPolyline
 90
4
 70
1
 10
1.181846
 20
2.722222
 30
0.0
 10
1.169641
 20
2.659722
 30
0.0
 10
1.168429
 20
2.715278
 30
0.0
 10
1.168429
 20
2.715278
 30
0.0
  0
SPLINE
  5
146
100
AcDbEntity
  8
0
 62
7
100
AcDbSpline
 70
0
 71
3
 72
19
 73
15
 74
13
 40
0.000000
 40
0.000000
 40
0.000000
 40
0.000000
 40
0.009342
 40
0.015613
 40
0.021502
 40
0.029445
 40
0.037816
 40
0.045543
 40
0.052315
 40
0.058587
 40
0.064685
 40
0.071140
 40
0.079511
 40
0.089820
 40
0.089820
 40
0.089820
 40
0.089820
 10
0.578704
 20
1.714667
 30
0.0
 10
0.578560
 20
1.717760
 30
0.0
 10
0.578320
 20
1.722930
 30
0.0
 10
0.573544
 20
1.729766
 30
0.0
 10
0.565973
 20
1.727955
 30
0.0
 10
0.561005
 20
1.722376
 30
0.0
 10
0.556861
 20
1.715455
 30
0.0
 10
0.554976
 20
1.707858
 30
0.0
 10
0.556583
 20
1.700823
 30
0.0
 10
0.560895
 20
1.695847
 30
0.0
 10
0.567303
 20
1.693518
 30
0.0
 10
0.574059
 20
1.697162
 30
0.0
 10
0.577874
 20
1.705006
 30
0.0
 10
0.578409
 20
1.711231
 30
0.0
 10
0.578704
 20
1.714667
 30
0.0
 11
0.578704
 21
1.714667
 31
0.0
 11
0.577118
 21
1.723873
 31
0.0
 11
0.572960
 21
1.728568
 31
0.0
 11
0.567130
 21
1.727736
 31
0.0
 11
0.561300
 21
1.722342
 31
0.0
 11
0.557142
 21
1.715077
 31
0.0
 11
0.555556
 21
1.707514
 31
0.0
 11
0.557142
 21
1.700931
 31
0.0
 11
0.561300
 21
1.696235
 31
0.0
 11
0.567130
 21
1.694444
 31
0.0
 11
0.572960
 21
1.697216
 31
0.0
 11
0.577118
 21
1.704481
 31
0.0
 11
0.578704
 21
1.714667
 31
0.0
  0
LWPOLYLINE
  5
147
100
AcDbEntity
  8
0
 62
7
100
AcDbPolyline
 90
2
 70
1
 10
0.578704
 20
1.714667
 30
0.0
 10
0.578704
 20
1.714667
 30
0.0
  0
SPLINE
  5
148
100
AcDbEntity
  8
0
 62
7
100
AcDbSpline
 70
0
 71
3
 72
40
 73
36
 74
34
 40
0.000000
 40
0.000000
 40
0.000000
 40
0.000000
 40
0.112285
 40
0.241152
 40
0.416131
 40
0.442721
 40
0.473624
 40
0.543834
 40
0.605527
 40
0.645655
 40
0.686409
 40
0.780628
 40
0.884752
 40
1.037225
 40
1.146357
 40
1.243338
 40
1.291213
 40
1.306910
 40
1.334372
 40
1.368731
 40
1.442739
 40
1.494748
 40
1.553017
 40
1.638730
 40
1.712065
 40
1.789678
 40
1.836311
 40
1.887205
 40
1.950419
 40
2.035306
 40
2.120648
 40
2.234511
 40
2.402237
 40
2.534246
 40
2.632573
 40
2.632573
 40
2.632573
 40
2.632573
 10
1.631944
 20
0.366535
 30
0.0
 10
1.599858
 20
0.388563
 30
0.0
 10
1.530947
 20
0.435871
 30
0.0
 10
1.517530
 20
0.593405
 30
0.0
 10
1.522243
 20
0.670914
 30
0.0
 10
1.565719
 20
0.778872
 30
0.0
 10
1.563531
 20
0.709303
 30
0.0
 10
1.555338
 20
0.670182
 30
0.0
 10
1.543854
 20
0.609995
 30
0.0
 10
1.544995
 20
0.562289
 30
0.0
 10
1.566715
 20
0.507646
 30
0.0
 10
1.625127
 20
0.441572
 30
0.0
 10
1.752807
 20
0.452125
 30
0.0
 10
1.859488
 20
0.505574
 30
0.0
 10
1.961538
 20
0.580449
 30
0.0
 10
2.010061
 20
0.628685
 30
0.0
 10
2.063377
 20
0.688908
 30
0.0
 10
2.031365
 20
0.703287
 30
0.0
 10
2.006849
 20
0.706960
 30
0.0
 10
1.961208
 20
0.709155
 30
0.0
 10
1.906765
 20
0.709081
 30
0.0
 10
1.852086
 20
0.748017
 30
0.0
 10
1.842711
 20
0.816917
 30
0.0
 10
1.861793
 20
0.890602
 30
0.0
 10
1.934969
 20
0.939527
 30
0.0
 10
2.005328
 20
0.918675
 30
0.0
 10
2.047217
 20
0.877088
 30
0.0
 10
2.071892
 20
0.828607
 30
0.0
 10
2.088217
 20
0.764338
 30
0.0
 10
2.094420
 20
0.684578
 30
0.0
 10
2.053413
 20
0.595847
 30
0.0
 10
1.970027
 20
0.505138
 30
0.0
 10
1.865028
 20
0.418012
 30
0.0
 10
1.742726
 20
0.350188
 30
0.0
 10
1.665087
 20
0.361644
 30
0.0
 10
1.631944
 20
0.366535
 30
0.0
 11
1.631944
 21
0.366535
 31
0.0
 11
1.548940
 21
0.442154
 31
0.0
 11
1.521559
 21
0.568078
 31
0.0
 11
1.550600
 21
0.740630
 31
0.0
 11
1.562402
 21
0.764458
 31
0.0
 11
1.563891
 21
0.733592
 31
0.0
 11
1.554295
 21
0.664041
 31
0.0
 11
1.545209
 21
0.603021
 31
0.0
 11
1.547300
 21
0.562947
 31
0.0
 11
1.561563
 21
0.524770
 31
0.0
 11
1.628063
 21
0.458024
 31
0.0
 11
1.732157
 21
0.455574
 31
0.0
 11
1.871499
 21
0.517476
 31
0.0
 11
1.959591
 21
0.581895
 31
0.0
 11
2.028600
 21
0.650034
 31
0.0
 11
2.049412
 21
0.693149
 31
0.0
 11
2.035704
 21
0.700797
 31
0.0
 11
2.008789
 21
0.706253
 31
0.0
 11
1.974493
 21
0.708333
 31
0.0
 11
1.901156
 21
0.718274
 31
0.0
 11
1.860048
 21
0.750135
 31
0.0
 11
1.847222
 21
0.806974
 31
0.0
 11
1.873107
 21
0.888686
 31
0.0
 11
1.935317
 21
0.927517
 31
0.0
 11
2.010691
 21
0.909010
 31
0.0
 11
2.044287
 21
0.876669
 31
0.0
 11
2.068378
 21
0.831838
 31
0.0
 11
2.084942
 21
0.770833
 31
0.0
 11
2.087173
 21
0.685976
 31
0.0
 11
2.054498
 21
0.607136
 31
0.0
 11
1.981042
 21
0.520136
 31
0.0
 11
1.850951
 21
0.414267
 31
0.0
 11
1.730121
 21
0.361103
 31
0.0
 11
1.631944
 21
0.366535
 31
0.0
  0
LWPOLYLINE
  5
149
100
AcDbEntity
  8
0
 62
7
100
AcDbPolyline
 90
2
 70
1
 10
1.631944
 20
0.366535
 30
0.0
 10
1.631944
 20
0.366535
 30
0.0
  0
SPLINE
  5
14a
100
AcDbEntity
  8
0
 62
7
100
AcDbSpline
 70
0
 71
3
 72
16
 73
12
 74
10
 40
0.000000
 40
0.000000
 40
0.000000
 40
0.000000
 40
0.034931
 40
0.058842
 40
0.086337
 40
0.101474
 40
0.115221
 40
0.152581
 40
0.191442
 40
0.202099
 40
0.222388
 40
0.222388
 40
0.222388
 40
0.222388
 10
1.978349
 20
0.825947
 30
0.0
 10
1.968989
 20
0.833118
 30
0.0
 10
1.953221
 20
0.845197
 30
0.0
 10
1.921173
 20
0.846285
 30
0.0
 10
1.906723
 20
0.831351
 30
0.0
 10
1.890468
 20
0.811740
 30
0.0
 10
1.918529
 20
0.803263
 30
0.0
 10
1.945421
 20
0.808268
 30
0.0
 10
1.973414
 20
0.800630
 30
0.0
 10
1.999897
 20
0.813909
 30
0.0
 10
1.986882
 20
0.821181
 30
0.0
 10
1.978349
 20
0.825948
 30
0.0
 11
1.978349
 21
0.825947
 31
0.0
 11
1.948128
 21
0.843464
 31
0.0
 11
1.924217
 21
0.843603
 31
0.0
 11
1.902778
 21
0.826389
 31
0.0
 11
1.895715
 21
0.813001
 31
0.0
 11
1.908066
 21
0.806964
 31
0.0
 11
1.945398
 21
0.805556
 31
0.0
 11
1.984245
 21
0.806633
 31
0.0
 11
1.993307
 21
0.812241
 31
0.0
 11
1.978349
 21
0.825948
 31
0.0
  0
LWPOLYLINE
  5
14b
100
AcDbEntity
  8
0
 62
7
100
AcDbPolyline
 90
2
 70
1
 10
1.978349
 20
0.825948
 30
0.0
 10
1.978349
 20
0.825947
 30
0.0
  0
SPLINE
  5
14c
100
AcDbEntity
  8
0
 62
7
100
AcDbSpline
 70
0
 71
3
 72
10
 73
6
 74
4
 40
0.000000
 40
0.000000
 40
0.000000
 40
0.000000
 40
0.033691
 40
0.086399
 40
0.140203
 40
0.140203
 40
0.140203
 40
0.140203
 10
1.759259
 20
0.564815
 30
0.0
 10
1.755734
 20
0.575587
 30
0.0
 10
1.746693
 20
0.603210
 30
0.0
 10
1.753788
 20
0.650986
 30
0.0
 10
1.765150
 20
0.684473
 30
0.0
 10
1.770889
 20
0.701389
 30
0.0
 11
1.759259
 21
0.564815
 31
0.0
 11
1.750723
 21
0.597407
 31
0.0
 11
1.755195
 21
0.649924
 31
0.0
 11
1.770889
 21
0.701389
 31
0.0
  0
LWPOLYLINE
  5
14d
100
AcDbEntity
  8
0
 62
7
100
AcDbPolyline
 90
3
 70
1
 10
1.770889
 20
0.701389
 30
0.0
 10
1.790525
 20
0.743056
 30
0.0
 10
1.781587
 20
0.701389
 30
0.0
  0
SPLINE
  5
14e
100
AcDbEntity
  8
0
 62
7
100
AcDbSpline
 70
0
 71
3
 72
19
 73
15
 74
13
 40
0.000000
 40
0.000000
 40
0.000000
 40
0.000000
 40
0.059096
 40
0.089148
 40
0.109750
 40
0.123044
 40
0.131460
 40
0.142853
 40
0.154706
 40
0.164604
 40
0.170452
 40
0.181657
 40
0.201755
 40
0.219866
 40
0.219866
 40
0.219866
 40
0.219866
 10
1.781587
 20
0.701389
 30
0.0
 10
1.777986
 20
0.683042
 30
0.0
 10
1.772552
 20
0.655365
 30
0.0
 10
1.769879
 20
0.612026
 30
0.0
 10
1.793776
 20
0.604843
 30
0.0
 10
1.808192
 20
0.607635
 30
0.0
 10
1.817393
 20
0.598476
 30
0.0
 10
1.813241
 20
0.587336
 30
0.0
 10
1.809808
 20
0.577218
 30
0.0
 10
1.806395
 20
0.568672
 30
0.0
 10
1.806284
 20
0.558995
 30
0.0
 10
1.792223
 20
0.553906
 30
0.0
 10
1.776128
 20
0.556084
 30
0.0
 10
1.764684
 20
0.562007
 30
0.0
 10
1.759259
 20
0.564815
 30
0.0
 11
1.781587
 21
0.701389
 31
0.0
 11
1.772215
 21
0.643041
 31
0.0
 11
1.776746
 21
0.613332
 31
0.0
 11
1.796094
 21
0.606255
 31
0.0
 11
1.809344
 21
0.605168
 31
0.0
 11
1.815103
 21
0.599032
 31
0.0
 11
1.813455
 21
0.587758
 31
0.0
 11
1.809476
 21
0.576593
 31
0.0
 11
1.806638
 21
0.567111
 31
0.0
 11
1.805556
 21
0.561364
 31
0.0
 11
1.795801
 21
0.555850
 31
0.0
 11
1.775758
 21
0.557344
 31
0.0
 11
1.759259
 21
0.564815
 31
0.0
  0
LWPOLYLINE
  5
14f
100
AcDbEntity
  8
0
 62
7
100
AcDbPolyline
 90
2
 70
1
 10
1.759259
 20
0.564815
 30
0.0
 10
1.759259
 20
0.564815
 30
0.0
  0
SPLINE
  5
150
100
AcDbEntity
  8
0
 62
7
100
AcDbSpline
 70
0
 71
3
 72
40
 73
36
 74
34
 40
0.000000
 40
0.000000
 40
0.000000
 40
0.000000
 40
0.038910
 40
0.067338
 40
0.085903
 40
0.116853
 40
0.146111
 40
0.174376
 40
0.186905
 40
0.196656
 40
0.202034
 40
0.232970
 40
0.276524
 40
0.327213
 40
0.358640
 40
0.381608
 40
0.391272
 40
0.401362
 40
0.427563
 40
0.464362
 40
0.508054
 40
0.541304
 40
0.566343
 40
0.594572
 40
0.615538
 40
0.642167
 40
0.651738
 40
0.658551
 40
0.666693
 40
0.689189
 40
0.729943
 40
0.801715
 40
0.878366
 40
0.900976
 40
0.961630
 40
0.961630
 40
0.961630
 40
0.961630
 10
2.166687
 20
0.881903
 30
0.0
 10
2.160615
 20
0.893248
 30
0.0
 10
2.150107
 20
0.912883
 30
0.0
 10
2.132539
 20
0.936963
 30
0.0
 10
2.107827
 20
0.946512
 30
0.0
 10
2.080807
 20
0.949936
 30
0.0
 10
2.060951
 20
0.975603
 30
0.0
 10
2.060693
 20
1.000772
 30
0.0
 10
2.068537
 20
1.015728
 30
0.0
 10
2.072903
 20
1.023970
 30
0.0
 10
2.086019
 20
1.033358
 30
0.0
 10
2.113358
 20
1.012323
 30
0.0
 10
2.141691
 20
0.986550
 30
0.0
 10
2.164103
 20
0.950384
 30
0.0
 10
2.180712
 20
0.917254
 30
0.0
 10
2.189445
 20
0.902856
 30
0.0
 10
2.200685
 20
0.884196
 30
0.0
 10
2.200805
 20
0.907930
 30
0.0
 10
2.200417
 20
0.926709
 30
0.0
 10
2.197602
 20
0.964805
 30
0.0
 10
2.195781
 20
1.001779
 30
0.0
 10
2.199535
 20
1.036213
 30
0.0
 10
2.210761
 20
1.062777
 30
0.0
 10
2.231259
 20
1.081483
 30
0.0
 10
2.260130
 20
1.074176
 30
0.0
 10
2.264616
 20
1.052671
 30
0.0
 10
2.263456
 20
1.038066
 30
0.0
 10
2.255949
 20
1.031919
 30
0.0
 10
2.244071
 20
1.038865
 30
0.0
 10
2.215647
 20
1.034909
 30
0.0
 10
2.215692
 20
0.979265
 30
0.0
 10
2.210871
 20
0.923393
 30
0.0
 10
2.237085
 20
0.859035
 30
0.0
 10
2.187260
 20
0.816898
 30
0.0
 10
2.175358
 20
0.854507
 30
0.0
 10
2.166687
 20
0.881903
 30
0.0
 11
2.166687
 21
0.881903
 31
0.0
 11
2.147382
 21
0.915686
 31
0.0
 11
2.128586
 21
0.937014
 31
0.0
 11
2.111573
 21
0.944444
 31
0.0
 11
2.082113
 21
0.953933
 31
0.0
 11
2.064013
 21
0.976920
 31
0.0
 11
2.063746
 21
1.005184
 31
0.0
 11
2.068987
 21
1.016565
 31
0.0
 11
2.074390
 21
1.024682
 31
0.0
 11
2.078788
 21
1.027778
 31
0.0
 11
2.107549
 21
1.016385
 31
0.0
 11
2.139110
 21
0.986370
 31
0.0
 11
2.166904
 21
0.943980
 31
0.0
 11
2.181654
 21
0.916230
 31
0.0
 11
2.193308
 21
0.896438
 31
0.0
 11
2.199342
 21
0.888889
 31
0.0
 11
2.200741
 21
0.898881
 31
0.0
 11
2.200244
 21
0.925077
 31
0.0
 11
2.197958
 21
0.961806
 31
0.0
 11
2.196924
 21
1.005485
 31
0.0
 11
2.201601
 21
1.038405
 31
0.0
 11
2.212070
 21
1.061150
 31
0.0
 11
2.234959
 21
1.077670
 31
0.0
 11
2.255182
 21
1.072137
 31
0.0
 11
2.263889
 21
1.046972
 31
0.0
 11
2.261821
 21
1.037627
 31
0.0
 11
2.256321
 21
1.033606
 31
0.0
 11
2.248448
 21
1.035682
 31
0.0
 11
2.226105
 21
1.033067
 31
0.0
 11
2.215301
 21
0.993771
 31
0.0
 11
2.217199
 21
0.922025
 31
0.0
 11
2.217854
 21
0.845376
 31
0.0
 11
2.200149
 21
0.831313
 31
0.0
 11
2.166687
 21
0.881903
 31
0.0
  0
LWPOLYLINE
  5
151
100
AcDbEntity
  8
0
 62
7
100
AcDbPolyline
 90
2
 70
1
 10
2.166687
 20
0.881903
 30
0.0
 10
2.166687
 20
0.881903
 30
0.0
  0
SPLINE
  5
152
100
AcDbEntity
  8
0
 62
7
100
AcDbSpline
 70
0
 71
3
 72
28
 73
24
 74
22
 40
0.000000
 40
0.000000
 40
0.000000
 40
0.000000
 40
0.044078
 40
0.068714
 40
0.090706
 40
0.102454
 40
0.118557
 40
0.139639
 40
0.172782
 40
0.194256
 40
0.223313
 40
0.237028
 40
0.241073
 40
0.255713
 40
0.270624
 40
0.285521
 40
0.317986
 40
0.353042
 40
0.366521
 40
0.386530
 40
0.413431
 40
0.429684
 40
0.466533
 40
0.466533
 40
0.466533
 40
0.466533
 10
0.554717
 20
0.852708
 30
0.0
 10
0.568008
 20
0.857717
 30
0.0
 10
0.588729
 20
0.865527
 30
0.0
 10
0.614812
 20
0.890511
 30
0.0
 10
0.600041
 20
0.911541
 30
0.0
 10
0.582564
 20
0.912861
 30
0.0
 10
0.568118
 20
0.903522
 30
0.0
 10
0.553039
 20
0.886358
 30
0.0
 10
0.536166
 20
0.864068
 30
0.0
 10
0.501714
 20
0.870373
 30
0.0
 10
0.502621
 20
0.893103
 30
0.0
 10
0.497056
 20
0.913448
 30
0.0
 10
0.509589
 20
0.915749
 30
0.0
 10
0.512728
 20
0.901731
 30
0.0
 10
0.524283
 20
0.888904
 30
0.0
 10
0.544995
 20
0.902002
 30
0.0
 10
0.561272
 20
0.922622
 30
0.0
 10
0.574456
 20
0.946349
 30
0.0
 10
0.600001
 20
0.956604
 30
0.0
 10
0.607482
 20
0.934545
 30
0.0
 10
0.625303
 20
0.908390
 30
0.0
 10
0.641344
 20
0.940052
 30
0.0
 10
0.632663
 20
0.956094
 30
0.0
 10
0.626639
 20
0.967227
 30
0.0
 11
0.554717
 21
0.852708
 31
0.0
 11
0.594196
 21
0.872311
 31
0.0
 11
0.608536
 21
0.892343
 31
0.0
 11
0.596050
 21
0.910447
 31
0.0
 11
0.584365
 21
0.911669
 31
0.0
 11
0.570151
 21
0.904101
 31
0.0
 11
0.555556
 21
0.888889
 31
0.0
 11
0.529767
 21
0.868070
 31
0.0
 11
0.508723
 21
0.872342
 31
0.0
 11
0.500213
 21
0.900125
 31
0.0
 11
0.501263
 21
0.913800
 31
0.0
 11
0.505234
 21
0.914569
 31
0.0
 11
0.513910
 21
0.902778
 31
0.0
 11
0.524828
 21
0.892621
 31
0.0
 11
0.538519
 21
0.898494
 31
0.0
 11
0.560218
 21
0.922641
 31
0.0
 11
0.583283
 21
0.949040
 31
0.0
 11
0.596218
 21
0.952833
 31
0.0
 11
0.607979
 21
0.936645
 31
0.0
 11
0.626939
 21
0.917561
 31
0.0
 11
0.635404
 21
0.931435
 31
0.0
 11
0.626639
 21
0.967227
 31
0.0
  0
LWPOLYLINE
  5
153
100
AcDbEntity
  8
0
 62
7
100
AcDbPolyline
 90
3
 70
1
 10
0.626639
 20
0.967227
 30
0.0
 10
0.609877
 20
1.004015
 30
0.0
 10
0.571540
 20
0.967285
 30
0.0
  0
SPLINE
  5
154
100
AcDbEntity
  8
0
 62
7
100
AcDbSpline
 70
0
 71
3
 72
31
 73
27
 74
25
 40
0.000000
 40
0.000000
 40
0.000000
 40
0.000000
 40
0.047106
 40
0.072211
 40
0.096947
 40
0.109291
 40
0.116158
 40
0.130459
 40
0.148144
 40
0.170221
 40
0.199219
 40
0.230050
 40
0.237583
 40
0.254235
 40
0.274813
 40
0.300171
 40
0.325059
 40
0.351544
 40
0.368622
 40
0.391095
 40
0.413874
 40
0.440779
 40
0.466752
 40
0.512734
 40
0.548139
 40
0.610025
 40
0.610025
 40
0.610025
 40
0.610025
 10
0.571540
 20
0.967285
 30
0.0
 10
0.560840
 20
0.956434
 30
0.0
 10
0.544437
 20
0.939799
 30
0.0
 10
0.507715
 20
0.927241
 30
0.0
 10
0.496764
 20
0.947875
 30
0.0
 10
0.489150
 20
0.963283
 30
0.0
 10
0.499689
 20
0.971523
 30
0.0
 10
0.512466
 20
0.964120
 30
0.0
 10
0.530925
 20
0.964744
 30
0.0
 10
0.551711
 20
0.975883
 30
0.0
 10
0.570422
 20
0.996762
 30
0.0
 10
0.587588
 20
1.008451
 30
0.0
 10
0.594952
 20
1.031296
 30
0.0
 10
0.572699
 20
1.017583
 30
0.0
 10
0.556191
 20
1.014897
 30
0.0
 10
0.531635
 20
1.009590
 30
0.0
 10
0.506632
 20
1.008104
 30
0.0
 10
0.483147
 20
1.006619
 30
0.0
 10
0.462990
 20
1.019992
 30
0.0
 10
0.461368
 20
1.042254
 30
0.0
 10
0.454397
 20
1.064938
 30
0.0
 10
0.442586
 20
1.087878
 30
0.0
 10
0.423011
 20
1.112719
 30
0.0
 10
0.394394
 20
1.146245
 30
0.0
 10
0.432997
 20
1.189375
 30
0.0
 10
0.466326
 20
1.189442
 30
0.0
 10
0.487526
 20
1.189485
 30
0.0
 11
0.571540
 21
0.967285
 31
0.0
 11
0.534780
 21
0.937829
 31
0.0
 11
0.510138
 21
0.933027
 31
0.0
 11
0.494629
 21
0.952297
 31
0.0
 11
0.492070
 21
0.964373
 31
0.0
 11
0.497383
 21
0.968723
 31
0.0
 11
0.511434
 21
0.966057
 31
0.0
 11
0.529118
 21
0.965877
 31
0.0
 11
0.548914
 21
0.975649
 31
0.0
 11
0.570374
 21
0.995151
 31
0.0
 11
0.590528
 21
1.018483
 31
0.0
 11
0.592251
 21
1.025816
 31
0.0
 11
0.576389
 21
1.020748
 31
0.0
 11
0.556687
 21
1.014807
 31
0.0
 11
0.531739
 21
1.010266
 31
0.0
 11
0.506944
 21
1.008107
 31
0.0
 11
0.480529
 21
1.010025
 31
0.0
 11
0.466696
 21
1.020040
 31
0.0
 11
0.460588
 21
1.041667
 31
0.0
 11
0.454174
 21
1.063524
 31
0.0
 11
0.441867
 21
1.087450
 31
0.0
 11
0.426331
 21
1.108263
 31
0.0
 11
0.405499
 21
1.149256
 31
0.0
 11
0.426805
 21
1.177534
 31
0.0
 11
0.487526
 21
1.189485
 31
0.0
  0
LWPOLYLINE
  5
155
100
AcDbEntity
  8
0
 62
7
100
AcDbPolyline
 90
3
 70
1
 10
0.487526
 20
1.189485
 30
0.0
 10
0.548611
 20
1.191471
 30
0.0
 10
0.493190
 20
1.182541
 30
0.0
  0
SPLINE
  5
156
100
AcDbEntity
  8
0
 62
7
100
AcDbSpline
 70
0
 71
3
 72
88
 73
84
 74
82
 40
0.000000
 40
0.000000
 40
0.000000
 40
0.000000
 40
0.053590
 40
0.081810
 40
0.134635
 40
0.164107
 40
0.188255
 40
0.203241
 40
0.214033
 40
0.220416
 40
0.236583
 40
0.259859
 40
0.272621
 40
0.291300
 40
0.319108
 40
0.356726
 40
0.397015
 40
0.418550
 40
0.424354
 40
0.439474
 40
0.468487
 40
0.495960
 40
0.532029
 40
0.567085
 40
0.591693
 40
0.608491
 40
0.615963
 40
0.624456
 40
0.634280
 40
0.646721
 40
0.662104
 40
0.678004
 40
0.694944
 40
0.704362
 40
0.723585
 40
0.741963
 40
0.754943
 40
0.770941
 40
0.785798
 40
0.792770
 40
0.804850
 40
0.817626
 40
0.830840
 40
0.843694
 40
0.910474
 40
0.940833
 40
0.999913
 40
1.045155
 40
1.069234
 40
1.100190
 40
1.115166
 40
1.126675
 40
1.134981
 40
1.144189
 40
1.160701
 40
1.187550
 40
1.226368
 40
1.246272
 40
1.281296
 40
1.296041
 40
1.305755
 40
1.322508
 40
1.350772
 40
1.374432
 40
1.403499
 40
1.417802
 40
1.427218
 40
1.437035
 40
1.446906
 40
1.457598
 40
1.471251
 40
1.486655
 40
1.503698
 40
1.519487
 40
1.537299
 40
1.561148
 40
1.587288
 40
1.614314
 40
1.640281
 40
1.660475
 40
1.673051
 40
1.681376
 40
1.708219
 40
1.708219
 40
1.708219
 40
1.708219
 10
0.493190
 20
1.182541
 30
0.0
 10
0.472864
 20
1.180826
 30
0.0
 10
0.441835
 20
1.178208
 30
0.0
 10
0.431065
 20
1.124537
 30
0.0
 10
0.473657
 20
1.107776
 30
0.0
 10
0.502022
 20
1.089287
 30
0.0
 10
0.520060
 20
1.073714
 30
0.0
 10
0.528406
 20
1.060350
 30
0.0
 10
0.528876
 20
1.045886
 30
0.0
 10
0.515506
 20
1.046003
 30
0.0
 10
0.505574
 20
1.057957
 30
0.0
 10
0.490275
 20
1.069461
 30
0.0
 10
0.469064
 20
1.061244
 30
0.0
 10
0.478997
 20
1.036571
 30
0.0
 10
0.505747
 20
1.026404
 30
0.0
 10
0.542816
 20
1.028761
 30
0.0
 10
0.570518
 20
1.045789
 30
0.0
 10
0.593130
 20
1.055229
 30
0.0
 10
0.595999
 20
1.072152
 30
0.0
 10
0.571740
 20
1.065710
 30
0.0
 10
0.549888
 20
1.077213
 30
0.0
 10
0.542673
 20
1.111197
 30
0.0
 10
0.561611
 20
1.141169
 30
0.0
 10
0.586081
 20
1.159432
 30
0.0
 10
0.612759
 20
1.172013
 30
0.0
 10
0.627289
 20
1.155900
 30
0.0
 10
0.622765
 20
1.144967
 30
0.0
 10
0.615309
 20
1.139858
 30
0.0
 10
0.604939
 20
1.139003
 30
0.0
 10
0.592640
 20
1.136333
 30
0.0
 10
0.579771
 20
1.128485
 30
0.0
 10
0.569163
 20
1.117423
 30
0.0
 10
0.556952
 20
1.106033
 30
0.0
 10
0.564338
 20
1.090001
 30
0.0
 10
0.581573
 20
1.088612
 30
0.0
 10
0.597829
 20
1.083341
 30
0.0
 10
0.607745
 20
1.069166
 30
0.0
 10
0.604507
 20
1.054134
 30
0.0
 10
0.598181
 20
1.041977
 30
0.0
 10
0.605628
 20
1.030750
 30
0.0
 10
0.617655
 20
1.036311
 30
0.0
 10
0.627862
 20
1.042654
 30
0.0
 10
0.635224
 20
1.054286
 30
0.0
 10
0.638667
 20
1.085095
 30
0.0
 10
0.622681
 20
1.127109
 30
0.0
 10
0.675666
 20
1.162896
 30
0.0
 10
0.710901
 20
1.117529
 30
0.0
 10
0.743654
 20
1.092986
 30
0.0
 10
0.745611
 20
1.050399
 30
0.0
 10
0.714742
 20
1.051841
 30
0.0
 10
0.696515
 20
1.052334
 30
0.0
 10
0.685023
 20
1.049058
 30
0.0
 10
0.678315
 20
1.039550
 30
0.0
 10
0.688004
 20
1.029364
 30
0.0
 10
0.706319
 20
1.030857
 30
0.0
 10
0.732302
 20
1.033125
 30
0.0
 10
0.764419
 20
1.043369
 30
0.0
 10
0.786695
 20
1.012167
 30
0.0
 10
0.765609
 20
0.992664
 30
0.0
 10
0.749887
 20
0.978514
 30
0.0
 10
0.753616
 20
0.963174
 30
0.0
 10
0.771457
 20
0.955799
 30
0.0
 10
0.790061
 20
0.940251
 30
0.0
 10
0.792192
 20
0.910255
 30
0.0
 10
0.776010
 20
0.892594
 30
0.0
 10
0.762248
 20
0.881967
 30
0.0
 10
0.749710
 20
0.880120
 30
0.0
 10
0.743471
 20
0.888632
 30
0.0
 10
0.736236
 20
0.896092
 30
0.0
 10
0.723796
 20
0.896403
 30
0.0
 10
0.711944
 20
0.890421
 30
0.0
 10
0.697574
 20
0.884866
 30
0.0
 10
0.681333
 20
0.882677
 30
0.0
 10
0.664681
 20
0.885892
 30
0.0
 10
0.645260
 20
0.885389
 30
0.0
 10
0.623923
 20
0.876786
 30
0.0
 10
0.602506
 20
0.862468
 30
0.0
 10
0.581266
 20
0.847419
 30
0.0
 10
0.557071
 20
0.837614
 30
0.0
 10
0.541880
 20
0.833867
 30
0.0
 10
0.519402
 20
0.834578
 30
0.0
 10
0.536718
 20
0.848348
 30
0.0
 10
0.546926
 20
0.850820
 30
0.0
 10
0.554717
 20
0.852708
 30
0.0
 11
0.493190
 21
1.182541
 31
0.0
 11
0.442719
 21
1.164526
 31
0.0
 11
0.437606
 21
1.136773
 31
0.0
 11
0.478626
 21
1.103487
 31
0.0
 11
0.503384
 21
1.087498
 31
0.0
 11
0.521042
 21
1.071028
 31
0.0
 11
0.527778
 21
1.057641
 31
0.0
 11
0.526122
 21
1.046977
 31
0.0
 11
0.519762
 21
1.046434
 31
0.0
 11
0.506609
 21
1.055834
 31
0.0
 11
0.485772
 21
1.066208
 31
0.0
 11
0.474235
 21
1.060753
 31
0.0
 11
0.478596
 21
1.042591
 31
0.0
 11
0.503012
 21
1.029282
 31
0.0
 11
0.540570
 21
1.031407
 31
0.0
 11
0.577207
 21
1.048169
 31
0.0
 11
0.593864
 21
1.061818
 31
0.0
 11
0.594479
 21
1.067590
 31
0.0
 11
0.579425
 21
1.069003
 31
0.0
 11
0.552804
 21
1.080538
 31
0.0
 11
0.546551
 21
1.107290
 31
0.0
 11
0.562968
 21
1.139406
 31
0.0
 11
0.590673
 21
1.160885
 31
0.0
 11
0.614729
 21
1.166070
 31
0.0
 11
0.625000
 21
1.152778
 31
0.0
 11
0.622378
 21
1.145782
 31
0.0
 11
0.615505
 21
1.140792
 31
0.0
 11
0.605867
 21
1.138889
 31
0.0
 11
0.593781
 21
1.135938
 31
0.0
 11
0.580486
 21
1.128200
 31
0.0
 11
0.568861
 21
1.117353
 31
0.0
 11
0.559688
 21
1.103110
 31
0.0
 11
0.563382
 21
1.094447
 31
0.0
 11
0.581439
 21
1.087853
 31
0.0
 11
0.598358
 21
1.080677
 31
0.0
 11
0.605466
 21
1.069816
 31
0.0
 11
0.603648
 21
1.053921
 31
0.0
 11
0.600774
 21
1.039345
 31
0.0
 11
0.604910
 21
1.033732
 31
0.0
 11
0.616748
 21
1.036142
 31
0.0
 11
0.627251
 21
1.043415
 31
0.0
 11
0.634271
 21
1.054611
 31
0.0
 11
0.636288
 21
1.067305
 31
0.0
 11
0.639631
 21
1.134002
 31
0.0
 11
0.665126
 21
1.150484
 31
0.0
 11
0.714303
 21
1.117743
 31
0.0
 11
0.742097
 21
1.082044
 31
0.0
 11
0.740626
 21
1.058011
 31
0.0
 11
0.710275
 21
1.051920
 31
0.0
 11
0.695305
 21
1.051493
 31
0.0
 11
0.684628
 21
1.047196
 31
0.0
 11
0.680556
 21
1.039957
 31
0.0
 11
0.686134
 21
1.032631
 31
0.0
 11
0.702515
 21
1.030558
 31
0.0
 11
0.729167
 21
1.033806
 31
0.0
 11
0.767985
 21
1.034020
 31
0.0
 11
0.779206
 21
1.017581
 31
0.0
 11
0.760417
 21
0.988024
 31
0.0
 11
0.751711
 21
0.976123
 31
0.0
 11
0.753818
 21
0.966640
 31
0.0
 11
0.767361
 21
0.956778
 31
0.0
 11
0.787545
 21
0.936994
 31
0.0
 11
0.789208
 21
0.913392
 31
0.0
 11
0.772070
 21
0.889915
 31
0.0
 11
0.759998
 21
0.882245
 31
0.0
 11
0.750595
 21
0.881744
 31
0.0
 11
0.743366
 21
0.888386
 31
0.0
 11
0.735837
 21
0.894770
 31
0.0
 11
0.725179
 21
0.895627
 31
0.0
 11
0.712379
 21
0.890877
 31
0.0
 11
0.697902
 21
0.885613
 31
0.0
 11
0.680980
 21
0.883584
 31
0.0
 11
0.665278
 21
0.885228
 31
0.0
 11
0.647479
 21
0.884542
 31
0.0
 11
0.625061
 21
0.876405
 31
0.0
 11
0.602877
 21
0.862578
 31
0.0
 11
0.580124
 21
0.847992
 31
0.0
 11
0.556214
 21
0.837865
 31
0.0
 11
0.536321
 21
0.834390
 31
0.0
 11
0.523960
 21
0.836703
 31
0.0
 11
0.529859
 21
0.842577
 31
0.0
 11
0.554717
 21
0.852708
 31
0.0
  0
LWPOLYLINE
  5
157
100
AcDbEntity
  8
0
 62
7
100
AcDbPolyline
 90
2
 70
1
 10
0.554717
 20
0.852708
 30
0.0
 10
0.554717
 20
0.852708
 30
0.0
  0
SPLINE
  5
158
100
AcDbEntity
  8
0
 62
7
100
AcDbSpline
 70
0
 71
3
 72
37
 73
33
 74
31
 40
0.000000
 40
0.000000
 40
0.000000
 40
0.000000
 40
0.012441
 40
0.021073
 40
0.030750
 40
0.039250
 40
0.049128
 40
0.061977
 40
0.118009
 40
0.157767
 40
0.186656
 40
0.204261
 40
0.212964
 40
0.230232
 40
0.248912
 40
0.258846
 40
0.278085
 40
0.295896
 40
0.314581
 40
0.331011
 40
0.345026
 40
0.354247
 40
0.365979
 40
0.376838
 40
0.385038
 40
0.393769
 40
0.403318
 40
0.408432
 40
0.421203
 40
0.434707
 40
0.445712
 40
0.458785
 40
0.458785
 40
0.458785
 40
0.458785
 10
0.744266
 20
0.915662
 30
0.0
 10
0.747572
 20
0.913014
 30
0.0
 10
0.753170
 20
0.908529
 30
0.0
 10
0.764358
 20
0.908226
 30
0.0
 10
0.771186
 20
0.915298
 30
0.0
 10
0.772841
 20
0.925320
 30
0.0
 10
0.765395
 20
0.934005
 30
0.0
 10
0.740994
 20
0.943784
 30
0.0
 10
0.706413
 20
0.954414
 30
0.0
 10
0.670772
 20
0.978342
 30
0.0
 10
0.657828
 20
1.005809
 30
0.0
 10
0.663693
 20
1.026529
 30
0.0
 10
0.649145
 20
1.035903
 30
0.0
 10
0.636266
 20
1.024589
 30
0.0
 10
0.619873
 20
1.020369
 30
0.0
 10
0.617562
 20
1.001937
 30
0.0
 10
0.632489
 20
0.992381
 30
0.0
 10
0.642798
 20
0.977186
 30
0.0
 10
0.650390
 20
0.960961
 30
0.0
 10
0.653310
 20
0.944866
 30
0.0
 10
0.652645
 20
0.931037
 30
0.0
 10
0.662406
 20
0.921726
 30
0.0
 10
0.673479
 20
0.925576
 30
0.0
 10
0.683331
 20
0.928550
 30
0.0
 10
0.692900
 20
0.924278
 30
0.0
 10
0.695257
 20
0.915571
 30
0.0
 10
0.693188
 20
0.905270
 30
0.0
 10
0.704442
 20
0.904747
 30
0.0
 10
0.710422
 20
0.914419
 30
0.0
 10
0.720518
 20
0.922094
 30
0.0
 10
0.733977
 20
0.923232
 30
0.0
 10
0.740646
 20
0.918325
 30
0.0
 10
0.744266
 20
0.915662
 30
0.0
 11
0.744266
 21
0.915662
 31
0.0
 11
0.754903
 21
0.909209
 31
0.0
 11
0.763534
 21
0.909350
 31
0.0
 11
0.770477
 21
0.916090
 31
0.0
 11
0.771590
 21
0.924517
 31
0.0
 11
0.765797
 21
0.932518
 31
0.0
 11
0.754353
 21
0.938359
 31
0.0
 11
0.702297
 21
0.959090
 31
0.0
 11
0.670792
 21
0.983342
 31
0.0
 11
0.660736
 21
1.010424
 31
0.0
 11
0.659454
 21
1.027983
 31
0.0
 11
0.652137
 21
1.032694
 31
0.0
 11
0.636103
 21
1.026286
 31
0.0
 11
0.620516
 21
1.015989
 31
0.0
 11
0.619249
 21
1.006136
 31
0.0
 11
0.631617
 21
0.991399
 31
0.0
 11
0.642276
 21
0.977129
 31
0.0
 11
0.649878
 21
0.960061
 31
0.0
 11
0.652778
 21
0.943888
 31
0.0
 11
0.655066
 21
0.930061
 31
0.0
 11
0.661985
 21
0.923966
 31
0.0
 11
0.673611
 21
0.925533
 31
0.0
 11
0.684332
 21
0.927258
 31
0.0
 11
0.691703
 21
0.923664
 31
0.0
 11
0.694444
 21
0.915375
 31
0.0
 11
0.695897
 21
0.905937
 31
0.0
 11
0.700980
 21
0.905372
 31
0.0
 11
0.710781
 21
0.913558
 31
0.0
 11
0.721844
 21
0.921302
 31
0.0
 11
0.732828
 21
0.921992
 31
0.0
 11
0.744266
 21
0.915662
 31
0.0
  0
LWPOLYLINE
  5
159
100
AcDbEntity
  8
0
 62
7
100
AcDbPolyline
 90
2
 70
1
 10
0.744266
 20
0.915662
 30
0.0
 10
0.744266
 20
0.915662
 30
0.0
  0
SPLINE
  5
15a
100
AcDbEntity
  8
0
 62
7
100
AcDbSpline
 70
0
 71
3
 72
16
 73
12
 74
10
 40
0.000000
 40
0.000000
 40
0.000000
 40
0.000000
 40
0.014199
 40
0.024878
 40
0.054178
 40
0.081949
 40
0.094227
 40
0.105658
 40
0.131421
 40
0.154336
 40
0.181834
 40
0.181834
 40
0.181834
 40
0.181834
 10
0.749235
 20
0.992133
 30
0.0
 10
0.753417
 20
0.996714
 30
0.0
 10
0.760745
 20
1.004740
 30
0.0
 10
0.739105
 20
1.013226
 30
0.0
 10
0.717889
 20
1.008280
 30
0.0
 10
0.696538
 20
1.009329
 30
0.0
 10
0.675667
 20
1.001680
 30
0.0
 10
0.686533
 20
0.983797
 30
0.0
 10
0.702257
 20
0.972423
 30
0.0
 10
0.730387
 20
0.973024
 30
0.0
 10
0.742583
 20
0.985389
 30
0.0
 10
0.749235
 20
0.992133
 30
0.0
 11
0.749235
 21
0.992133
 31
0.0
 11
0.756158
 21
1.004530
 31
0.0
 11
0.746789
 21
1.009654
 31
0.0
 11
0.717489
 21
1.009494
 31
0.0
 11
0.689890
 21
1.006411
 31
0.0
 11
0.679298
 21
1.000200
 31
0.0
 11
0.683533
 21
0.989583
 31
0.0
 11
0.704471
 21
0.974572
 31
0.0
 11
0.727368
 21
0.975460
 31
0.0
 11
0.749235
 21
0.992133
 31
0.0
  0
LWPOLYLINE
  5
15b
100
AcDbEntity
  8
0
 62
7
100
AcDbPolyline
 90
2
 70
1
 10
0.749235
 20
0.992133
 30
0.0
 10
0.749235
 20
0.992133
 30
0.0
  0
SPLINE
  5
15c
100
AcDbEntity
  8
0
 62
7
100
AcDbSpline
 70
0
 71
3
 72
19
 73
15
 74
13
 40
0.000000
 40
0.000000
 40
0.000000
 40
0.000000
 40
0.007250
 40
0.014307
 40
0.021557
 40
0.028807
 40
0.035864
 40
0.043114
 40
0.050364
 40
0.057420
 40
0.064671
 40
0.071921
 40
0.078977
 40
0.086227
 40
0.086227
 40
0.086227
 40
0.086227
 10
0.680556
 20
1.083333
 30
0.0
 10
0.680170
 20
1.085777
 30
0.0
 10
0.679409
 20
1.090598
 30
0.0
 10
0.673884
 20
1.095902
 30
0.0
 10
0.666680
 20
1.097892
 30
0.0
 10
0.659398
 20
1.095902
 30
0.0
 10
0.654099
 20
1.090598
 30
0.0
 10
0.652108
 20
1.083333
 30
0.0
 10
0.654099
 20
1.076068
 30
0.0
 10
0.659398
 20
1.070765
 30
0.0
 10
0.666680
 20
1.068775
 30
0.0
 10
0.673884
 20
1.070765
 30
0.0
 10
0.679409
 20
1.076068
 30
0.0
 10
0.680170
 20
1.080890
 30
0.0
 10
0.680556
 20
1.083333
 30
0.0
 11
0.680556
 21
1.083333
 31
0.0
 11
0.678652
 21
1.090329
 31
0.0
 11
0.673663
 21
1.095319
 31
0.0
 11
0.666667
 21
1.097222
 31
0.0
 11
0.659671
 21
1.095319
 31
0.0
 11
0.654681
 21
1.090329
 31
0.0
 11
0.652778
 21
1.083333
 31
0.0
 11
0.654681
 21
1.076337
 31
0.0
 11
0.659671
 21
1.071348
 31
0.0
 11
0.666667
 21
1.069444
 31
0.0
 11
0.673663
 21
1.071348
 31
0.0
 11
0.678652
 21
1.076337
 31
0.0
 11
0.680556
 21
1.083333
 31
0.0
  0
LWPOLYLINE
  5
15d
100
AcDbEntity
  8
0
 62
7
100
AcDbPolyline
 90
2
 70
1
 10
0.680556
 20
1.083333
 30
0.0
 10
0.680556
 20
1.083333
 30
0.0
  0
SPLINE
  5
15e
100
AcDbEntity
  8
0
 62
7
100
AcDbSpline
 70
0
 71
3
 72
19
 73
15
 74
13
 40
0.000000
 40
0.000000
 40
0.000000
 40
0.000000
 40
0.009291
 40
0.018533
 40
0.026523
 40
0.033375
 40
0.040227
 40
0.047448
 40
0.055047
 40
0.064289
 40
0.075361
 40
0.085275
 40
0.092127
 40
0.099253
 40
0.099253
 40
0.099253
 40
0.099253
 10
0.729167
 20
1.083333
 30
0.0
 10
0.727254
 20
1.085799
 30
0.0
 10
0.723438
 20
1.090718
 30
0.0
 10
0.715837
 20
1.095468
 30
0.0
 10
0.707940
 20
1.097968
 30
0.0
 10
0.700558
 20
1.095863
 30
0.0
 10
0.695715
 20
1.090511
 30
0.0
 10
0.693524
 20
1.083174
 30
0.0
 10
0.697127
 20
1.075243
 30
0.0
 10
0.705629
 20
1.070543
 30
0.0
 10
0.715693
 20
1.069024
 30
0.0
 10
0.725054
 20
1.069907
 30
0.0
 10
0.732044
 20
1.076141
 30
0.0
 10
0.730138
 20
1.080905
 30
0.0
 10
0.729167
 20
1.083333
 30
0.0
 11
0.729167
 21
1.083333
 31
0.0
 11
0.723052
 21
1.090329
 31
0.0
 11
0.715273
 21
1.095319
 31
0.0
 11
0.707514
 21
1.097222
 31
0.0
 11
0.700931
 21
1.095319
 31
0.0
 11
0.696235
 21
1.090329
 31
0.0
 11
0.694444
 21
1.083333
 31
0.0
 11
0.697412
 21
1.076337
 31
0.0
 11
0.705191
 21
1.071348
 31
0.0
 11
0.716097
 21
1.069444
 31
0.0
 11
0.725828
 21
1.071348
 31
0.0
 11
0.730523
 21
1.076337
 31
0.0
 11
0.729167
 21
1.083333
 31
0.0
  0
LWPOLYLINE
  5
15f
100
AcDbEntity
  8
0
 62
7
100
AcDbPolyline
 90
2
 70
1
 10
0.729167
 20
1.083333
 30
0.0
 10
0.729167
 20
1.083333
 30
0.0
  0
SPLINE
  5
160
100
AcDbEntity
  8
0
 62
7
100
AcDbSpline
 70
0
 71
3
 72
22
 73
18
 74
16
 40
0.000000
 40
0.000000
 40
0.000000
 40
0.000000
 40
0.028533
 40
0.095825
 40
0.191492
 40
0.240435
 40
0.274461
 40
0.287129
 40
0.299110
 40
0.323318
 40
0.355374
 40
0.397609
 40
0.448264
 40
0.496381
 40
0.535624
 40
0.563070
 40
0.573093
 40
0.573093
 40
0.573093
 40
0.573093
 10
1.750000
 20
0.909568
 30
0.0
 10
1.757320
 20
0.915692
 30
0.0
 10
1.781903
 20
0.936256
 30
0.0
 10
1.842835
 20
0.959264
 30
0.0
 10
1.905433
 20
0.987398
 30
0.0
 10
1.965792
 20
1.006362
 30
0.0
 10
1.989546
 20
1.015749
 30
0.0
 10
2.019348
 20
1.016794
 30
0.0
 10
2.000579
 20
1.000897
 30
0.0
 10
1.983377
 20
0.993451
 30
0.0
 10
1.951344
 20
0.980351
 30
0.0
 10
1.912578
 20
0.967082
 30
0.0
 10
1.868432
 20
0.950321
 30
0.0
 10
1.825738
 20
0.933138
 30
0.0
 10
1.789893
 20
0.920266
 30
0.0
 10
1.765871
 20
0.910322
 30
0.0
 10
1.753350
 20
0.909727
 30
0.0
 10
1.750000
 20
0.909568
 30
0.0
 11
1.750000
 21
0.909568
 31
0.0
 11
1.772484
 21
0.927136
 31
0.0
 11
1.833173
 21
0.956205
 31
0.0
 11
1.921925
 21
0.991918
 31
0.0
 11
1.968247
 21
1.007714
 31
0.0
 11
2.001286
 21
1.015853
 31
0.0
 11
2.013889
 21
1.014572
 31
0.0
 11
2.005800
 21
1.005733
 31
0.0
 11
1.984594
 21
0.994059
 31
0.0
 11
1.954861
 21
0.982076
 31
0.0
 11
1.915136
 21
0.967733
 31
0.0
 11
1.867734
 21
0.949873
 31
0.0
 11
1.822917
 21
0.932362
 31
0.0
 11
1.786188
 21
0.918539
 31
0.0
 11
1.759992
 21
0.910351
 31
0.0
 11
1.750000
 21
0.909568
 31
0.0
  0
LWPOLYLINE
  5
161
100
AcDbEntity
  8
0
 62
7
100
AcDbPolyline
 90
2
 70
1
 10
1.750000
 20
0.909568
 30
0.0
 10
1.750000
 20
0.909568
 30
0.0
  0
SPLINE
  5
162
100
AcDbEntity
  8
0
 62
7
100
AcDbSpline
 70
0
 71
3
 72
19
 73
15
 74
13
 40
0.000000
 40
0.000000
 40
0.000000
 40
0.000000
 40
0.023307
 40
0.045567
 40
0.062153
 40
0.076078
 40
0.086056
 40
0.108402
 40
0.143550
 40
0.172689
 40
0.203262
 40
0.234565
 40
0.255301
 40
0.287735
 40
0.287735
 40
0.287735
 40
0.287735
 10
1.152778
 20
0.957197
 30
0.0
 10
1.153025
 20
0.964930
 30
0.0
 10
1.153507
 20
0.980049
 30
0.0
 10
1.156038
 20
1.001098
 30
0.0
 10
1.160217
 20
1.017032
 30
0.0
 10
1.165102
 20
1.032859
 30
0.0
 10
1.182957
 20
1.029920
 30
0.0
 10
1.198304
 20
1.013574
 30
0.0
 10
1.219324
 20
0.992694
 30
0.0
 10
1.223979
 20
0.958305
 30
0.0
 10
1.206911
 20
0.932708
 30
0.0
 10
1.183257
 20
0.911774
 30
0.0
 10
1.152819
 20
0.925926
 30
0.0
 10
1.152793
 20
0.945349
 30
0.0
 10
1.152778
 20
0.957197
 30
0.0
 11
1.152778
 21
0.957197
 31
0.0
 11
1.153877
 21
0.980478
 31
0.0
 11
1.156760
 21
1.002551
 31
0.0
 11
1.160801
 21
1.018637
 31
0.0
 11
1.167731
 21
1.030715
 31
0.0
 11
1.177694
 21
1.030155
 31
0.0
 11
1.195524
 21
1.016687
 31
0.0
 11
1.217062
 21
0.988911
 31
0.0
 11
1.220544
 21
0.959981
 31
0.0
 11
1.205556
 21
0.933333
 31
0.0
 11
1.178838
 21
0.917022
 31
0.0
 11
1.159944
 21
0.925566
 31
0.0
 11
1.152778
 21
0.957197
 31
0.0
  0
LWPOLYLINE
  5
163
100
AcDbEntity
  8
0
 62
7
100
AcDbPolyline
 90
2
 70
1
 10
1.152778
 20
0.957197
 30
0.0
 10
1.152778
 20
0.957197
 30
0.0
  0
SPLINE
  5
164
100
AcDbEntity
  8
0
 62
7
100
AcDbSpline
 70
0
 71
3
 72
19
 73
15
 74
13
 40
0.000000
 40
0.000000
 40
0.000000
 40
0.000000
 40
0.007608
 40
0.016058
 40
0.024728
 40
0.032278
 40
0.040727
 40
0.051894
 40
0.063061
 40
0.071510
 40
0.079060
 40
0.087731
 40
0.096180
 40
0.103788
 40
0.103788
 40
0.103788
 40
0.103788
 10
1.196528
 20
0.965278
 30
0.0
 10
1.196052
 20
0.967817
 30
0.0
 10
1.195047
 20
0.973176
 30
0.0
 10
1.189260
 20
0.979441
 30
0.0
 10
1.182339
 20
0.984205
 30
0.0
 10
1.173143
 20
0.983792
 30
0.0
 10
1.167581
 20
0.975537
 30
0.0
 10
1.166146
 20
0.965278
 30
0.0
 10
1.167581
 20
0.955019
 30
0.0
 10
1.173143
 20
0.946764
 30
0.0
 10
1.182339
 20
0.946350
 30
0.0
 10
1.189260
 20
0.951114
 30
0.0
 10
1.195047
 20
0.957379
 30
0.0
 10
1.196052
 20
0.962738
 30
0.0
 10
1.196528
 20
0.965278
 30
0.0
 11
1.196528
 21
0.965278
 31
0.0
 11
1.194482
 21
0.972606
 31
0.0
 11
1.189118
 21
0.979134
 31
0.0
 11
1.181597
 21
0.983449
 31
0.0
 11
1.174077
 21
0.982784
 31
0.0
 11
1.168713
 21
0.976256
 31
0.0
 11
1.166667
 21
0.965278
 31
0.0
 11
1.168713
 21
0.954300
 31
0.0
 11
1.174077
 21
0.947772
 31
0.0
 11
1.181597
 21
0.947107
 31
0.0
 11
1.189118
 21
0.951421
 31
0.0
 11
1.194482
 21
0.957950
 31
0.0
 11
1.196528
 21
0.965278
 31
0.0
  0
LWPOLYLINE
  5
165
100
AcDbEntity
  8
0
 62
7
100
AcDbPolyline
 90
2
 70
1
 10
1.196528
 20
0.965278
 30
0.0
 10
1.196528
 20
0.965278
 30
0.0
  0
SPLINE
  5
166
100
AcDbEntity
  8
0
 62
7
100
AcDbSpline
 70
0
 71
3
 72
37
 73
33
 74
31
 40
0.000000
 40
0.000000
 40
0.000000
 40
0.000000
 40
0.007728
 40
0.016098
 40
0.024040
 40
0.034325
 40
0.051080
 40
0.071805
 40
0.096659
 40
0.119189
 40
0.143420
 40
0.180245
 40
0.208341
 40
0.228130
 40
0.236744
 40
0.243291
 40
0.248545
 40
0.269361
 40
0.298363
 40
0.317492
 40
0.347049
 40
0.389110
 40
0.425672
 40
0.439834
 40
0.443625
 40
0.455174
 40
0.474496
 40
0.506510
 40
0.544987
 40
0.604333
 40
0.630119
 40
0.642717
 40
0.642717
 40
0.642717
 40
0.642717
 10
1.402778
 20
0.971403
 30
0.0
 10
1.403163
 20
0.973956
 30
0.0
 10
1.403965
 20
0.979276
 30
0.0
 10
1.407954
 20
0.986587
 30
0.0
 10
1.415440
 20
0.991662
 30
0.0
 10
1.420943
 20
1.002476
 30
0.0
 10
1.421970
 20
1.018609
 30
0.0
 10
1.420018
 20
1.039190
 30
0.0
 10
1.418144
 20
1.062174
 30
0.0
 10
1.426410
 20
1.085187
 30
0.0
 10
1.444983
 20
1.107256
 30
0.0
 10
1.470631
 20
1.119305
 30
0.0
 10
1.506327
 20
1.123872
 30
0.0
 10
1.509803
 20
1.098476
 30
0.0
 10
1.501671
 20
1.090226
 30
0.0
 10
1.495215
 20
1.086068
 30
0.0
 10
1.485018
 20
1.091876
 30
0.0
 10
1.465505
 20
1.089200
 30
0.0
 10
1.445983
 20
1.078085
 30
0.0
 10
1.430998
 20
1.048809
 30
0.0
 10
1.472910
 20
1.040212
 30
0.0
 10
1.503771
 20
1.043708
 30
0.0
 10
1.537118
 20
1.049869
 30
0.0
 10
1.547311
 20
1.069358
 30
0.0
 10
1.558746
 20
1.066815
 30
0.0
 10
1.550723
 20
1.051437
 30
0.0
 10
1.539642
 20
1.037602
 30
0.0
 10
1.515239
 20
1.017690
 30
0.0
 10
1.478749
 20
0.992881
 30
0.0
 10
1.447593
 20
0.977818
 30
0.0
 10
1.409839
 20
0.953269
 30
0.0
 10
1.404523
 20
0.966922
 30
0.0
 10
1.402778
 20
0.971403
 30
0.0
 11
1.402778
 21
0.971403
 31
0.0
 11
1.404364
 21
0.978966
 31
0.0
 11
1.408521
 21
0.986231
 31
0.0
 11
1.414351
 21
0.991624
 31
0.0
 11
1.419394
 21
1.000588
 31
0.0
 11
1.421489
 21
1.017211
 31
0.0
 11
1.420183
 21
1.037896
 31
0.0
 11
1.419943
 21
1.062748
 31
0.0
 11
1.427372
 21
1.084018
 31
0.0
 11
1.442814
 21
1.102692
 31
0.0
 11
1.475935
 21
1.118788
 31
0.0
 11
1.503895
 21
1.116021
 31
0.0
 11
1.506434
 21
1.096396
 31
0.0
 11
1.500781
 21
1.089897
 31
0.0
 11
1.494819
 21
1.087191
 31
0.0
 11
1.489839
 21
1.088865
 31
0.0
 11
1.469025
 21
1.088619
 31
0.0
 11
1.444765
 21
1.072725
 31
0.0
 11
1.437931
 21
1.054859
 31
0.0
 11
1.464981
 21
1.042946
 31
0.0
 11
1.507008
 21
1.044652
 31
0.0
 11
1.540625
 21
1.059028
 31
0.0
 11
1.551491
 21
1.068109
 31
0.0
 11
1.555159
 21
1.067149
 31
0.0
 11
1.552761
 21
1.055852
 31
0.0
 11
1.541184
 21
1.040382
 31
0.0
 11
1.516859
 21
1.019568
 31
0.0
 11
1.485052
 21
0.997916
 31
0.0
 11
1.433580
 21
0.968378
 31
0.0
 11
1.409037
 21
0.960469
 31
0.0
 11
1.402778
 21
0.971403
 31
0.0
  0
LWPOLYLINE
  5
167
100
AcDbEntity
  8
0
 62
7
100
AcDbPolyline
 90
2
 70
1
 10
1.402778
 20
0.971403
 30
0.0
 10
1.402778
 20
0.971403
 30
0.0
  0
SPLINE
  5
168
100
AcDbEntity
  8
0
 62
7
100
AcDbSpline
 70
0
 71
3
 72
19
 73
15
 74
13
 40
0.000000
 40
0.000000
 40
0.000000
 40
0.000000
 40
0.006517
 40
0.011970
 40
0.019337
 40
0.028031
 40
0.035299
 40
0.039966
 40
0.043591
 40
0.049045
 40
0.056091
 40
0.063371
 40
0.070639
 40
0.078288
 40
0.078288
 40
0.078288
 40
0.078288
 10
0.763889
 20
1.084153
 30
0.0
 10
0.764144
 20
1.086482
 30
0.0
 10
0.764612
 20
1.090761
 30
0.0
 10
0.771575
 20
1.093556
 30
0.0
 10
0.778356
 20
1.090231
 30
0.0
 10
0.784605
 20
1.085530
 30
0.0
 10
0.789199
 20
1.080816
 30
0.0
 10
0.792612
 20
1.075884
 30
0.0
 10
0.789485
 20
1.071607
 30
0.0
 10
0.784282
 20
1.070026
 30
0.0
 10
0.777714
 20
1.068934
 30
0.0
 10
0.770457
 20
1.070841
 30
0.0
 10
0.765003
 20
1.076565
 30
0.0
 10
0.764267
 20
1.081581
 30
0.0
 10
0.763889
 20
1.084153
 30
0.0
 11
0.763889
 21
1.084153
 31
0.0
 11
0.765792
 21
1.090386
 31
0.0
 11
0.770782
 21
1.092586
 31
0.0
 11
0.777778
 21
1.090278
 31
0.0
 11
0.784774
 21
1.085115
 31
0.0
 11
0.789763
 21
1.079831
 31
0.0
 11
0.791667
 21
1.075569
 31
0.0
 11
0.789763
 21
1.072484
 31
0.0
 11
0.784774
 21
1.070284
 31
0.0
 11
0.777778
 21
1.069444
 31
0.0
 11
0.770782
 21
1.071460
 31
0.0
 11
0.765792
 21
1.076744
 31
0.0
 11
0.763889
 21
1.084153
 31
0.0
  0
LWPOLYLINE
  5
169
100
AcDbEntity
  8
0
 62
7
100
AcDbPolyline
 90
2
 70
1
 10
0.763889
 20
1.084153
 30
0.0
 10
0.763889
 20
1.084153
 30
0.0
  0
SPLINE
  5
16a
100
AcDbEntity
  8
0
 62
7
100
AcDbSpline
 70
0
 71
3
 72
22
 73
18
 74
16
 40
0.000000
 40
0.000000
 40
0.000000
 40
0.000000
 40
0.043635
 40
0.099636
 40
0.140057
 40
0.146245
 40
0.159141
 40
0.186862
 40
0.243397
 40
0.271974
 40
0.298051
 40
0.315825
 40
0.319707
 40
0.341527
 40
0.373684
 40
0.392399
 40
0.416396
 40
0.416396
 40
0.416396
 40
0.416396
 10
1.977012
 20
1.243662
 30
0.0
 10
1.975112
 20
1.258345
 30
0.0
 10
1.970774
 20
1.291872
 30
0.0
 10
1.984314
 20
1.335202
 30
0.0
 10
1.985146
 20
1.374683
 30
0.0
 10
2.008689
 20
1.383505
 30
0.0
 10
2.002537
 20
1.359794
 30
0.0
 10
1.997462
 20
1.334244
 30
0.0
 10
1.985941
 20
1.298188
 30
0.0
 10
1.993205
 20
1.251586
 30
0.0
 10
2.021736
 20
1.259146
 30
0.0
 10
2.035201
 20
1.281934
 30
0.0
 10
2.042553
 20
1.266696
 30
0.0
 10
2.024399
 20
1.251163
 30
0.0
 10
2.017426
 20
1.227810
 30
0.0
 10
1.987417
 20
1.220357
 30
0.0
 10
1.980755
 20
1.235279
 30
0.0
 10
1.977012
 20
1.243662
 30
0.0
 11
1.977012
 21
1.243662
 31
0.0
 11
1.973992
 21
1.287192
 31
0.0
 11
1.982940
 21
1.342474
 31
0.0
 11
1.999009
 21
1.379564
 31
0.0
 11
2.004977
 21
1.381197
 31
0.0
 11
2.004810
 21
1.368302
 31
0.0
 11
1.998512
 21
1.341306
 31
0.0
 11
1.989374
 21
1.285515
 31
0.0
 11
1.998278
 21
1.258360
 31
0.0
 11
2.023272
 21
1.265797
 31
0.0
 11
2.037471
 21
1.276489
 31
0.0
 11
2.039236
 21
1.273032
 31
0.0
 11
2.029564
 21
1.253472
 31
0.0
 11
2.009939
 21
1.227998
 31
0.0
 11
1.991542
 21
1.224564
 31
0.0
 11
1.977012
 21
1.243662
 31
0.0
  0
LWPOLYLINE
  5
16b
100
AcDbEntity
  8
0
 62
7
100
AcDbPolyline
 90
2
 70
1
 10
1.977012
 20
1.243662
 30
0.0
 10
1.977012
 20
1.243662
 30
0.0
  0
SPLINE
  5
16c
100
AcDbEntity
  8
0
 62
7
100
AcDbSpline
 70
0
 71
3
 72
10
 73
6
 74
4
 40
0.000000
 40
0.000000
 40
0.000000
 40
0.000000
 40
0.037707
 40
0.095422
 40
0.147360
 40
0.147360
 40
0.147360
 40
0.147360
 10
0.856481
 20
1.342593
 30
0.0
 10
0.852826
 20
1.354711
 30
0.0
 10
0.843575
 20
1.385378
 30
0.0
 10
0.850099
 20
1.435662
 30
0.0
 10
0.862695
 20
1.469896
 30
0.0
 10
0.868661
 20
1.486111
 30
0.0
 11
0.856481
 21
1.342593
 31
0.0
 11
0.847619
 21
1.379244
 31
0.0
 11
0.852499
 21
1.436751
 31
0.0
 11
0.868661
 21
1.486111
 31
0.0
  0
LWPOLYLINE
  5
16d
100
AcDbEntity
  8
0
 62
7
100
AcDbPolyline
 90
3
 70
1
 10
0.868661
 20
1.486111
 30
0.0
 10
0.889115
 20
1.520833
 30
0.0
 10
0.879493
 20
1.479167
 30
0.0
  0
SPLINE
  5
16e
100
AcDbEntity
  8
0
 62
7
100
AcDbSpline
 70
0
 71
3
 72
19
 73
15
 74
13
 40
0.000000
 40
0.000000
 40
0.000000
 40
0.000000
 40
0.058617
 40
0.088942
 40
0.109753
 40
0.123047
 40
0.131462
 40
0.142856
 40
0.154708
 40
0.164606
 40
0.170454
 40
0.181659
 40
0.201758
 40
0.219869
 40
0.219869
 40
0.219869
 40
0.219869
 10
0.879493
 20
1.479167
 30
0.0
 10
0.875657
 20
1.460994
 30
0.0
 10
0.869836
 20
1.433419
 30
0.0
 10
0.866937
 20
1.390191
 30
0.0
 10
0.890913
 20
1.382569
 30
0.0
 10
0.905416
 20
1.385418
 30
0.0
 10
0.914615
 20
1.376253
 30
0.0
 10
0.910463
 20
1.365114
 30
0.0
 10
0.907031
 20
1.354996
 30
0.0
 10
0.903617
 20
1.346450
 30
0.0
 10
0.903507
 20
1.336773
 30
0.0
 10
0.889445
 20
1.331684
 30
0.0
 10
0.873350
 20
1.333861
 30
0.0
 10
0.861906
 20
1.339785
 30
0.0
 10
0.856481
 20
1.342593
 30
0.0
 11
0.879493
 21
1.479167
 31
0.0
 11
0.869492
 21
1.421409
 31
0.0
 11
0.873853
 21
1.391399
 31
0.0
 11
0.893316
 21
1.384033
 31
0.0
 11
0.906566
 21
1.382945
 31
0.0
 11
0.912325
 21
1.376809
 31
0.0
 11
0.910677
 21
1.365536
 31
0.0
 11
0.906698
 21
1.354371
 31
0.0
 11
0.903860
 21
1.344889
 31
0.0
 11
0.902778
 21
1.339142
 31
0.0
 11
0.893023
 21
1.333628
 31
0.0
 11
0.872980
 21
1.335122
 31
0.0
 11
0.856481
 21
1.342593
 31
0.0
  0
LWPOLYLINE
  5
16f
100
AcDbEntity
  8
0
 62
7
100
AcDbPolyline
 90
2
 70
1
 10
0.856481
 20
1.342593
 30
0.0
 10
0.856481
 20
1.342593
 30
0.0
  0
SPLINE
  5
170
100
AcDbEntity
  8
0
 62
7
100
AcDbSpline
 70
0
 71
3
 72
10
 73
6
 74
4
 40
0.000000
 40
0.000000
 40
0.000000
 40
0.000000
 40
0.025839
 40
0.043181
 40
0.073679
 40
0.073679
 40
0.073679
 40
0.073679
 10
1.035044
 20
1.416311
 30
0.0
 10
1.028431
 20
1.422511
 30
0.0
 10
1.017378
 20
1.432873
 30
0.0
 10
1.017895
 20
1.459432
 30
0.0
 10
1.027934
 20
1.472313
 30
0.0
 10
1.034335
 20
1.480524
 30
0.0
 11
1.035044
 21
1.416311
 31
0.0
 11
1.019269
 21
1.436776
 31
0.0
 11
1.019078
 21
1.454117
 31
0.0
 11
1.034335
 21
1.480524
 31
0.0
  0
LWPOLYLINE
  5
171
100
AcDbEntity
  8
0
 62
7
100
AcDbPolyline
 90
3
 70
1
 10
1.034335
 20
1.480524
 30
0.0
 10
1.058442
 20
1.517316
 30
0.0
 10
1.093140
 20
1.482618
 30
0.0
  0
SPLINE
  5
172
100
AcDbEntity
  8
0
 62
7
100
AcDbSpline
 70
0
 71
3
 72
13
 73
9
 74
7
 40
0.000000
 40
0.000000
 40
0.000000
 40
0.000000
 40
0.031904
 40
0.051581
 40
0.074089
 40
0.106975
 40
0.132546
 40
0.170463
 40
0.170463
 40
0.170463
 40
0.170463
 10
1.093140
 20
1.482618
 30
0.0
 10
1.100894
 20
1.475289
 30
0.0
 10
1.113431
 20
1.463440
 30
0.0
 10
1.122475
 20
1.438387
 30
0.0
 10
1.110717
 20
1.415217
 30
0.0
 10
1.095371
 20
1.390089
 30
0.0
 10
1.058649
 20
1.390329
 30
0.0
 10
1.043870
 20
1.406596
 30
0.0
 10
1.035044
 20
1.416311
 30
0.0
 11
1.093140
 21
1.482618
 31
0.0
 11
1.114015
 21
1.458492
 31
0.0
 11
1.119572
 21
1.439615
 31
0.0
 11
1.112041
 21
1.418404
 31
0.0
 11
1.090441
 21
1.393607
 31
0.0
 11
1.064880
 21
1.392912
 31
0.0
 11
1.035044
 21
1.416311
 31
0.0
  0
LWPOLYLINE
  5
173
100
AcDbEntity
  8
0
 62
7
100
AcDbPolyline
 90
2
 70
1
 10
1.035044
 20
1.416311
 30
0.0
 10
1.035044
 20
1.416311
 30
0.0
  0
SPLINE
  5
174
100
AcDbEntity
  8
0
 62
7
100
AcDbSpline
 70
0
 71
3
 72
16
 73
12
 74
10
 40
0.000000
 40
0.000000
 40
0.000000
 40
0.000000
 40
0.018917
 40
0.064307
 40
0.126645
 40
0.249977
 40
0.295379
 40
0.304627
 40
0.391096
 40
0.526213
 40
0.594648
 40
0.594648
 40
0.594648
 40
0.594648
 10
0.305556
 20
1.415518
 30
0.0
 10
0.310725
 20
1.419171
 30
0.0
 10
0.328297
 20
1.431589
 30
0.0
 10
0.367336
 20
1.446727
 30
0.0
 10
0.442321
 20
1.480264
 30
0.0
 10
0.490946
 20
1.484397
 30
0.0
 10
0.583747
 20
1.540685
 30
0.0
 10
0.568083
 20
1.488092
 30
0.0
 10
0.473915
 20
1.484324
 30
0.0
 10
0.395173
 20
1.434904
 30
0.0
 10
0.328104
 20
1.420396
 30
0.0
 10
0.305556
 20
1.415518
 30
0.0
 11
0.305556
 21
1.415518
 31
0.0
 11
0.321258
 21
1.426068
 31
0.0
 11
0.362423
 21
1.445191
 31
0.0
 11
0.420139
 21
1.468748
 31
0.0
 11
0.535378
 21
1.512688
 31
0.0
 11
0.578744
 21
1.526132
 31
0.0
 11
0.576389
 21
1.517189
 31
0.0
 11
0.498365
 21
1.479919
 31
0.0
 11
0.371868
 21
1.432432
 31
0.0
 11
0.305556
 21
1.415518
 31
0.0
  0
LWPOLYLINE
  5
175
100
AcDbEntity
  8
0
 62
7
100
AcDbPolyline
 90
2
 70
1
 10
0.305556
 20
1.415518
 30
0.0
 10
0.305556
 20
1.415518
 30
0.0
  0
SPLINE
  5
176
100
AcDbEntity
  8
0
 62
7
100
AcDbSpline
 70
0
 71
3
 72
25
 73
21
 74
19
 40
0.000000
 40
0.000000
 40
0.000000
 40
0.000000
 40
0.037628
 40
0.079739
 40
0.127065
 40
0.154571
 40
0.164136
 40
0.213450
 40
0.262431
 40
0.281647
 40
0.297348
 40
0.311529
 40
0.317915
 40
0.330558
 40
0.343242
 40
0.353732
 40
0.359802
 40
0.372680
 40
0.394963
 40
0.417368
 40
0.417368
 40
0.417368
 40
0.417368
 10
1.452875
 20
1.535858
 30
0.0
 10
1.449661
 20
1.547895
 30
0.0
 10
1.442851
 20
1.573404
 30
0.0
 10
1.448406
 20
1.619719
 30
0.0
 10
1.459814
 20
1.644002
 30
0.0
 10
1.473994
 20
1.694250
 30
0.0
 10
1.483769
 20
1.659019
 30
0.0
 10
1.473054
 20
1.626269
 30
0.0
 10
1.471424
 20
1.590861
 30
0.0
 10
1.472788
 20
1.554725
 30
0.0
 10
1.492896
 20
1.559378
 30
0.0
 10
1.503795
 20
1.566723
 30
0.0
 10
1.514494
 20
1.558699
 30
0.0
 10
1.507628
 20
1.547241
 30
0.0
 10
1.504719
 20
1.536439
 30
0.0
 10
1.500967
 20
1.527259
 30
0.0
 10
1.500573
 20
1.517058
 30
0.0
 10
1.485938
 20
1.508714
 30
0.0
 10
1.466936
 20
1.518746
 30
0.0
 10
1.457571
 20
1.530144
 30
0.0
 10
1.452875
 20
1.535858
 30
0.0
 11
1.452875
 21
1.535858
 31
0.0
 11
1.445526
 21
1.572762
 31
0.0
 11
1.449245
 21
1.614709
 31
0.0
 11
1.463856
 21
1.659722
 31
0.0
 11
1.475889
 21
1.684457
 31
0.0
 11
1.478941
 21
1.675392
 31
0.0
 11
1.475136
 21
1.626225
 31
0.0
 11
1.472071
 21
1.577340
 31
0.0
 11
1.477005
 21
1.558768
 31
0.0
 11
1.492619
 21
1.560411
 31
0.0
 11
1.506350
 21
1.563959
 31
0.0
 11
1.511324
 21
1.559954
 31
0.0
 11
1.508491
 21
1.547633
 31
0.0
 11
1.504214
 21
1.535691
 31
0.0
 11
1.501164
 21
1.525655
 31
0.0
 11
1.500000
 21
1.519697
 31
0.0
 11
1.489394
 21
1.512394
 31
0.0
 11
1.468315
 21
1.519623
 31
0.0
 11
1.452875
 21
1.535858
 31
0.0
  0
LWPOLYLINE
  5
177
100
AcDbEntity
  8
0
 62
7
100
AcDbPolyline
 90
2
 70
1
 10
1.452875
 20
1.535858
 30
0.0
 10
1.452875
 20
1.535858
 30
0.0
  0
SPLINE
  5
178
100
AcDbEntity
  8
0
 62
7
100
AcDbSpline
 70
0
 71
3
 72
16
 73
12
 74
10
 40
0.000000
 40
0.000000
 40
0.000000
 40
0.000000
 40
0.027660
 40
0.054958
 40
0.077353
 40
0.096931
 40
0.116191
 40
0.132434
 40
0.156339
 40
0.189675
 40
0.245361
 40
0.245361
 40
0.245361
 40
0.245361
 10
0.378136
 20
1.572947
 30
0.0
 10
0.374278
 20
1.581332
 30
0.0
 10
0.366613
 20
1.597992
 30
0.0
 10
0.350421
 20
1.618638
 30
0.0
 10
0.331329
 20
1.631845
 30
0.0
 10
0.313097
 20
1.641429
 30
0.0
 10
0.300892
 20
1.655519
 30
0.0
 10
0.290453
 20
1.672603
 30
0.0
 10
0.301691
 20
1.704917
 30
0.0
 10
0.344159
 20
1.675007
 30
0.0
 10
0.360695
 20
1.653601
 30
0.0
 10
0.371039
 20
1.640211
 30
0.0
 11
0.378136
 21
1.572947
 31
0.0
 11
0.365590
 21
1.597597
 31
0.0
 11
0.348400
 21
1.618804
 31
0.0
 11
0.330288
 21
1.631974
 31
0.0
 11
0.313754
 21
1.642459
 31
0.0
 11
0.300703
 21
1.656623
 31
0.0
 11
0.293959
 21
1.671400
 31
0.0
 11
0.302476
 21
1.693735
 31
0.0
 11
0.333378
 21
1.681231
 31
0.0
 11
0.371039
 21
1.640211
 31
0.0
  0
LWPOLYLINE
  5
179
100
AcDbEntity
  8
0
 62
7
100
AcDbPolyline
 90
3
 70
1
 10
0.371039
 20
1.640211
 30
0.0
 10
0.402778
 20
1.593114
 30
0.0
 10
0.402778
 20
1.648069
 30
0.0
  0
SPLINE
  5
17a
100
AcDbEntity
  8
0
 62
7
100
AcDbSpline
 70
0
 71
3
 72
19
 73
15
 74
13
 40
0.000000
 40
0.000000
 40
0.000000
 40
0.000000
 40
0.055914
 40
0.097487
 40
0.122888
 40
0.143987
 40
0.158742
 40
0.183383
 40
0.204034
 40
0.231868
 40
0.286758
 40
0.354088
 40
0.372764
 40
0.418900
 40
0.418900
 40
0.418900
 40
0.418900
 10
0.402778
 20
1.648069
 30
0.0
 10
0.404564
 20
1.666297
 30
0.0
 10
0.407679
 20
1.698076
 30
0.0
 10
0.422868
 20
1.740485
 30
0.0
 10
0.455550
 20
1.749196
 30
0.0
 10
0.474217
 20
1.732018
 30
0.0
 10
0.466704
 20
1.709625
 30
0.0
 10
0.445432
 20
1.705707
 30
0.0
 10
0.421851
 20
1.694729
 30
0.0
 10
0.417116
 20
1.656937
 30
0.0
 10
0.413316
 20
1.609138
 30
0.0
 10
0.427099
 20
1.560316
 30
0.0
 10
0.390698
 20
1.518975
 30
0.0
 10
0.383360
 20
1.550504
 30
0.0
 10
0.378136
 20
1.572947
 30
0.0
 11
0.402778
 21
1.648069
 31
0.0
 11
0.411077
 21
1.703364
 31
0.0
 11
0.431253
 21
1.739712
 31
0.0
 11
0.456226
 21
1.744358
 31
0.0
 11
0.470824
 21
1.729125
 31
0.0
 11
0.466660
 21
1.714970
 31
0.0
 11
0.444444
 21
1.704309
 31
0.0
 11
0.426601
 21
1.693913
 31
0.0
 11
0.418547
 21
1.667269
 31
0.0
 11
0.416667
 21
1.612411
 31
0.0
 11
0.412182
 21
1.545231
 31
0.0
 11
0.399135
 21
1.531868
 31
0.0
 11
0.378136
 21
1.572947
 31
0.0
  0
LWPOLYLINE
  5
17b
100
AcDbEntity
  8
0
 62
7
100
AcDbPolyline
 90
2
 70
1
 10
0.378136
 20
1.572947
 30
0.0
 10
0.378136
 20
1.572947
 30
0.0
  0
SPLINE
  5
17c
100
AcDbEntity
  8
0
 62
7
100
AcDbSpline
 70
0
 71
3
 72
22
 73
18
 74
16
 40
0.000000
 40
0.000000
 40
0.000000
 40
0.000000
 40
0.048346
 40
0.110533
 40
0.154543
 40
0.164360
 40
0.171745
 40
0.194632
 40
0.251225
 40
0.289268
 40
0.309157
 40
0.326020
 40
0.333760
 40
0.357261
 40
0.380290
 40
0.395930
 40
0.418681
 40
0.418681
 40
0.418681
 40
0.418681
 10
1.824213
 20
1.646495
 30
0.0
 10
1.822152
 20
1.662460
 30
0.0
 10
1.817441
 20
1.698959
 30
0.0
 10
1.830653
 20
1.752388
 30
0.0
 10
1.833732
 20
1.784624
 30
0.0
 10
1.856383
 20
1.806218
 30
0.0
 10
1.855041
 20
1.787466
 30
0.0
 10
1.842848
 20
1.765385
 30
0.0
 10
1.835554
 20
1.725668
 30
0.0
 10
1.827462
 20
1.684136
 30
0.0
 10
1.852713
 20
1.666099
 30
0.0
 10
1.869518
 20
1.681493
 30
0.0
 10
1.877051
 20
1.663064
 30
0.0
 10
1.865627
 20
1.647999
 30
0.0
 10
1.857994
 20
1.626033
 30
0.0
 10
1.832956
 20
1.625874
 30
0.0
 10
1.827466
 20
1.638822
 30
0.0
 10
1.824213
 20
1.646496
 30
0.0
 11
1.824213
 21
1.646495
 31
0.0
 11
1.820740
 21
1.694717
 31
0.0
 11
1.830060
 21
1.756201
 31
0.0
 11
1.847000
 21
1.796821
 31
0.0
 11
1.855022
 21
1.802479
 31
0.0
 11
1.855367
 21
1.795102
 31
0.0
 11
1.848095
 21
1.773401
 31
0.0
 11
1.834112
 21
1.718564
 31
0.0
 11
1.836378
 21
1.680588
 31
0.0
 11
1.854166
 21
1.671689
 31
0.0
 11
1.870408
 21
1.676223
 31
0.0
 11
1.873879
 21
1.669305
 31
0.0
 11
1.866569
 21
1.646969
 31
0.0
 11
1.853180
 21
1.628233
 31
0.0
 11
1.837541
 21
1.628058
 31
0.0
 11
1.824213
 21
1.646496
 31
0.0
  0
LWPOLYLINE
  5
17d
100
AcDbEntity
  8
0
 62
7
100
AcDbPolyline
 90
2
 70
1
 10
1.824213
 20
1.646496
 30
0.0
 10
1.824213
 20
1.646495
 30
0.0
  0
SPLINE
  5
17e
100
AcDbEntity
  8
0
 62
7
100
AcDbSpline
 70
0
 71
3
 72
10
 73
6
 74
4
 40
0.000000
 40
0.000000
 40
0.000000
 40
0.000000
 40
0.030228
 40
0.047554
 40
0.078000
 40
0.078000
 40
0.078000
 40
0.078000
 10
2.294902
 20
1.684056
 30
0.0
 10
2.286844
 20
1.690916
 30
0.0
 10
2.274168
 20
1.701708
 30
0.0
 10
2.272767
 20
1.729980
 30
0.0
 10
2.284240
 20
1.742115
 30
0.0
 10
2.291553
 20
1.749849
 30
0.0
 11
2.294902
 21
1.684056
 31
0.0
 11
2.275505
 21
1.707240
 31
0.0
 11
2.274624
 21
1.724543
 31
0.0
 11
2.291553
 21
1.749849
 31
0.0
  0
LWPOLYLINE
  5
17f
100
AcDbEntity
  8
0
 62
7
100
AcDbPolyline
 90
3
 70
1
 10
2.291553
 20
1.749849
 30
0.0
 10
2.317588
 20
1.784364
 30
0.0
 10
2.352257
 20
1.751794
 30
0.0
  0
SPLINE
  5
180
100
AcDbEntity
  8
0
 62
7
100
AcDbSpline
 70
0
 71
3
 72
13
 73
9
 74
7
 40
0.000000
 40
0.000000
 40
0.000000
 40
0.000000
 40
0.031277
 40
0.051312
 40
0.075883
 40
0.110146
 40
0.134613
 40
0.176521
 40
0.176521
 40
0.176521
 40
0.176521
 10
2.352257
 20
1.751794
 30
0.0
 10
2.360145
 20
1.744837
 30
0.0
 10
2.373085
 20
1.733424
 30
0.0
 10
2.381930
 20
1.707638
 30
0.0
 10
2.370396
 20
1.683466
 30
0.0
 10
2.358021
 20
1.654401
 30
0.0
 10
2.319161
 20
1.655429
 30
0.0
 10
2.304291
 20
1.672977
 30
0.0
 10
2.294902
 20
1.684056
 30
0.0
 11
2.352257
 21
1.751794
 31
0.0
 11
2.373335
 21
1.728686
 31
0.0
 11
2.379036
 21
1.709479
 31
0.0
 11
2.371790
 21
1.686001
 31
0.0
 11
2.351817
 21
1.658161
 31
0.0
 11
2.327358
 21
1.657543
 31
0.0
 11
2.294902
 21
1.684056
 31
0.0
  0
LWPOLYLINE
  5
181
100
AcDbEntity
  8
0
 62
7
100
AcDbPolyline
 90
2
 70
1
 10
2.294902
 20
1.684056
 30
0.0
 10
2.294902
 20
1.684056
 30
0.0
  0
SPLINE
  5
182
100
AcDbEntity
  8
0
 62
7
100
AcDbSpline
 70
0
 71
3
 72
28
 73
24
 74
22
 40
0.000000
 40
0.000000
 40
0.000000
 40
0.000000
 40
0.066643
 40
0.159650
 40
0.265833
 40
0.325707
 40
0.335774
 40
0.390025
 40
0.478211
 40
0.551466
 40
0.601406
 40
0.624986
 40
0.639972
 40
0.674872
 40
0.705435
 40
0.713406
 40
0.729243
 40
0.779494
 40
0.830281
 40
0.859354
 40
0.870015
 40
0.887994
 40
0.910144
 40
0.910144
 40
0.910144
 40
0.910144
 10
0.185956
 20
1.757352
 30
0.0
 10
0.179248
 20
1.778630
 30
0.0
 10
0.163178
 20
1.829605
 30
0.0
 10
0.175552
 20
1.922616
 30
0.0
 10
0.210219
 20
1.993107
 30
0.0
 10
0.218540
 20
2.067558
 30
0.0
 10
0.266498
 20
2.072539
 30
0.0
 10
0.214547
 20
1.995365
 30
0.0
 10
0.210140
 20
1.942576
 30
0.0
 10
0.196143
 20
1.866597
 30
0.0
 10
0.207702
 20
1.821365
 30
0.0
 10
0.225121
 20
1.791364
 30
0.0
 10
0.252077
 20
1.796836
 30
0.0
 10
0.270338
 20
1.818458
 30
0.0
 10
0.283702
 20
1.836196
 30
0.0
 10
0.306034
 20
1.844248
 30
0.0
 10
0.288398
 20
1.808470
 30
0.0
 10
0.276853
 20
1.781780
 30
0.0
 10
0.250448
 20
1.748885
 30
0.0
 10
0.227561
 20
1.717096
 30
0.0
 10
0.209417
 20
1.728278
 30
0.0
 10
0.198142
 20
1.740372
 30
0.0
 10
0.190290
 20
1.751313
 30
0.0
 10
0.185956
 20
1.757352
 30
0.0
 11
0.185956
 21
1.757352
 31
0.0
 11
0.169927
 21
1.822039
 31
0.0
 11
0.178729
 21
1.914628
 31
0.0
 11
0.210538
 21
2.015934
 31
0.0
 11
0.238264
 21
2.069002
 31
0.0
 11
0.248291
 21
2.069907
 31
0.0
 11
0.232724
 21
2.017937
 31
0.0
 11
0.207629
 21
1.933396
 31
0.0
 11
0.200914
 21
1.860450
 31
0.0
 11
0.213783
 21
1.812196
 31
0.0
 11
0.229265
 21
1.794411
 31
0.0
 11
0.244140
 21
1.796227
 31
0.0
 11
0.270485
 21
1.819118
 31
0.0
 11
0.293358
 21
1.839388
 31
0.0
 11
0.301071
 21
1.841399
 31
0.0
 11
0.297122
 21
1.826062
 31
0.0
 11
0.274303
 21
1.781291
 31
0.0
 11
0.244430
 21
1.740219
 31
0.0
 11
0.221597
 21
1.722222
 31
0.0
 11
0.212084
 21
1.727036
 31
0.0
 11
0.199280
 21
1.739657
 31
0.0
 11
0.185956
 21
1.757352
 31
0.0
  0
LWPOLYLINE
  5
183
100
AcDbEntity
  8
0
 62
7
100
AcDbPolyline
 90
2
 70
1
 10
0.185956
 20
1.757352
 30
0.0
 10
0.185956
 20
1.757352
 30
0.0
  0
SPLINE
  5
184
100
AcDbEntity
  8
0
 62
7
100
AcDbSpline
 70
0
 71
3
 72
19
 73
15
 74
13
 40
0.000000
 40
0.000000
 40
0.000000
 40
0.000000
 40
0.058029
 40
0.113240
 40
0.158629
 40
0.217707
 40
0.259703
 40
0.280659
 40
0.349908
 40
0.473055
 40
0.598513
 40
0.636081
 40
0.646826
 40
0.710626
 40
0.710626
 40
0.710626
 40
0.710626
 10
0.323953
 20
2.004695
 30
0.0
 10
0.319947
 20
2.023626
 30
0.0
 10
0.312128
 20
2.060570
 30
0.0
 10
0.295448
 20
2.110924
 30
0.0
 10
0.269314
 20
2.157944
 30
0.0
 10
0.247685
 20
2.199513
 30
0.0
 10
0.227988
 20
2.240491
 30
0.0
 10
0.260982
 20
2.283515
 30
0.0
 10
0.311508
 20
2.181627
 30
0.0
 10
0.336859
 20
2.090101
 30
0.0
 10
0.342381
 20
2.027585
 30
0.0
 10
0.346701
 20
1.920695
 30
0.0
 10
0.324675
 20
1.961140
 30
0.0
 10
0.324286
 20
1.984609
 30
0.0
 10
0.323953
 20
2.004695
 30
0.0
 11
0.323953
 21
2.004695
 31
0.0
 11
0.310860
 21
2.061227
 31
0.0
 11
0.292642
 21
2.113346
 31
0.0
 11
0.271870
 21
2.153703
 31
0.0
 11
0.244688
 21
2.206157
 31
0.0
 11
0.236106
 21
2.247266
 31
0.0
 11
0.248867
 21
2.263889
 31
0.0
 11
0.294829
 21
2.212092
 31
0.0
 11
0.332986
 21
2.095006
 31
0.0
 11
0.344614
 21
1.970088
 31
0.0
 11
0.340902
 21
1.932703
 31
0.0
 11
0.335394
 21
1.941929
 31
0.0
 11
0.323953
 21
2.004695
 31
0.0
  0
LWPOLYLINE
  5
185
100
AcDbEntity
  8
0
 62
7
100
AcDbPolyline
 90
2
 70
1
 10
0.323953
 20
2.004695
 30
0.0
 10
0.323953
 20
2.004695
 30
0.0
  0
SPLINE
  5
186
100
AcDbEntity
  8
0
 62
7
100
AcDbSpline
 70
0
 71
3
 72
28
 73
24
 74
22
 40
0.000000
 40
0.000000
 40
0.000000
 40
0.000000
 40
0.111693
 40
0.159851
 40
0.178806
 40
0.213812
 40
0.252727
 40
0.292951
 40
0.331232
 40
0.361279
 40
0.440900
 40
0.470447
 40
0.487770
 40
0.497762
 40
0.523510
 40
0.578084
 40
0.650052
 40
0.725174
 40
0.787979
 40
0.825053
 40
0.833090
 40
0.882831
 40
0.965176
 40
0.965176
 40
0.965176
 40
0.965176
 10
2.215278
 20
2.032802
 30
0.0
 10
2.238501
 20
2.058348
 30
0.0
 10
2.271737
 20
2.094909
 30
0.0
 10
2.331415
 20
2.139987
 30
0.0
 10
2.313760
 20
2.172972
 30
0.0
 10
2.289856
 20
2.193774
 30
0.0
 10
2.291997
 20
2.237111
 30
0.0
 10
2.309711
 20
2.268000
 30
0.0
 10
2.344460
 20
2.303563
 30
0.0
 10
2.377361
 20
2.250788
 30
0.0
 10
2.378924
 20
2.206831
 30
0.0
 10
2.384428
 20
2.166787
 30
0.0
 10
2.385698
 20
2.144764
 30
0.0
 10
2.368554
 20
2.136447
 30
0.0
 10
2.343445
 20
2.121398
 30
0.0
 10
2.304619
 20
2.086997
 30
0.0
 10
2.256174
 20
2.043515
 30
0.0
 10
2.201200
 20
1.989552
 30
0.0
 10
2.167236
 20
1.968657
 30
0.0
 10
2.120404
 20
1.917270
 30
0.0
 10
2.125336
 20
1.954564
 30
0.0
 10
2.168450
 20
1.979245
 30
0.0
 10
2.197295
 20
2.012235
 30
0.0
 10
2.215278
 20
2.032802
 30
0.0
 11
2.215278
 21
2.032802
 31
0.0
 11
2.294768
 21
2.111266
 31
0.0
 11
2.323654
 21
2.149799
 31
0.0
 11
2.315972
 21
2.167128
 31
0.0
 11
2.295440
 21
2.195479
 31
0.0
 11
2.294501
 21
2.234383
 31
0.0
 11
2.313492
 21
2.269841
 31
0.0
 11
2.345000
 21
2.291584
 31
0.0
 11
2.364599
 21
2.268808
 31
0.0
 11
2.381361
 21
2.190972
 31
0.0
 11
2.384565
 21
2.161600
 31
0.0
 11
2.382067
 21
2.144457
 31
0.0
 11
2.373771
 21
2.138889
 31
0.0
 11
2.351650
 21
2.125712
 31
0.0
 11
2.309400
 21
2.091168
 31
0.0
 11
2.256168
 21
2.042735
 31
0.0
 11
2.200750
 21
1.992020
 31
0.0
 11
2.152768
 21
1.951494
 31
0.0
 11
2.122610
 21
1.929932
 31
0.0
 11
2.123454
 21
1.937924
 31
0.0
 11
2.156746
 21
1.974881
 31
0.0
 11
2.215278
 21
2.032802
 31
0.0
  0
LWPOLYLINE
  5
187
100
AcDbEntity
  8
0
 62
7
100
AcDbPolyline
 90
2
 70
1
 10
2.215278
 20
2.032802
 30
0.0
 10
2.215278
 20
2.032802
 30
0.0
  0
SPLINE
  5
188
100
AcDbEntity
  8
0
 62
7
100
AcDbSpline
 70
0
 71
3
 72
19
 73
15
 74
13
 40
0.000000
 40
0.000000
 40
0.000000
 40
0.000000
 40
0.006229
 40
0.014440
 40
0.024031
 40
0.034548
 40
0.044669
 40
0.060862
 40
0.078624
 40
0.085052
 40
0.100237
 40
0.113433
 40
0.124726
 40
0.132299
 40
0.132299
 40
0.132299
 40
0.132299
 10
2.342430
 20
2.245533
 30
0.0
 10
2.340545
 20
2.246515
 30
0.0
 10
2.336178
 20
2.248791
 30
0.0
 10
2.327829
 20
2.247157
 30
0.0
 10
2.319336
 20
2.243639
 30
0.0
 10
2.310803
 20
2.236289
 30
0.0
 10
2.313089
 20
2.222602
 30
0.0
 10
2.323128
 20
2.212543
 30
0.0
 10
2.329562
 20
2.197979
 30
0.0
 10
2.345043
 20
2.199038
 30
0.0
 10
2.344381
 20
2.214484
 30
0.0
 10
2.346724
 20
2.226402
 30
0.0
 10
2.346432
 20
2.237624
 30
0.0
 10
2.343576
 20
2.243268
 30
0.0
 10
2.342430
 20
2.245533
 30
0.0
 11
2.342430
 21
2.245533
 31
0.0
 11
2.336656
 21
2.247873
 31
0.0
 11
2.328488
 21
2.247038
 31
0.0
 11
2.319694
 21
2.243210
 31
0.0
 11
2.312537
 21
2.235504
 31
0.0
 11
2.313358
 21
2.225416
 31
0.0
 11
2.322242
 21
2.211878
 31
0.0
 11
2.334418
 21
2.198946
 31
0.0
 11
2.340812
 21
2.199600
 31
0.0
 11
2.344978
 21
2.214202
 31
0.0
 11
2.346352
 21
2.227326
 31
0.0
 11
2.345436
 21
2.238582
 31
0.0
 11
2.342430
 21
2.245533
 31
0.0
  0
LWPOLYLINE
  5
189
100
AcDbEntity
  8
0
 62
7
100
AcDbPolyline
 90
2
 70
1
 10
2.342430
 20
2.245533
 30
0.0
 10
2.342430
 20
2.245533
 30
0.0
  0
SPLINE
  5
18a
100
AcDbEntity
  8
0
 62
7
100
AcDbSpline
 70
0
 71
3
 72
37
 73
33
 74
31
 40
0.000000
 40
0.000000
 40
0.000000
 40
0.000000
 40
0.131816
 40
0.313229
 40
0.495060
 40
0.690722
 40
0.910813
 40
1.213041
 40
1.496525
 40
1.677903
 40
1.811524
 40
2.040127
 40
2.250086
 40
2.444604
 40
2.500037
 40
2.537397
 40
2.549231
 40
2.650778
 40
2.845560
 40
3.011133
 40
3.268975
 40
3.551618
 40
3.932163
 40
4.206876
 40
4.414786
 40
4.594945
 40
4.781174
 40
4.978716
 40
5.106660
 40
5.144522
 40
5.157566
 40
5.209000
 40
5.209000
 40
5.209000
 40
5.209000
 10
0.428579
 20
2.003472
 30
0.0
 10
0.422442
 20
2.047064
 30
0.0
 10
0.407859
 20
2.150649
 30
0.0
 10
0.417362
 20
2.316253
 30
0.0
 10
0.440440
 20
2.501205
 30
0.0
 10
0.490759
 20
2.694611
 30
0.0
 10
0.576878
 20
2.918224
 30
0.0
 10
0.691797
 20
3.161110
 30
0.0
 10
0.801818
 20
3.391868
 30
0.0
 10
0.883414
 20
3.574036
 30
0.0
 10
0.944749
 20
3.744710
 30
0.0
 10
0.994779
 20
3.928873
 30
0.0
 10
1.034063
 20
4.137031
 30
0.0
 10
1.039826
 20
4.289940
 30
0.0
 10
1.043612
 20
4.386358
 30
0.0
 10
1.041903
 20
4.420364
 30
0.0
 10
1.063611
 20
4.472751
 30
0.0
 10
1.052559
 20
4.255012
 30
0.0
 10
1.056365
 20
4.168562
 30
0.0
 10
1.040619
 20
3.942096
 30
0.0
 10
0.991296
 20
3.719095
 30
0.0
 10
0.888993
 20
3.426122
 30
0.0
 10
0.757484
 20
3.143348
 30
0.0
 10
0.636737
 20
2.881822
 30
0.0
 10
0.556179
 20
2.676301
 30
0.0
 10
0.502984
 20
2.490839
 30
0.0
 10
0.469372
 20
2.310355
 30
0.0
 10
0.460830
 20
2.122331
 30
0.0
 10
0.436017
 20
2.038687
 30
0.0
 10
0.466874
 20
1.938309
 30
0.0
 10
0.432811
 20
1.965067
 30
0.0
 10
0.430457
 20
1.986431
 30
0.0
 10
0.428579
 20
2.003472
 30
0.0
 11
0.428579
 21
2.003472
 31
0.0
 11
0.413816
 21
2.134459
 31
0.0
 11
0.419356
 21
2.315788
 31
0.0
 11
0.443628
 21
2.495991
 31
0.0
 11
0.491993
 21
2.685581
 31
0.0
 11
0.569128
 21
2.891713
 31
0.0
 11
0.694597
 21
3.166667
 31
0.0
 11
0.815237
 21
3.423198
 31
0.0
 11
0.887470
 21
3.589573
 31
0.0
 11
0.932780
 21
3.715278
 31
0.0
 11
0.993384
 21
3.935701
 31
0.0
 11
1.029624
 21
4.142509
 31
0.0
 11
1.041667
 21
4.336653
 31
0.0
 11
1.042873
 21
4.392074
 31
0.0
 11
1.046035
 21
4.429300
 31
0.0
 11
1.050469
 21
4.440271
 31
0.0
 11
1.057437
 21
4.338963
 31
0.0
 11
1.053056
 21
4.144232
 31
0.0
 11
1.040095
 21
3.979167
 31
0.0
 11
0.987959
 21
3.726651
 31
0.0
 11
0.896357
 21
3.459263
 31
0.0
 11
0.742717
 21
3.111111
 31
0.0
 11
0.630260
 21
2.860471
 31
0.0
 11
0.556027
 21
2.666265
 31
0.0
 11
0.506471
 21
2.493056
 31
0.0
 11
0.473924
 21
2.309693
 31
0.0
 11
0.453482
 21
2.113211
 31
0.0
 11
0.453641
 21
1.985267
 31
0.0
 11
0.456925
 21
1.947548
 31
0.0
 11
0.446371
 21
1.955214
 31
0.0
 11
0.428579
 21
2.003472
 31
0.0
  0
LWPOLYLINE
  5
18b
100
AcDbEntity
  8
0
 62
7
100
AcDbPolyline
 90
2
 70
1
 10
0.428579
 20
2.003472
 30
0.0
 10
0.428579
 20
2.003472
 30
0.0
  0
SPLINE
  5
18c
100
AcDbEntity
  8
0
 62
7
100
AcDbSpline
 70
0
 71
3
 72
28
 73
24
 74
22
 40
0.000000
 40
0.000000
 40
0.000000
 40
0.000000
 40
0.304595
 40
0.616636
 40
1.042894
 40
1.201134
 40
1.335145
 40
1.415928
 40
1.686643
 40
1.950081
 40
2.233094
 40
2.380739
 40
2.399260
 40
2.496066
 40
2.861560
 40
3.216311
 40
3.679750
 40
3.966323
 40
4.177761
 40
4.363661
 40
4.567734
 40
4.774142
 40
4.926451
 40
4.926451
 40
4.926451
 40
4.926451
 10
2.134806
 20
2.180556
 30
0.0
 10
2.127494
 20
2.282133
 30
0.0
 10
2.112691
 20
2.487770
 30
0.0
 10
2.008026
 20
2.821860
 30
0.0
 10
1.884013
 20
3.093681
 30
0.0
 10
1.783660
 20
3.311153
 30
0.0
 10
1.732623
 20
3.424548
 30
0.0
 10
1.667812
 20
3.572823
 30
0.0
 10
1.603485
 20
3.768584
 30
0.0
 10
1.547699
 20
4.033792
 30
0.0
 10
1.539917
 20
4.273716
 30
0.0
 10
1.526683
 20
4.409238
 30
0.0
 10
1.536476
 20
4.512120
 30
0.0
 10
1.548800
 20
4.194385
 30
0.0
 10
1.580176
 20
4.057752
 30
0.0
 10
1.699422
 20
3.629598
 30
0.0
 10
1.857400
 20
3.312222
 30
0.0
 10
1.995677
 20
3.020354
 30
0.0
 10
2.080587
 20
2.809037
 30
0.0
 10
2.138479
 20
2.616458
 30
0.0
 10
2.169171
 20
2.419885
 30
0.0
 10
2.184460
 20
2.231830
 30
0.0
 10
2.169287
 20
2.112968
 30
0.0
 10
2.162845
 20
2.062500
 30
0.0
 11
2.134806
 21
2.180556
 31
0.0
 11
2.101381
 21
2.483311
 31
0.0
 11
2.014482
 21
2.783007
 31
0.0
 11
1.846522
 21
3.174780
 31
0.0
 11
1.780520
 21
3.318599
 31
0.0
 11
1.725619
 21
3.440846
 31
0.0
 11
1.693702
 21
3.515058
 31
0.0
 11
1.607710
 21
3.771752
 31
0.0
 11
1.556281
 21
4.030121
 31
0.0
 11
1.535005
 21
4.312333
 31
0.0
 11
1.531629
 21
4.459940
 31
0.0
 11
1.533526
 21
4.478364
 31
0.0
 11
1.542172
 21
4.381944
 31
0.0
 11
1.592151
 21
4.019884
 31
0.0
 11
1.694972
 21
3.680361
 31
0.0
 11
1.882927
 21
3.256747
 31
0.0
 11
2.003240
 21
2.996652
 31
0.0
 11
2.080619
 21
2.799883
 31
0.0
 11
2.132760
 21
2.621444
 31
0.0
 11
2.166586
 21
2.420194
 31
0.0
 11
2.177680
 21
2.214085
 31
0.0
 11
2.162845
 21
2.062500
 31
0.0
  0
LWPOLYLINE
  5
18d
100
AcDbEntity
  8
0
 62
7
100
AcDbPolyline
 90
4
 70
1
 10
2.162845
 20
2.062500
 30
0.0
 10
2.143669
 20
1.993056
 30
0.0
 10
2.134806
 20
2.180556
 30
0.0
 10
2.134806
 20
2.180556
 30
0.0
  0
SPLINE
  5
18e
100
AcDbEntity
  8
0
 62
7
100
AcDbSpline
 70
0
 71
3
 72
28
 73
24
 74
22
 40
0.000000
 40
0.000000
 40
0.000000
 40
0.000000
 40
0.143385
 40
0.270569
 40
0.367354
 40
0.525598
 40
0.723281
 40
1.019753
 40
1.240007
 40
1.418349
 40
1.527019
 40
1.532663
 40
1.556642
 40
1.599927
 40
1.717308
 40
1.850717
 40
2.013199
 40
2.286549
 40
2.471927
 40
2.618893
 40
2.728995
 40
2.861059
 40
3.045702
 40
3.045702
 40
3.045702
 40
3.045702
 10
1.608234
 20
4.535287
 30
0.0
 10
1.637808
 20
4.572892
 30
0.0
 10
1.693614
 20
4.643852
 30
0.0
 10
1.757336
 20
4.748634
 30
0.0
 10
1.810140
 20
4.865621
 30
0.0
 10
1.811881
 20
5.023599
 30
0.0
 10
1.709599
 20
5.221111
 30
0.0
 10
1.553297
 20
5.401675
 30
0.0
 10
1.420011
 20
5.588268
 30
0.0
 10
1.300309
 20
5.717824
 30
0.0
 10
1.308271
 20
5.829919
 30
0.0
 10
1.266491
 20
5.860027
 30
0.0
 10
1.258270
 20
5.821925
 30
0.0
 10
1.234159
 20
5.777898
 30
0.0
 10
1.195360
 20
5.678804
 30
0.0
 10
1.117613
 20
5.567728
 30
0.0
 10
0.995598
 20
5.421059
 30
0.0
 10
0.860517
 20
5.264854
 30
0.0
 10
0.753961
 20
5.090340
 30
0.0
 10
0.724699
 20
4.942319
 30
0.0
 10
0.744287
 20
4.811810
 30
0.0
 10
0.812739
 20
4.684893
 30
0.0
 10
0.878321
 20
4.602198
 30
0.0
 10
0.916556
 20
4.553986
 30
0.0
 11
1.608234
 21
4.535287
 31
0.0
 11
1.694463
 21
4.649846
 31
0.0
 11
1.760059
 21
4.758810
 31
0.0
 11
1.796716
 21
4.848385
 31
0.0
 11
1.800429
 21
5.006585
 31
0.0
 11
1.720184
 21
5.187248
 31
0.0
 11
1.541219
 21
5.423611
 31
0.0
 11
1.406593
 21
5.597931
 31
0.0
 11
1.313033
 21
5.749762
 31
0.0
 11
1.277054
 21
5.852303
 31
0.0
 11
1.272234
 21
5.855239
 31
0.0
 11
1.260294
 21
5.834443
 31
0.0
 11
1.243819
 21
5.794417
 31
0.0
 11
1.194388
 21
5.687951
 31
0.0
 11
1.121505
 21
5.576210
 31
0.0
 11
1.019174
 21
5.450001
 31
0.0
 11
0.848152
 21
5.236760
 31
0.0
 11
0.758556
 21
5.074471
 31
0.0
 11
0.732047
 21
4.929916
 31
0.0
 11
0.748690
 21
4.821079
 31
0.0
 11
0.806878
 21
4.702525
 31
0.0
 11
0.916556
 21
4.553986
 31
0.0
  0
LWPOLYLINE
  5
18f
100
AcDbEntity
  8
0
 62
7
100
AcDbPolyline
 90
3
 70
1
 10
0.916556
 20
4.553986
 30
0.0
 10
0.965057
 20
4.494458
 30
0.0
 10
0.918429
 20
4.521534
 30
0.0
  0
SPLINE
  5
190
100
AcDbEntity
  8
0
 62
7
100
AcDbSpline
 70
0
 71
3
 72
19
 73
15
 74
13
 40
0.000000
 40
0.000000
 40
0.000000
 40
0.000000
 40
0.088947
 40
0.198848
 40
0.302478
 40
0.355144
 40
0.412203
 40
0.484011
 40
0.653953
 40
0.844779
 40
1.137845
 40
1.332425
 40
1.478362
 40
1.612297
 40
1.612297
 40
1.612297
 40
1.612297
 10
0.918429
 20
4.521534
 30
0.0
 10
0.894720
 20
4.539484
 30
0.0
 10
0.841717
 20
4.579610
 30
0.0
 10
0.777110
 20
4.657820
 30
0.0
 10
0.726469
 20
4.731136
 30
0.0
 10
0.698872
 20
4.797140
 30
0.0
 10
0.687108
 20
4.856829
 30
0.0
 10
0.679622
 20
4.955963
 30
0.0
 10
0.688693
 20
5.103633
 30
0.0
 10
0.803334
 20
5.295309
 30
0.0
 10
0.955910
 20
5.461373
 30
0.0
 10
1.096805
 20
5.618726
 30
0.0
 10
1.188174
 20
5.749309
 30
0.0
 10
1.221725
 20
5.836687
 30
0.0
 10
1.237781
 20
5.878502
 30
0.0
 11
0.918429
 21
4.521534
 31
0.0
 11
0.849409
 21
4.577641
 31
0.0
 11
0.777092
 21
4.660395
 31
0.0
 11
0.720957
 21
4.747505
 31
0.0
 11
0.701072
 21
4.796272
 31
0.0
 11
0.689068
 21
4.852054
 31
0.0
 11
0.683062
 21
4.923611
 31
0.0
 11
0.700612
 21
5.092644
 31
0.0
 11
0.789136
 21
5.261695
 31
0.0
 11
0.977617
 21
5.486111
 31
0.0
 11
1.104309
 21
5.633795
 31
0.0
 11
1.184953
 21
5.755426
 31
0.0
 11
1.237781
 21
5.878502
 31
0.0
  0
LWPOLYLINE
  5
191
100
AcDbEntity
  8
0
 62
7
100
AcDbPolyline
 90
3
 70
1
 10
1.237781
 20
5.878502
 30
0.0
 10
1.274218
 20
5.986171
 30
0.0
 10
1.282741
 20
5.934058
 30
0.0
  0
SPLINE
  5
192
100
AcDbEntity
  8
0
 62
7
100
AcDbSpline
 70
0
 71
3
 72
22
 73
18
 74
16
 40
0.000000
 40
0.000000
 40
0.000000
 40
0.000000
 40
0.141837
 40
0.342218
 40
0.646073
 40
0.761136
 40
0.861656
 40
0.938271
 40
1.011823
 40
1.074939
 40
1.167952
 40
1.256355
 40
1.314331
 40
1.367677
 40
1.470854
 40
1.572196
 40
1.666892
 40
1.666892
 40
1.666892
 40
1.666892
 10
1.282741
 20
5.934058
 30
0.0
 10
1.295976
 20
5.888342
 30
0.0
 10
1.327911
 20
5.778041
 30
0.0
 10
1.459654
 20
5.603310
 30
0.0
 10
1.595033
 20
5.448933
 30
0.0
 10
1.708408
 20
5.317910
 30
0.0
 10
1.767225
 20
5.240058
 30
0.0
 10
1.810434
 20
5.168512
 30
0.0
 10
1.841074
 20
5.103788
 30
0.0
 10
1.855170
 20
5.027841
 30
0.0
 10
1.853661
 20
4.946130
 30
0.0
 10
1.853974
 20
4.866465
 30
0.0
 10
1.844969
 20
4.799802
 30
0.0
 10
1.814751
 20
4.734357
 30
0.0
 10
1.768402
 20
4.661906
 30
0.0
 10
1.704173
 20
4.584701
 30
0.0
 10
1.652537
 20
4.544401
 30
0.0
 10
1.627594
 20
4.524934
 30
0.0
 11
1.282741
 21
5.934058
 31
0.0
 11
1.328949
 21
5.799959
 31
0.0
 11
1.439724
 21
5.632981
 31
0.0
 11
1.636229
 21
5.401219
 31
0.0
 11
1.710540
 21
5.313370
 31
0.0
 11
1.770387
 21
5.232607
 31
0.0
 11
1.809840
 21
5.166932
 31
0.0
 11
1.839316
 21
5.099544
 31
0.0
 11
1.851612
 21
5.037638
 31
0.0
 11
1.853989
 21
4.944655
 31
0.0
 11
1.851537
 21
4.856286
 31
0.0
 11
1.841868
 21
4.799122
 31
0.0
 11
1.821064
 21
4.750000
 31
0.0
 11
1.766255
 21
4.662585
 31
0.0
 11
1.700193
 21
4.585734
 31
0.0
 11
1.627594
 21
4.524934
 31
0.0
  0
LWPOLYLINE
  5
193
100
AcDbEntity
  8
0
 62
7
100
AcDbPolyline
 90
4
 70
1
 10
1.627594
 20
4.524934
 30
0.0
 10
1.562500
 20
4.480297
 30
0.0
 10
1.608234
 20
4.535287
 30
0.0
 10
1.608234
 20
4.535287
 30
0.0
  0
SPLINE
  5
194
100
AcDbEntity
  8
0
 62
7
100
AcDbSpline
 70
0
 71
3
 72
10
 73
6
 74
4
 40
0.000000
 40
0.000000
 40
0.000000
 40
0.000000
 40
0.062321
 40
0.144339
 40
0.258840
 40
0.258840
 40
0.258840
 40
0.258840
 10
0.876623
 20
4.675426
 30
0.0
 10
0.861737
 20
4.690373
 30
0.0
 10
0.827259
 20
4.724991
 30
0.0
 10
0.806013
 20
4.811862
 30
0.0
 10
0.801076
 20
4.876780
 30
0.0
 10
0.798200
 20
4.914605
 30
0.0
 11
0.876623
 21
4.675426
 31
0.0
 11
0.836183
 21
4.722844
 31
0.0
 11
0.810629
 21
4.800780
 31
0.0
 11
0.798200
 21
4.914605
 31
0.0
  0
LWPOLYLINE
  5
195
100
AcDbEntity
  8
0
 62
7
100
AcDbPolyline
 90
3
 70
1
 10
0.798200
 20
4.914605
 30
0.0
 10
0.792395
 20
5.034722
 30
0.0
 10
0.810822
 20
4.916098
 30
0.0
  0
SPLINE
  5
196
100
AcDbEntity
  8
0
 62
7
100
AcDbSpline
 70
0
 71
3
 72
34
 73
30
 74
28
 40
0.000000
 40
0.000000
 40
0.000000
 40
0.000000
 40
0.107859
 40
0.170180
 40
0.213278
 40
0.254419
 40
0.312895
 40
0.409572
 40
0.564113
 40
0.685676
 40
0.743573
 40
0.763648
 40
0.820807
 40
0.953015
 40
1.037058
 40
1.080861
 40
1.125233
 40
1.180991
 40
1.226446
 40
1.287900
 40
1.360517
 40
1.436586
 40
1.545310
 40
1.606149
 40
1.660143
 40
1.695770
 40
1.723595
 40
1.749842
 40
1.780857
 40
1.780857
 40
1.780857
 40
1.780857
 10
0.810822
 20
4.916098
 30
0.0
 10
0.816623
 20
4.880772
 30
0.0
 10
0.825776
 20
4.825035
 30
0.0
 10
0.847546
 20
4.755570
 30
0.0
 10
0.888831
 20
4.722455
 30
0.0
 10
0.942639
 20
4.731178
 30
0.0
 10
0.970469
 20
4.797970
 30
0.0
 10
0.987749
 20
4.895482
 30
0.0
 10
1.018950
 20
5.024834
 30
0.0
 10
1.046911
 20
5.111513
 30
0.0
 10
1.106888
 20
5.192842
 30
0.0
 10
1.137265
 20
5.148978
 30
0.0
 10
1.120844
 20
5.078435
 30
0.0
 10
1.121512
 20
4.987703
 30
0.0
 10
1.109762
 20
4.902292
 30
0.0
 10
1.115320
 20
4.842802
 30
0.0
 10
1.147668
 20
4.805930
 30
0.0
 10
1.181314
 20
4.768295
 30
0.0
 10
1.239680
 20
4.762994
 30
0.0
 10
1.293200
 20
4.792333
 30
0.0
 10
1.349567
 20
4.837971
 30
0.0
 10
1.371221
 20
4.925491
 30
0.0
 10
1.364221
 20
5.007039
 30
0.0
 10
1.354028
 20
5.080858
 30
0.0
 10
1.345558
 20
5.130374
 30
0.0
 10
1.335630
 20
5.168187
 30
0.0
 10
1.325861
 20
5.196739
 30
0.0
 10
1.327475
 20
5.225750
 30
0.0
 10
1.334145
 20
5.243693
 30
0.0
 10
1.337758
 20
5.253411
 30
0.0
 11
0.810822
 21
4.916098
 31
0.0
 11
0.831526
 21
4.810244
 31
0.0
 11
0.856126
 21
4.752984
 31
0.0
 11
0.891484
 21
4.728343
 31
0.0
 11
0.932106
 21
4.734862
 31
0.0
 11
0.963158
 21
4.784412
 31
0.0
 11
0.985559
 21
4.878458
 31
0.0
 11
1.021712
 21
5.028711
 31
0.0
 11
1.070098
 21
5.140228
 31
0.0
 11
1.114999
 21
5.176780
 31
0.0
 11
1.127347
 21
5.160952
 31
0.0
 11
1.128123
 21
5.103798
 31
0.0
 11
1.117780
 21
4.971995
 31
0.0
 11
1.112223
 21
4.888136
 31
0.0
 11
1.119490
 21
4.844941
 31
0.0
 11
1.145234
 21
4.808801
 31
0.0
 11
1.187618
 21
4.772571
 31
0.0
 11
1.232767
 21
4.767303
 31
0.0
 11
1.289030
 21
4.792023
 31
0.0
 11
1.342111
 21
4.841577
 31
0.0
 11
1.364948
 21
4.914138
 31
0.0
 11
1.361664
 21
5.022812
 31
0.0
 11
1.353371
 21
5.083083
 31
0.0
 11
1.343606
 21
5.136186
 31
0.0
 11
1.334483
 21
5.170626
 31
0.0
 11
1.327520
 21
5.197565
 31
0.0
 11
1.328558
 21
5.223792
 31
0.0
 11
1.337758
 21
5.253411
 31
0.0
  0
LWPOLYLINE
  5
197
100
AcDbEntity
  8
0
 62
7
100
AcDbPolyline
 90
3
 70
1
 10
1.337758
 20
5.253411
 30
0.0
 10
1.355755
 20
5.297515
 30
0.0
 10
1.379050
 20
5.239295
 30
0.0
  0
SPLINE
  5
198
100
AcDbEntity
  8
0
 62
7
100
AcDbSpline
 70
0
 71
3
 72
43
 73
39
 74
37
 40
0.000000
 40
0.000000
 40
0.000000
 40
0.000000
 40
0.052996
 40
0.132012
 40
0.220109
 40
0.361093
 40
0.438725
 40
0.505274
 40
0.567389
 40
0.611060
 40
0.719270
 40
0.796272
 40
0.866713
 40
0.915425
 40
0.946758
 40
0.971663
 40
0.985295
 40
1.012370
 40
1.056353
 40
1.084435
 40
1.098644
 40
1.129312
 40
1.170309
 40
1.216968
 40
1.236974
 40
1.247138
 40
1.265942
 40
1.297431
 40
1.382736
 40
1.439370
 40
1.491437
 40
1.527719
 40
1.631528
 40
1.722471
 40
1.804875
 40
1.869034
 40
1.943098
 40
2.014407
 40
2.014407
 40
2.014407
 40
2.014407
 10
1.379050
 20
5.239295
 30
0.0
 10
1.384445
 20
5.222462
 30
0.0
 10
1.397884
 20
5.180530
 30
0.0
 10
1.413973
 20
5.109009
 30
0.0
 10
1.434457
 20
5.007623
 30
0.0
 10
1.449702
 20
4.910303
 30
0.0
 10
1.494667
 20
4.813513
 30
0.0
 10
1.564490
 20
4.806204
 30
0.0
 10
1.634850
 20
4.798704
 30
0.0
 10
1.649619
 20
4.881800
 30
0.0
 10
1.614308
 20
4.948784
 30
0.0
 10
1.592535
 20
5.031733
 30
0.0
 10
1.574362
 20
5.094416
 30
0.0
 10
1.563954
 20
5.143641
 30
0.0
 10
1.556827
 20
5.177641
 30
0.0
 10
1.551956
 20
5.200977
 30
0.0
 10
1.537628
 20
5.218324
 30
0.0
 10
1.539979
 20
5.249897
 30
0.0
 10
1.549380
 20
5.274417
 30
0.0
 10
1.568546
 20
5.313783
 30
0.0
 10
1.587208
 20
5.290114
 30
0.0
 10
1.600776
 20
5.268309
 30
0.0
 10
1.621489
 20
5.230950
 30
0.0
 10
1.632187
 20
5.204916
 30
0.0
 10
1.649347
 20
5.170933
 30
0.0
 10
1.629717
 20
5.170768
 30
0.0
 10
1.605316
 20
5.177722
 30
0.0
 10
1.626793
 20
5.113166
 30
0.0
 10
1.640482
 20
5.071347
 30
0.0
 10
1.662715
 20
5.007243
 30
0.0
 10
1.676533
 20
4.961581
 30
0.0
 10
1.694255
 20
4.899837
 30
0.0
 10
1.692463
 20
4.819913
 30
0.0
 10
1.647270
 20
4.734478
 30
0.0
 10
1.566654
 20
4.698258
 30
0.0
 10
1.494757
 20
4.725841
 30
0.0
 10
1.439117
 20
4.770653
 30
0.0
 10
1.417696
 20
4.814743
 30
0.0
 10
1.407189
 20
4.836371
 30
0.0
 11
1.379050
 21
5.239295
 31
0.0
 11
1.394624
 21
5.188640
 31
0.0
 11
1.413062
 21
5.111805
 31
0.0
 11
1.430372
 21
5.025425
 31
0.0
 11
1.462668
 21
4.888190
 31
0.0
 11
1.503971
 21
4.822457
 31
0.0
 11
1.568393
 21
4.805768
 31
0.0
 11
1.630006
 21
4.813651
 31
0.0
 11
1.642361
 21
4.855538
 31
0.0
 11
1.613862
 21
4.959928
 31
0.0
 11
1.591675
 21
5.033665
 31
0.0
 11
1.573327
 21
5.101674
 31
0.0
 11
1.562789
 21
5.149233
 31
0.0
 11
1.556359
 21
5.179898
 31
0.0
 11
1.548778
 21
5.203621
 31
0.0
 11
1.541687
 21
5.215265
 31
0.0
 11
1.540201
 21
5.242298
 31
0.0
 11
1.554306
 21
5.283959
 31
0.0
 11
1.572255
 21
5.305556
 31
0.0
 11
1.582558
 21
5.295771
 31
0.0
 11
1.599368
 21
5.270120
 31
0.0
 11
1.619047
 21
5.234155
 31
0.0
 11
1.638885
 21
5.191923
 31
0.0
 11
1.643265
 21
5.172403
 31
0.0
 11
1.633170
 21
5.171219
 31
0.0
 11
1.614387
 21
5.172107
 31
0.0
 11
1.617595
 21
5.140782
 31
0.0
 11
1.644573
 21
5.059856
 31
0.0
 11
1.662669
 21
5.006190
 31
0.0
 11
1.677943
 21
4.956414
 31
0.0
 11
1.687088
 21
4.921303
 31
0.0
 11
1.683769
 21
4.817547
 31
0.0
 11
1.637463
 21
4.739277
 31
0.0
 11
1.561089
 21
4.708333
 31
0.0
 11
1.499782
 21
4.727249
 31
0.0
 11
1.442846
 21
4.774617
 31
0.0
 11
1.407189
 21
4.836371
 31
0.0
  0
LWPOLYLINE
  5
199
100
AcDbEntity
  8
0
 62
7
100
AcDbPolyline
 90
3
 70
1
 10
1.407189
 20
4.836371
 30
0.0
 10
1.393444
 20
4.881944
 30
0.0
 10
1.374596
 20
4.821303
 30
0.0
  0
SPLINE
  5
19a
100
AcDbEntity
  8
0
 62
7
100
AcDbSpline
 70
0
 71
3
 72
31
 73
27
 74
25
 40
0.000000
 40
0.000000
 40
0.000000
 40
0.000000
 40
0.073017
 40
0.143069
 40
0.202509
 40
0.227113
 40
0.257450
 40
0.288700
 40
0.360196
 40
0.441206
 40
0.560513
 40
0.621392
 40
0.671687
 40
0.700620
 40
0.716673
 40
0.720357
 40
0.738281
 40
0.770435
 40
0.828326
 40
0.899962
 40
1.059935
 40
1.133659
 40
1.167368
 40
1.194051
 40
1.211150
 40
1.243866
 40
1.243866
 40
1.243866
 40
1.243866
 10
1.374596
 20
4.821303
 30
0.0
 10
1.365162
 20
4.798647
 30
0.0
 10
1.346678
 20
4.754253
 30
0.0
 10
1.300878
 20
4.703897
 30
0.0
 10
1.255865
 20
4.674359
 30
0.0
 10
1.217195
 20
4.672423
 30
0.0
 10
1.188699
 20
4.676833
 30
0.0
 10
1.146183
 20
4.689521
 30
0.0
 10
1.093249
 20
4.727944
 30
0.0
 10
1.068500
 20
4.819678
 30
0.0
 10
1.073176
 20
4.906791
 30
0.0
 10
1.078597
 20
4.982637
 30
0.0
 10
1.087781
 20
5.030549
 30
0.0
 10
1.086208
 20
5.058931
 30
0.0
 10
1.101743
 20
5.078787
 30
0.0
 10
1.088098
 20
5.083703
 30
0.0
 10
1.076616
 20
5.063294
 30
0.0
 10
1.061193
 20
5.034905
 30
0.0
 10
1.045104
 20
4.981086
 30
0.0
 10
1.021767
 20
4.888313
 30
0.0
 10
0.996978
 20
4.791097
 30
0.0
 10
0.979577
 20
4.699675
 30
0.0
 10
0.947694
 20
4.667584
 30
0.0
 10
0.924513
 20
4.653121
 30
0.0
 10
0.897956
 20
4.657213
 30
0.0
 10
0.885080
 20
4.668206
 30
0.0
 10
0.876623
 20
4.675426
 30
0.0
 11
1.374596
 21
4.821303
 31
0.0
 11
1.342681
 21
4.755630
 31
0.0
 11
1.295979
 21
4.703418
 31
0.0
 11
1.243756
 21
4.675028
 31
0.0
 11
1.219216
 21
4.673270
 31
0.0
 11
1.189167
 21
4.677446
 31
0.0
 11
1.159339
 21
4.686765
 31
0.0
 11
1.102593
 21
4.730258
 31
0.0
 11
1.075557
 21
4.806623
 31
0.0
 11
1.074666
 21
4.925927
 31
0.0
 11
1.080247
 21
4.986550
 31
0.0
 11
1.086561
 21
5.036447
 31
0.0
 11
1.092242
 21
5.064816
 31
0.0
 11
1.096793
 21
5.080211
 31
0.0
 11
1.093351
 21
5.081524
 31
0.0
 11
1.080109
 21
5.069444
 31
0.0
 11
1.065367
 21
5.040869
 31
0.0
 11
1.046961
 21
4.985983
 31
0.0
 11
1.028875
 21
4.916667
 31
0.0
 11
0.991740
 21
4.761063
 31
0.0
 11
0.968238
 21
4.691186
 31
0.0
 11
0.944868
 21
4.666893
 31
0.0
 11
0.920866
 21
4.655238
 31
0.0
 11
0.903898
 21
4.657359
 31
0.0
 11
0.876623
 21
4.675426
 31
0.0
  0
LWPOLYLINE
  5
19b
100
AcDbEntity
  8
0
 62
7
100
AcDbPolyline
 90
2
 70
1
 10
0.876623
 20
4.675426
 30
0.0
 10
0.876623
 20
4.675426
 30
0.0
  0
SPLINE
  5
19c
100
AcDbEntity
  8
0
 62
7
100
AcDbSpline
 70
0
 71
3
 72
10
 73
6
 74
4
 40
0.000000
 40
0.000000
 40
0.000000
 40
0.000000
 40
0.065023
 40
0.128311
 40
0.176198
 40
0.176198
 40
0.176198
 40
0.176198
 10
0.895833
 20
5.126809
 30
0.0
 10
0.911902
 20
5.141354
 30
0.0
 10
0.943611
 20
5.170055
 30
0.0
 10
0.986345
 20
5.210366
 30
0.0
 10
1.012338
 20
5.236783
 30
0.0
 10
1.023533
 20
5.248162
 30
0.0
 11
0.895833
 21
5.126809
 31
0.0
 11
0.943889
 21
5.170611
 31
0.0
 11
0.989766
 21
5.214208
 31
0.0
 11
1.023533
 21
5.248162
 31
0.0
  0
LWPOLYLINE
  5
19d
100
AcDbEntity
  8
0
 62
7
100
AcDbPolyline
 90
3
 70
1
 10
1.023533
 20
5.248162
 30
0.0
 10
1.067900
 20
5.295409
 30
0.0
 10
1.037422
 20
5.320473
 30
0.0
  0
SPLINE
  5
19e
100
AcDbEntity
  8
0
 62
7
100
AcDbSpline
 70
0
 71
3
 72
28
 73
24
 74
22
 40
0.000000
 40
0.000000
 40
0.000000
 40
0.000000
 40
0.027229
 40
0.044872
 40
0.075442
 40
0.120578
 40
0.145690
 40
0.189656
 40
0.217470
 40
0.242930
 40
0.260531
 40
0.270584
 40
0.278091
 40
0.285897
 40
0.300035
 40
0.324418
 40
0.355013
 40
0.440187
 40
0.552321
 40
0.637428
 40
0.642232
 40
0.674191
 40
0.727252
 40
0.727252
 40
0.727252
 40
0.727252
 10
1.037422
 20
5.320473
 30
0.0
 10
1.029555
 20
5.325881
 30
0.0
 10
1.016590
 20
5.334791
 30
0.0
 10
1.013219
 20
5.362171
 30
0.0
 10
1.031840
 20
5.387345
 30
0.0
 10
1.046854
 20
5.423990
 30
0.0
 10
1.093066
 20
5.418021
 30
0.0
 10
1.097194
 20
5.379096
 30
0.0
 10
1.103471
 20
5.348671
 30
0.0
 10
1.107868
 20
5.325156
 30
0.0
 10
1.112241
 20
5.308106
 30
0.0
 10
1.114306
 20
5.296418
 30
0.0
 10
1.109580
 20
5.287723
 30
0.0
 10
1.098772
 20
5.288682
 30
0.0
 10
1.084472
 20
5.282357
 30
0.0
 10
1.067109
 20
5.266625
 30
0.0
 10
1.038049
 20
5.230878
 30
0.0
 10
0.979377
 20
5.171334
 30
0.0
 10
0.928200
 20
5.141782
 30
0.0
 10
0.828134
 20
5.035169
 30
0.0
 10
0.835807
 20
5.077831
 30
0.0
 10
0.864619
 20
5.094125
 30
0.0
 10
0.883839
 20
5.114249
 30
0.0
 10
0.895833
 20
5.126809
 30
0.0
 11
1.037422
 21
5.320473
 31
0.0
 11
1.017856
 21
5.339410
 31
0.0
 11
1.015373
 21
5.356878
 31
0.0
 11
1.028310
 21
5.384575
 31
0.0
 11
1.057252
 21
5.419212
 31
0.0
 11
1.082133
 21
5.415816
 31
0.0
 11
1.098473
 21
5.375000
 31
0.0
 11
1.103587
 21
5.347659
 31
0.0
 11
1.108661
 21
5.322711
 31
0.0
 11
1.112598
 21
5.305556
 31
0.0
 11
1.113045
 21
5.295512
 31
0.0
 11
1.108971
 21
5.289207
 31
0.0
 11
1.101258
 21
5.288007
 31
0.0
 11
1.087932
 21
5.283283
 31
0.0
 11
1.069144
 21
5.267742
 31
0.0
 11
1.048961
 21
5.244748
 31
0.0
 11
0.989120
 21
5.184137
 31
0.0
 11
0.903282
 21
5.111986
 31
0.0
 11
0.833333
 21
5.063505
 31
0.0
 11
0.834259
 21
5.068219
 31
0.0
 11
0.856713
 21
5.090962
 31
0.0
 11
0.895833
 21
5.126809
 31
0.0
  0
LWPOLYLINE
  5
19f
100
AcDbEntity
  8
0
 62
7
100
AcDbPolyline
 90
2
 70
1
 10
0.895833
 20
5.126809
 30
0.0
 10
0.895833
 20
5.126809
 30
0.0
  0
SPLINE
  5
1a0
100
AcDbEntity
  8
0
 62
7
100
AcDbSpline
 70
0
 71
3
 72
16
 73
12
 74
10
 40
0.000000
 40
0.000000
 40
0.000000
 40
0.000000
 40
0.021062
 40
0.034632
 40
0.060397
 40
0.076201
 40
0.084437
 40
0.093132
 40
0.103616
 40
0.115574
 40
0.127682
 40
0.127682
 40
0.127682
 40
0.127682
 10
1.071238
 20
5.378762
 30
0.0
 10
1.064428
 20
5.384758
 30
0.0
 10
1.053231
 20
5.394618
 30
0.0
 10
1.041058
 20
5.371102
 30
0.0
 10
1.055056
 20
5.355258
 30
0.0
 10
1.064446
 20
5.342765
 30
0.0
 10
1.076672
 20
5.337754
 30
0.0
 10
1.082025
 20
5.347720
 30
0.0
 10
1.082107
 20
5.357816
 30
0.0
 10
1.078806
 20
5.369281
 30
0.0
 10
1.073772
 20
5.375588
 30
0.0
 10
1.071238
 20
5.378762
 30
0.0
 11
1.071238
 21
5.378762
 31
0.0
 11
1.052368
 21
5.388117
 31
0.0
 11
1.045648
 21
5.376327
 31
0.0
 11
1.056541
 21
5.352979
 31
0.0
 11
1.067794
 21
5.341883
 31
0.0
 11
1.075787
 21
5.339894
 31
0.0
 11
1.080916
 21
5.346915
 31
0.0
 11
1.081622
 21
5.357375
 31
0.0
 11
1.078145
 21
5.368817
 31
0.0
 11
1.071238
 21
5.378762
 31
0.0
  0
LWPOLYLINE
  5
1a1
100
AcDbEntity
  8
0
 62
7
100
AcDbPolyline
 90
2
 70
1
 10
1.071238
 20
5.378762
 30
0.0
 10
1.071238
 20
5.378762
 30
0.0
  0
SPLINE
  5
1a2
100
AcDbEntity
  8
0
 62
7
100
AcDbSpline
 70
0
 71
3
 72
16
 73
12
 74
10
 40
0.000000
 40
0.000000
 40
0.000000
 40
0.000000
 40
0.045237
 40
0.074608
 40
0.090573
 40
0.097239
 40
0.110895
 40
0.131883
 40
0.169056
 40
0.188329
 40
0.235694
 40
0.235694
 40
0.235694
 40
0.235694
 10
1.243855
 20
5.420139
 30
0.0
 10
1.239786
 20
5.435146
 30
0.0
 10
1.233076
 20
5.459896
 30
0.0
 10
1.228704
 20
5.486122
 30
0.0
 10
1.233250
 20
5.510173
 30
0.0
 10
1.247221
 20
5.505293
 30
0.0
 10
1.248458
 20
5.489432
 30
0.0
 10
1.251098
 20
5.469255
 30
0.0
 10
1.248800
 20
5.427893
 30
0.0
 10
1.290203
 20
5.446341
 30
0.0
 10
1.291295
 20
5.470233
 30
0.0
 10
1.292072
 20
5.487215
 30
0.0
 11
1.243855
 21
5.420139
 31
0.0
 11
1.232792
 21
5.464003
 31
0.0
 11
1.230639
 21
5.493294
 31
0.0
 11
1.237415
 21
5.507750
 31
0.0
 11
1.243754
 21
5.505687
 31
0.0
 11
1.248275
 21
5.492802
 31
0.0
 11
1.250000
 21
5.471885
 31
0.0
 11
1.258759
 21
5.435758
 31
0.0
 11
1.276867
 21
5.442357
 31
0.0
 11
1.292072
 21
5.487215
 31
0.0
  0
LWPOLYLINE
  5
1a3
100
AcDbEntity
  8
0
 62
7
100
AcDbPolyline
 90
3
 70
1
 10
1.292072
 20
5.487215
 30
0.0
 10
1.299422
 20
5.534722
 30
0.0
 10
1.309086
 20
5.489583
 30
0.0
  0
SPLINE
  5
1a4
100
AcDbEntity
  8
0
 62
7
100
AcDbSpline
 70
0
 71
3
 72
13
 73
9
 74
7
 40
0.000000
 40
0.000000
 40
0.000000
 40
0.000000
 40
0.023723
 40
0.042015
 40
0.052383
 40
0.061033
 40
0.077340
 40
0.100350
 40
0.100350
 40
0.100350
 40
0.100350
 10
1.309086
 20
5.489583
 30
0.0
 10
1.311191
 20
5.481779
 30
0.0
 10
1.314918
 20
5.467957
 30
0.0
 10
1.321352
 20
5.453371
 30
0.0
 10
1.332305
 20
5.441275
 30
0.0
 10
1.341609
 20
5.453113
 30
0.0
 10
1.341506
 20
5.468759
 30
0.0
 10
1.340426
 20
5.481895
 30
0.0
 10
1.339794
 20
5.489583
 30
0.0
 11
1.309086
 21
5.489583
 31
0.0
 11
1.315857
 21
5.466847
 31
0.0
 11
1.324319
 21
5.450630
 31
0.0
 11
1.332639
 21
5.444444
 31
0.0
 11
1.338796
 21
5.450520
 31
0.0
 11
1.341349
 21
5.466626
 31
0.0
 11
1.339794
 21
5.489583
 31
0.0
  0
LWPOLYLINE
  5
1a5
100
AcDbEntity
  8
0
 62
7
100
AcDbPolyline
 90
3
 70
1
 10
1.339794
 20
5.489583
 30
0.0
 10
1.333061
 20
5.534722
 30
0.0
 10
1.348396
 20
5.496070
 30
0.0
  0
SPLINE
  5
1a6
100
AcDbEntity
  8
0
 62
7
100
AcDbSpline
 70
0
 71
3
 72
16
 73
12
 74
10
 40
0.000000
 40
0.000000
 40
0.000000
 40
0.000000
 40
0.045019
 40
0.074121
 40
0.102372
 40
0.117459
 40
0.130312
 40
0.139688
 40
0.157709
 40
0.173246
 40
0.191036
 40
0.191036
 40
0.191036
 40
0.191036
 10
1.348396
 20
5.496070
 30
0.0
 10
1.353396
 20
5.482072
 30
0.0
 10
1.361628
 20
5.459026
 30
0.0
 10
1.351754
 20
5.419521
 30
0.0
 10
1.322995
 20
5.419471
 30
0.0
 10
1.305326
 20
5.423307
 30
0.0
 10
1.292219
 20
5.422109
 30
0.0
 10
1.281429
 20
5.413861
 30
0.0
 10
1.272192
 20
5.401457
 30
0.0
 10
1.251848
 20
5.404077
 30
0.0
 10
1.246637
 20
5.414549
 30
0.0
 10
1.243855
 20
5.420139
 30
0.0
 11
1.348396
 21
5.496070
 31
0.0
 11
1.357722
 21
5.452027
 31
0.0
 11
1.347234
 21
5.424880
 31
0.0
 11
1.319290
 21
5.420731
 31
0.0
 11
1.304324
 21
5.422642
 31
0.0
 11
1.291616
 21
5.420713
 31
0.0
 11
1.283916
 21
5.415363
 31
0.0
 11
1.269906
 21
5.404029
 31
0.0
 11
1.254478
 21
5.405868
 31
0.0
 11
1.243855
 21
5.420139
 31
0.0
  0
LWPOLYLINE
  5
1a7
100
AcDbEntity
  8
0
 62
7
100
AcDbPolyline
 90
2
 70
1
 10
1.243855
 20
5.420139
 30
0.0
 10
1.243855
 20
5.420139
 30
0.0
  0
ENDSEC
  0
SECTION
  2
OBJECTS
  0
DICTIONARY
  5
C
330
0
100
AcDbDictionary
  3
ACAD_GROUP
350
D
  3
ACAD_MLINESTYLE
350
17
  0
DICTIONARY
  5
D
330
C
100
AcDbDictionary
  0
DICTIONARY
  5
1A
330
C
100
AcDbDictionary
  0
DICTIONARY
  5
17
330
C
100
AcDbDictionary
  3
STANDARD
350
18
  0
DICTIONARY
  5
19
330
C
100
AcDbDictionary
  0
ENDSEC
  0
EOF
